{"glyphs":{"0":{"ha":1408,"x_min":0,"x_max":0,"o":"m 339 -6 l 1069 -6 b 1325 242 1242 -6 1325 74 l 1325 731 b 1069 978 1325 899 1242 978 l 339 978 b 83 731 167 978 83 899 l 83 242 b 339 -6 83 74 167 -6 z m 344 61 b 154 251 208 61 154 117 l 154 721 b 344 911 154 856 208 911 l 1064 911 b 1256 721 1201 911 1256 856 l 1256 251 b 1064 61 1256 117 1201 61 z "},"1":{"ha":469,"x_min":0,"x_max":0,"o":"m 364 972 l 57 972 b 42 957 47 972 42 968 l 42 925 b 57 910 42 913 47 910 l 311 910 l 311 17 b 328 0 311 6 315 0 l 364 0 b 379 17 376 0 379 6 l 379 956 b 364 972 379 967 376 972 z "},"2":{"ha":1265,"x_min":0,"x_max":0,"o":"m 83 0 l 1179 0 b 1196 15 1190 0 1196 4 l 1196 47 b 1179 63 1196 60 1190 63 l 132 63 l 132 135 b 278 344 132 236 151 328 l 972 435 b 1203 721 1147 457 1203 569 b 935 979 1203 899 1114 979 l 350 979 b 74 731 188 979 74 907 l 74 711 b 89 694 74 700 78 694 l 125 694 b 142 711 138 694 142 700 b 353 914 142 858 211 914 l 933 914 b 1133 721 1076 914 1133 854 b 949 497 1133 601 1093 517 l 267 406 b 63 117 92 382 63 278 l 63 21 b 83 0 63 7 69 0 z "},"3":{"ha":1281,"x_min":0,"x_max":0,"o":"m 1040 504 l 1040 514 b 1193 721 1146 544 1193 594 b 924 979 1193 899 1103 979 l 350 979 b 74 731 188 979 74 907 l 74 711 b 90 694 74 700 78 694 l 126 694 b 142 711 138 694 142 700 b 354 914 142 858 211 914 l 922 914 b 1125 721 1064 914 1125 854 b 903 540 1125 589 1040 540 l 289 540 b 274 525 279 540 274 536 l 274 493 b 289 478 274 481 279 478 l 903 478 b 1150 260 1040 478 1150 428 b 942 60 1150 126 1085 60 l 343 60 b 131 263 200 60 131 114 b 115 278 131 272 126 278 l 79 278 b 63 263 67 278 63 272 l 63 242 b 339 -7 63 65 176 -7 l 943 -7 b 1218 260 1121 -7 1218 81 b 1040 504 1218 428 1146 478 z "},"4":{"ha":1279,"x_min":0,"x_max":0,"o":"m 1197 260 l 1100 260 l 1100 472 b 1081 492 1100 486 1094 492 l 1049 492 b 1029 472 1035 492 1029 486 l 1029 260 l 176 260 l 171 268 l 864 947 b 856 972 878 960 872 972 l 810 972 b 781 957 801 972 792 968 l 74 264 b 65 236 63 254 61 247 l 78 210 b 100 193 82 197 89 193 l 1029 193 l 1029 19 b 1049 0 1029 6 1035 0 l 1081 0 b 1100 19 1094 0 1100 6 l 1100 193 l 1197 193 b 1217 213 1211 193 1217 199 l 1217 240 b 1197 260 1217 254 1211 260 z "},"5":{"ha":1304,"x_min":0,"x_max":0,"o":"m 346 -7 l 958 -7 b 1235 274 1136 -7 1235 86 l 1235 347 b 978 614 1235 494 1167 614 l 363 614 b 161 531 263 614 190 572 l 154 531 l 186 910 l 1165 910 b 1181 925 1175 910 1181 913 l 1181 957 b 1165 972 1181 968 1175 972 l 146 972 b 125 951 132 972 126 965 l 83 481 b 103 456 82 464 89 456 l 157 456 b 349 549 183 497 235 549 l 953 549 b 1165 339 1104 549 1165 483 l 1165 274 b 957 60 1165 128 1099 60 l 350 60 b 138 263 206 60 138 114 b 122 278 138 272 133 278 l 86 278 b 69 263 74 278 69 272 l 69 242 b 346 -7 69 65 183 -7 z "},"6":{"ha":1306,"x_min":0,"x_max":0,"o":"m 368 -7 l 951 -7 b 1236 274 1147 -7 1236 86 l 1236 328 b 981 593 1236 475 1168 593 l 360 593 b 160 503 261 593 188 550 l 154 503 l 151 721 b 357 915 150 854 214 915 l 939 915 b 1142 756 1082 915 1142 872 b 1158 740 1142 744 1146 740 l 1194 740 b 1210 756 1207 740 1210 744 l 1210 776 b 942 979 1210 922 1106 979 l 356 979 b 83 721 176 979 83 899 l 83 271 b 368 -7 83 86 171 -7 z m 365 57 b 151 274 211 57 151 128 l 151 318 b 365 528 151 464 211 528 l 954 528 b 1168 318 1106 528 1168 464 l 1168 274 b 954 57 1168 128 1106 57 z "},"7":{"ha":1269,"x_min":0,"x_max":0,"o":"m 1200 900 l 1200 953 b 1181 972 1200 967 1194 972 l 89 972 b 69 953 75 972 69 967 l 69 926 b 89 907 69 913 75 907 l 1119 907 l 1119 896 l 92 18 b 99 0 83 11 86 0 l 156 0 b 196 21 174 0 182 10 l 1188 874 b 1200 900 1199 885 1200 892 z "},"8":{"ha":1304,"x_min":0,"x_max":0,"o":"m 1069 536 b 1186 742 1146 565 1186 636 b 947 979 1186 894 1103 979 l 357 979 b 118 742 200 979 118 894 b 235 536 118 638 158 565 b 83 297 135 501 83 426 l 83 265 b 368 -7 83 86 171 -7 l 936 -7 b 1221 267 1132 -7 1221 86 l 1221 294 b 1069 536 1221 425 1169 501 z m 360 917 l 944 917 b 1119 742 1061 917 1119 865 b 944 565 1119 618 1061 565 l 361 565 b 185 742 243 565 185 618 b 360 917 185 865 243 917 z m 1153 267 b 939 57 1153 128 1090 57 l 365 57 b 151 267 211 57 151 128 l 151 294 b 365 503 151 433 211 503 l 939 503 b 1153 294 1093 503 1153 433 z "},"9":{"ha":1306,"x_min":0,"x_max":0,"o":"m 951 979 l 368 979 b 83 699 171 979 83 888 l 83 644 b 339 379 83 497 151 379 l 960 379 b 1160 469 1058 379 1131 422 l 1164 469 l 1168 251 b 963 57 1169 118 1104 57 l 381 57 b 176 217 238 57 176 100 b 161 232 176 228 174 232 l 125 232 b 108 217 113 232 108 228 l 108 197 b 378 -7 108 50 214 -7 l 964 -7 b 1236 251 1143 -7 1236 74 l 1236 701 b 951 979 1236 888 1147 979 z m 954 915 b 1168 699 1108 915 1168 844 l 1168 654 b 954 444 1168 508 1108 444 l 365 444 b 151 654 213 444 151 508 l 151 699 b 365 915 151 844 213 915 z "},"A":{"ha":1449,"x_min":0,"x_max":0,"o":"m 1389 22 l 778 950 b 753 972 769 964 765 972 l 697 972 b 671 950 685 972 679 964 l 60 22 b 74 0 50 7 60 0 l 114 0 b 142 22 128 0 132 7 l 256 196 l 1194 196 l 1308 22 b 1336 0 1318 7 1322 0 l 1375 0 b 1389 22 1389 0 1399 7 z m 297 258 l 718 900 l 732 900 l 1153 258 z "},"Á":{"ha":1449,"x_min":0,"x_max":0,"o":"m 703 1040 l 732 1040 b 765 1065 746 1040 753 1050 l 892 1225 b 885 1250 904 1240 900 1250 l 828 1250 b 796 1225 814 1250 806 1242 l 693 1065 b 703 1040 683 1050 689 1040 z m 1389 22 l 778 950 b 753 972 769 964 765 972 l 697 972 b 671 950 685 972 679 964 l 60 22 b 74 0 50 7 60 0 l 114 0 b 142 22 128 0 132 7 l 256 196 l 1194 196 l 1308 22 b 1336 0 1318 7 1322 0 l 1375 0 b 1389 22 1389 0 1399 7 z m 297 258 l 718 900 l 732 900 l 1153 258 z "},"Ă":{"ha":1449,"x_min":0,"x_max":0,"o":"m 699 1068 l 749 1068 b 907 1236 856 1068 907 1125 b 890 1250 907 1246 904 1250 l 865 1250 b 847 1236 851 1250 847 1246 b 747 1124 847 1171 813 1124 l 700 1124 b 600 1236 636 1124 601 1171 b 582 1250 600 1246 596 1250 l 558 1250 b 540 1236 544 1250 540 1246 b 699 1068 540 1125 596 1068 z m 1389 22 l 778 950 b 753 972 769 964 765 972 l 697 972 b 671 950 685 972 679 964 l 60 22 b 74 0 50 7 60 0 l 114 0 b 142 22 128 0 132 7 l 256 196 l 1194 196 l 1308 22 b 1336 0 1318 7 1322 0 l 1375 0 b 1389 22 1389 0 1399 7 z m 297 258 l 718 900 l 732 900 l 1153 258 z "},"Ǎ":{"ha":1449,"x_min":0,"x_max":0,"o":"m 671 1061 b 706 1043 683 1047 690 1043 l 739 1043 b 778 1061 754 1043 765 1046 l 924 1228 b 917 1250 933 1239 931 1250 l 883 1250 b 849 1231 871 1250 864 1249 l 732 1099 l 718 1099 l 600 1231 b 565 1250 585 1249 578 1250 l 533 1250 b 525 1228 519 1250 515 1239 z m 1389 22 l 778 950 b 753 972 769 964 765 972 l 697 972 b 671 950 685 972 679 964 l 60 22 b 74 0 50 7 60 0 l 114 0 b 142 22 128 0 132 7 l 256 196 l 1194 196 l 1308 22 b 1336 0 1318 7 1322 0 l 1375 0 b 1389 22 1389 0 1399 7 z m 297 258 l 718 900 l 732 900 l 1153 258 z "},"Â":{"ha":1449,"x_min":0,"x_max":0,"o":"m 533 1043 l 565 1043 b 600 1064 578 1043 585 1046 l 718 1196 l 732 1196 l 849 1064 b 883 1043 864 1046 871 1043 l 917 1043 b 924 1065 931 1043 933 1054 l 778 1232 b 739 1250 765 1247 754 1250 l 706 1250 b 671 1232 690 1250 683 1246 l 525 1065 b 533 1043 515 1054 519 1043 z m 1389 22 l 778 950 b 753 972 769 964 765 972 l 697 972 b 671 950 685 972 679 964 l 60 22 b 74 0 50 7 60 0 l 114 0 b 142 22 128 0 132 7 l 256 196 l 1194 196 l 1308 22 b 1336 0 1318 7 1322 0 l 1375 0 b 1389 22 1389 0 1399 7 z m 297 258 l 718 900 l 732 900 l 1153 258 z "},"Ä":{"ha":1449,"x_min":0,"x_max":0,"o":"m 525 1171 l 568 1171 b 586 1189 582 1171 586 1175 l 586 1232 b 568 1250 586 1246 582 1250 l 525 1250 b 507 1232 511 1250 507 1246 l 507 1189 b 525 1171 507 1175 511 1171 z m 849 1171 l 892 1171 b 910 1189 906 1171 910 1175 l 910 1232 b 892 1250 910 1246 906 1250 l 849 1250 b 831 1232 835 1250 831 1246 l 831 1189 b 849 1171 831 1175 835 1171 z m 1389 22 l 778 950 b 753 972 769 964 765 972 l 697 972 b 671 950 685 972 679 964 l 60 22 b 74 0 50 7 60 0 l 114 0 b 142 22 128 0 132 7 l 256 196 l 1194 196 l 1308 22 b 1336 0 1318 7 1322 0 l 1375 0 b 1389 22 1389 0 1399 7 z m 297 258 l 718 900 l 732 900 l 1153 258 z "},"À":{"ha":1449,"x_min":0,"x_max":0,"o":"m 681 1063 b 713 1040 693 1047 699 1040 l 742 1040 b 753 1065 756 1040 763 1050 l 653 1225 b 624 1250 643 1242 638 1250 l 569 1250 b 556 1225 554 1250 543 1240 z m 1389 22 l 778 950 b 753 972 769 964 765 972 l 697 972 b 671 950 685 972 679 964 l 60 22 b 74 0 50 7 60 0 l 114 0 b 142 22 128 0 132 7 l 256 196 l 1194 196 l 1308 22 b 1336 0 1318 7 1322 0 l 1375 0 b 1389 22 1389 0 1399 7 z m 297 258 l 718 900 l 732 900 l 1153 258 z "},"Ā":{"ha":1449,"x_min":0,"x_max":0,"o":"m 500 1183 l 950 1183 b 971 1204 963 1183 971 1190 l 971 1229 b 950 1250 971 1243 963 1250 l 500 1250 b 479 1229 486 1250 479 1243 l 479 1204 b 500 1183 479 1190 486 1183 z m 1389 22 l 778 950 b 753 972 769 964 765 972 l 697 972 b 671 950 685 972 679 964 l 60 22 b 74 0 50 7 60 0 l 114 0 b 142 22 128 0 132 7 l 256 196 l 1194 196 l 1308 22 b 1336 0 1318 7 1322 0 l 1375 0 b 1389 22 1389 0 1399 7 z m 297 258 l 718 900 l 732 900 l 1153 258 z "},"Ą":{"ha":1490,"x_min":0,"x_max":0,"o":"m 1225 -132 l 1369 -114 b 1425 -36 1422 -108 1451 -78 l 1390 19 b 1389 22 1390 19 1390 21 l 778 950 b 753 972 769 964 765 972 l 697 972 b 671 950 685 972 679 964 l 60 22 b 74 0 50 7 60 0 l 114 0 b 142 22 128 0 132 7 l 256 196 l 1194 196 l 1306 26 l 1303 26 l 1339 -31 b 1301 -74 1351 -53 1340 -69 l 1240 -81 b 1124 -176 1154 -90 1124 -96 b 1244 -279 1124 -253 1150 -279 l 1385 -279 b 1399 -265 1394 -279 1399 -274 l 1399 -240 b 1385 -228 1399 -231 1393 -228 l 1256 -228 b 1189 -175 1200 -228 1189 -215 b 1225 -132 1189 -137 1199 -135 z m 297 258 l 718 900 l 732 900 l 1153 258 z "},"Å":{"ha":1449,"x_min":0,"x_max":0,"o":"m 715 1025 l 733 1025 b 850 1140 801 1025 850 1075 l 850 1156 b 733 1272 850 1221 801 1272 l 715 1272 b 599 1156 647 1272 599 1221 l 599 1140 b 715 1025 599 1075 647 1025 z m 654 1154 b 718 1218 654 1194 676 1218 l 731 1218 b 794 1154 772 1218 794 1194 l 794 1143 b 731 1079 794 1103 772 1079 l 718 1079 b 654 1143 676 1079 654 1103 z m 1389 22 l 778 950 b 753 972 769 964 765 972 l 697 972 b 671 950 685 972 679 964 l 60 22 b 74 0 50 7 60 0 l 114 0 b 142 22 128 0 132 7 l 256 196 l 1194 196 l 1308 22 b 1336 0 1318 7 1322 0 l 1375 0 b 1389 22 1389 0 1399 7 z m 297 258 l 718 900 l 732 900 l 1153 258 z "},"Ã":{"ha":1449,"x_min":0,"x_max":0,"o":"m 517 1175 b 536 1169 521 1164 526 1163 b 617 1196 568 1189 592 1196 b 828 1126 700 1196 739 1126 b 939 1161 867 1126 903 1140 b 949 1183 950 1168 951 1175 l 935 1210 b 914 1215 931 1219 925 1222 b 833 1189 882 1194 860 1189 b 622 1257 750 1189 713 1257 b 513 1222 585 1257 549 1244 b 503 1201 501 1215 499 1208 z m 1389 22 l 778 950 b 753 972 769 964 765 972 l 697 972 b 671 950 685 972 679 964 l 60 22 b 74 0 50 7 60 0 l 114 0 b 142 22 128 0 132 7 l 256 196 l 1194 196 l 1308 22 b 1336 0 1318 7 1322 0 l 1375 0 b 1389 22 1389 0 1399 7 z m 297 258 l 718 900 l 732 900 l 1153 258 z "},"Æ":{"ha":2183,"x_min":0,"x_max":0,"o":"m 2086 67 l 1061 67 l 1061 453 l 2065 453 b 2086 474 2079 453 2086 460 l 2086 499 b 2065 519 2086 513 2079 519 l 1061 519 l 1061 906 l 2079 906 b 2100 926 2093 906 2100 913 l 2100 951 b 2079 972 2100 965 2093 972 l 1006 972 b 971 951 992 972 983 965 l 61 21 b 71 0 49 7 57 0 l 118 0 b 153 21 132 0 140 7 l 324 196 l 992 196 l 992 19 b 1010 0 992 6 996 0 l 2086 0 b 2107 21 2100 0 2107 7 l 2107 46 b 2086 67 2107 60 2100 67 z m 386 260 l 992 882 l 992 260 z "},"B":{"ha":1321,"x_min":0,"x_max":0,"o":"m 1121 504 l 1121 515 b 1207 700 1182 550 1207 613 l 1207 729 b 972 972 1207 899 1133 972 l 111 972 b 90 951 97 972 90 965 l 90 21 b 111 0 90 7 97 0 l 969 0 b 1244 249 1142 0 1244 61 l 1244 282 b 1121 504 1244 407 1200 475 z m 1136 731 l 1136 703 b 969 532 1136 582 1085 532 l 161 532 l 161 906 l 968 906 b 1136 731 1085 906 1136 861 z m 1174 250 b 968 67 1174 99 1101 67 l 161 67 l 161 469 l 968 469 b 1174 281 1101 469 1174 436 z "},"C":{"ha":1401,"x_min":0,"x_max":0,"o":"m 1271 696 l 1313 696 b 1325 711 1324 696 1325 701 l 1325 731 b 1071 978 1325 899 1243 978 l 339 978 b 83 731 167 978 83 899 l 83 242 b 339 -6 83 74 167 -6 l 1071 -6 b 1325 213 1243 -6 1325 71 l 1325 229 b 1313 246 1325 240 1324 246 l 1269 246 b 1256 229 1258 246 1256 240 l 1256 224 b 1060 61 1256 115 1197 61 l 344 61 b 154 251 208 61 154 117 l 154 721 b 344 911 154 856 208 911 l 1058 911 b 1256 721 1196 911 1256 853 l 1256 711 b 1271 696 1256 701 1258 696 z "},"Ć":{"ha":1325,"x_min":0,"x_max":0,"o":"m 735 1225 l 633 1065 b 642 1040 622 1050 628 1040 l 671 1040 b 704 1065 685 1040 692 1050 l 832 1225 b 825 1250 844 1240 840 1250 l 768 1250 b 735 1225 754 1250 744 1242 z m 1271 696 l 1313 696 b 1325 711 1324 696 1325 701 l 1325 731 b 1071 978 1325 899 1243 978 l 339 978 b 83 731 167 978 83 899 l 83 242 b 339 -6 83 74 167 -6 l 1071 -6 b 1325 213 1243 -6 1325 71 l 1325 229 b 1313 246 1325 240 1324 246 l 1269 246 b 1256 229 1258 246 1256 240 l 1256 224 b 1060 61 1256 115 1197 61 l 344 61 b 154 251 208 61 154 117 l 154 721 b 344 911 154 856 208 911 l 1058 911 b 1256 721 1196 911 1256 853 l 1256 711 b 1271 696 1256 701 1258 696 z "},"Č":{"ha":1325,"x_min":0,"x_max":0,"o":"m 617 1043 l 650 1043 b 689 1061 665 1043 676 1046 l 836 1228 b 828 1250 846 1239 842 1250 l 796 1250 b 761 1231 782 1250 776 1249 l 643 1099 l 629 1099 l 513 1231 b 476 1250 496 1249 490 1250 l 444 1250 b 436 1228 431 1250 428 1239 l 583 1061 b 617 1043 596 1047 601 1043 z m 1271 696 l 1313 696 b 1325 711 1324 696 1325 701 l 1325 731 b 1071 978 1325 899 1243 978 l 339 978 b 83 731 167 978 83 899 l 83 242 b 339 -6 83 74 167 -6 l 1071 -6 b 1325 213 1243 -6 1325 71 l 1325 229 b 1313 246 1325 240 1324 246 l 1269 246 b 1256 229 1258 246 1256 240 l 1256 224 b 1060 61 1256 115 1197 61 l 344 61 b 154 251 208 61 154 117 l 154 721 b 344 911 154 856 208 911 l 1058 911 b 1256 721 1196 911 1256 853 l 1256 711 b 1271 696 1256 701 1258 696 z "},"Ç":{"ha":1325,"x_min":0,"x_max":0,"o":"m 1271 696 l 1313 696 b 1325 711 1324 696 1325 701 l 1325 731 b 1071 978 1325 899 1243 978 l 339 978 b 83 731 167 978 83 899 l 83 242 b 339 -6 83 74 167 -6 l 656 -6 b 608 -82 621 -40 608 -61 b 663 -129 608 -112 633 -126 b 803 -176 761 -140 803 -142 b 731 -224 803 -217 785 -224 l 701 -224 b 628 -167 644 -224 628 -208 b 614 -156 628 -160 621 -156 l 581 -156 b 568 -169 571 -156 568 -161 b 688 -276 568 -239 597 -276 l 743 -276 b 864 -178 832 -276 864 -246 b 717 -82 864 -90 796 -92 b 726 -6 676 -78 660 -72 l 1071 -6 b 1325 213 1243 -6 1325 71 l 1325 229 b 1313 246 1325 240 1324 246 l 1269 246 b 1256 229 1258 246 1256 240 l 1256 224 b 1060 61 1256 115 1197 61 l 344 61 b 154 251 208 61 154 117 l 154 721 b 344 911 154 856 208 911 l 1058 911 b 1256 721 1196 911 1256 853 l 1256 711 b 1271 696 1256 701 1258 696 z "},"Ċ":{"ha":1325,"x_min":0,"x_max":0,"o":"m 649 1171 l 692 1171 b 710 1189 706 1171 710 1175 l 710 1232 b 692 1250 710 1246 706 1250 l 649 1250 b 632 1232 635 1250 632 1246 l 632 1189 b 649 1171 632 1175 635 1171 z m 1271 696 l 1313 696 b 1325 711 1324 696 1325 701 l 1325 731 b 1071 978 1325 899 1243 978 l 339 978 b 83 731 167 978 83 899 l 83 242 b 339 -6 83 74 167 -6 l 1071 -6 b 1325 213 1243 -6 1325 71 l 1325 229 b 1313 246 1325 240 1324 246 l 1269 246 b 1256 229 1258 246 1256 240 l 1256 224 b 1060 61 1256 115 1197 61 l 344 61 b 154 251 208 61 154 117 l 154 721 b 344 911 154 856 208 911 l 1058 911 b 1256 721 1196 911 1256 853 l 1256 711 b 1271 696 1256 701 1258 696 z "},"D":{"ha":1404,"x_min":0,"x_max":0,"o":"m 1065 972 l 110 972 b 90 953 96 972 90 967 l 90 19 b 110 0 90 6 96 0 l 1065 0 b 1321 247 1238 0 1321 79 l 1321 725 b 1065 972 1321 893 1238 972 z m 1250 257 b 1058 67 1250 122 1196 67 l 161 67 l 161 906 l 1058 906 b 1250 715 1196 906 1250 850 z "},"Ð":{"ha":1439,"x_min":0,"x_max":0,"o":"m 1100 972 l 144 972 b 125 953 131 972 125 967 l 125 515 l 22 515 b 7 500 13 515 7 513 l 7 468 b 22 453 7 457 13 453 l 125 453 l 125 19 b 144 0 125 6 131 0 l 1100 0 b 1356 247 1272 0 1356 79 l 1356 725 b 1100 972 1356 893 1272 972 z m 1286 257 b 1094 67 1286 122 1231 67 l 196 67 l 196 453 l 344 453 b 360 468 354 453 360 457 l 360 500 b 344 515 360 513 354 515 l 196 515 l 196 906 l 1094 906 b 1286 715 1231 906 1286 850 z "},"Ď":{"ha":1404,"x_min":0,"x_max":0,"o":"m 650 1061 b 685 1043 663 1047 669 1043 l 718 1043 b 757 1061 733 1043 744 1046 l 903 1228 b 896 1250 913 1239 910 1250 l 863 1250 b 828 1231 850 1250 843 1249 l 711 1099 l 697 1099 l 579 1231 b 544 1250 564 1249 557 1250 l 513 1250 b 504 1228 499 1250 494 1239 z m 1065 972 l 110 972 b 90 953 96 972 90 967 l 90 19 b 110 0 90 6 96 0 l 1065 0 b 1321 247 1238 0 1321 79 l 1321 725 b 1065 972 1321 893 1238 972 z m 1250 257 b 1058 67 1250 122 1196 67 l 161 67 l 161 906 l 1058 906 b 1250 715 1196 906 1250 850 z "},"Đ":{"ha":1439,"x_min":0,"x_max":0,"o":"m 1100 972 l 144 972 b 125 953 131 972 125 967 l 125 515 l 22 515 b 7 500 13 515 7 513 l 7 468 b 22 453 7 457 13 453 l 125 453 l 125 19 b 144 0 125 6 131 0 l 1100 0 b 1356 247 1272 0 1356 79 l 1356 725 b 1100 972 1356 893 1272 972 z m 1286 257 b 1094 67 1286 122 1231 67 l 196 67 l 196 453 l 344 453 b 360 468 354 453 360 457 l 360 500 b 344 515 360 513 354 515 l 196 515 l 196 906 l 1094 906 b 1286 715 1231 906 1286 850 z "},"E":{"ha":1283,"x_min":0,"x_max":0,"o":"m 1186 67 l 161 67 l 161 453 l 1165 453 b 1186 474 1179 453 1186 460 l 1186 499 b 1165 519 1186 513 1179 519 l 161 519 l 161 906 l 1179 906 b 1200 926 1193 906 1200 913 l 1200 951 b 1179 972 1200 965 1193 972 l 110 972 b 90 953 96 972 90 967 l 90 19 b 110 0 90 6 96 0 l 1186 0 b 1207 21 1200 0 1207 7 l 1207 46 b 1186 67 1207 60 1200 67 z "},"É":{"ha":1283,"x_min":0,"x_max":0,"o":"m 635 1040 l 664 1040 b 697 1065 678 1040 685 1050 l 824 1225 b 817 1250 836 1240 832 1250 l 760 1250 b 728 1225 746 1250 738 1242 l 625 1065 b 635 1040 615 1050 621 1040 z m 1186 67 l 161 67 l 161 453 l 1165 453 b 1186 474 1179 453 1186 460 l 1186 499 b 1165 519 1186 513 1179 519 l 161 519 l 161 906 l 1179 906 b 1200 926 1193 906 1200 913 l 1200 951 b 1179 972 1200 965 1193 972 l 110 972 b 90 953 96 972 90 967 l 90 19 b 110 0 90 6 96 0 l 1186 0 b 1207 21 1200 0 1207 7 l 1207 46 b 1186 67 1207 60 1200 67 z "},"Ě":{"ha":1283,"x_min":0,"x_max":0,"o":"m 603 1061 b 638 1043 615 1047 622 1043 l 671 1043 b 710 1061 686 1043 697 1046 l 856 1228 b 849 1250 865 1239 863 1250 l 815 1250 b 781 1231 803 1250 796 1249 l 664 1099 l 650 1099 l 532 1231 b 497 1250 517 1249 510 1250 l 465 1250 b 457 1228 451 1250 447 1239 z m 1186 67 l 161 67 l 161 453 l 1165 453 b 1186 474 1179 453 1186 460 l 1186 499 b 1165 519 1186 513 1179 519 l 161 519 l 161 906 l 1179 906 b 1200 926 1193 906 1200 913 l 1200 951 b 1179 972 1200 965 1193 972 l 110 972 b 90 953 96 972 90 967 l 90 19 b 110 0 90 6 96 0 l 1186 0 b 1207 21 1200 0 1207 7 l 1207 46 b 1186 67 1207 60 1200 67 z "},"Ȩ":{"ha":1283,"x_min":0,"x_max":0,"o":"m 1186 67 l 161 67 l 161 453 l 1165 453 b 1186 474 1179 453 1186 460 l 1186 499 b 1165 519 1186 513 1179 519 l 161 519 l 161 906 l 1179 906 b 1200 926 1193 906 1200 913 l 1200 951 b 1179 972 1200 965 1193 972 l 110 972 b 90 953 96 972 90 967 l 90 19 b 110 0 90 6 96 0 l 619 0 b 567 -82 579 -39 567 -60 b 621 -129 567 -112 592 -126 b 761 -176 719 -140 761 -142 b 689 -224 761 -217 742 -224 l 660 -224 b 586 -167 603 -224 585 -208 b 572 -156 586 -160 579 -156 l 539 -156 b 526 -169 529 -156 526 -161 b 646 -276 526 -239 556 -276 l 701 -276 b 822 -178 790 -276 822 -246 b 675 -82 822 -90 753 -92 b 689 0 633 -78 617 -72 l 1186 0 b 1207 21 1200 0 1207 7 l 1207 46 b 1186 67 1207 60 1200 67 z "},"Ê":{"ha":1283,"x_min":0,"x_max":0,"o":"m 465 1043 l 497 1043 b 532 1064 510 1043 517 1046 l 650 1196 l 664 1196 l 781 1064 b 815 1043 796 1046 803 1043 l 849 1043 b 856 1065 863 1043 865 1054 l 710 1232 b 671 1250 697 1247 686 1250 l 638 1250 b 603 1232 622 1250 615 1246 l 457 1065 b 465 1043 447 1054 451 1043 z m 1186 67 l 161 67 l 161 453 l 1165 453 b 1186 474 1179 453 1186 460 l 1186 499 b 1165 519 1186 513 1179 519 l 161 519 l 161 906 l 1179 906 b 1200 926 1193 906 1200 913 l 1200 951 b 1179 972 1200 965 1193 972 l 110 972 b 90 953 96 972 90 967 l 90 19 b 110 0 90 6 96 0 l 1186 0 b 1207 21 1200 0 1207 7 l 1207 46 b 1186 67 1207 60 1200 67 z "},"Ë":{"ha":1283,"x_min":0,"x_max":0,"o":"m 456 1171 l 499 1171 b 517 1189 513 1171 517 1175 l 517 1232 b 499 1250 517 1246 513 1250 l 456 1250 b 438 1232 442 1250 438 1246 l 438 1189 b 456 1171 438 1175 442 1171 z m 779 1171 l 822 1171 b 840 1189 836 1171 840 1175 l 840 1232 b 822 1250 840 1246 836 1250 l 779 1250 b 761 1232 765 1250 761 1246 l 761 1189 b 779 1171 761 1175 765 1171 z m 1186 67 l 161 67 l 161 453 l 1165 453 b 1186 474 1179 453 1186 460 l 1186 499 b 1165 519 1186 513 1179 519 l 161 519 l 161 906 l 1179 906 b 1200 926 1193 906 1200 913 l 1200 951 b 1179 972 1200 965 1193 972 l 110 972 b 90 953 96 972 90 967 l 90 19 b 110 0 90 6 96 0 l 1186 0 b 1207 21 1200 0 1207 7 l 1207 46 b 1186 67 1207 60 1200 67 z "},"Ė":{"ha":1283,"x_min":0,"x_max":0,"o":"m 633 1171 l 676 1171 b 694 1189 690 1171 694 1175 l 694 1232 b 676 1250 694 1246 690 1250 l 633 1250 b 615 1232 619 1250 615 1246 l 615 1189 b 633 1171 615 1175 619 1171 z m 1186 67 l 161 67 l 161 453 l 1165 453 b 1186 474 1179 453 1186 460 l 1186 499 b 1165 519 1186 513 1179 519 l 161 519 l 161 906 l 1179 906 b 1200 926 1193 906 1200 913 l 1200 951 b 1179 972 1200 965 1193 972 l 110 972 b 90 953 96 972 90 967 l 90 19 b 110 0 90 6 96 0 l 1186 0 b 1207 21 1200 0 1207 7 l 1207 46 b 1186 67 1207 60 1200 67 z "},"È":{"ha":1283,"x_min":0,"x_max":0,"o":"m 611 1063 b 643 1040 624 1047 629 1040 l 672 1040 b 683 1065 686 1040 693 1050 l 583 1225 b 554 1250 574 1242 568 1250 l 500 1250 b 486 1225 485 1250 474 1240 z m 1186 67 l 161 67 l 161 453 l 1165 453 b 1186 474 1179 453 1186 460 l 1186 499 b 1165 519 1186 513 1179 519 l 161 519 l 161 906 l 1179 906 b 1200 926 1193 906 1200 913 l 1200 951 b 1179 972 1200 965 1193 972 l 110 972 b 90 953 96 972 90 967 l 90 19 b 110 0 90 6 96 0 l 1186 0 b 1207 21 1200 0 1207 7 l 1207 46 b 1186 67 1207 60 1200 67 z "},"Ē":{"ha":1283,"x_min":0,"x_max":0,"o":"m 431 1183 l 881 1183 b 901 1204 893 1183 901 1190 l 901 1229 b 881 1250 901 1243 893 1250 l 431 1250 b 410 1229 417 1250 410 1243 l 410 1204 b 431 1183 410 1190 417 1183 z m 1186 67 l 161 67 l 161 453 l 1165 453 b 1186 474 1179 453 1186 460 l 1186 499 b 1165 519 1186 513 1179 519 l 161 519 l 161 906 l 1179 906 b 1200 926 1193 906 1200 913 l 1200 951 b 1179 972 1200 965 1193 972 l 110 972 b 90 953 96 972 90 967 l 90 19 b 110 0 90 6 96 0 l 1186 0 b 1207 21 1200 0 1207 7 l 1207 46 b 1186 67 1207 60 1200 67 z "},"Ę":{"ha":1283,"x_min":0,"x_max":0,"o":"m 1207 47 b 1186 67 1207 60 1200 67 l 161 67 l 161 453 l 1165 453 b 1186 474 1179 453 1186 460 l 1186 499 b 1165 519 1186 513 1179 519 l 161 519 l 161 906 l 1179 906 b 1200 926 1193 906 1200 913 l 1200 951 b 1179 972 1200 965 1193 972 l 110 972 b 90 953 96 972 90 967 l 90 19 b 110 0 90 6 96 0 l 1138 0 l 1138 -11 b 1094 -54 1138 -37 1133 -50 l 1033 -61 b 918 -157 947 -71 918 -76 b 1039 -260 918 -233 943 -260 l 1178 -260 b 1192 -246 1188 -260 1192 -254 l 1192 -221 b 1178 -208 1192 -211 1186 -208 l 1049 -208 b 982 -156 994 -208 982 -196 b 1019 -112 982 -118 993 -115 l 1146 -97 b 1207 -15 1193 -92 1207 -74 z "},"F":{"ha":1276,"x_min":0,"x_max":0,"o":"m 1179 972 l 110 972 b 90 953 96 972 90 967 l 90 19 b 110 0 90 6 96 0 l 142 0 b 161 19 156 0 161 6 l 161 450 l 1165 450 b 1186 471 1179 450 1186 457 l 1186 496 b 1165 517 1186 510 1179 517 l 161 517 l 161 906 l 1179 906 b 1200 926 1193 906 1200 913 l 1200 951 b 1179 972 1200 965 1193 972 z "},"G":{"ha":1401,"x_min":0,"x_max":0,"o":"m 339 -6 l 1069 -6 b 1325 242 1242 -6 1325 74 l 1325 443 b 1306 463 1325 454 1317 463 l 804 463 b 786 444 792 463 786 457 l 786 415 b 804 397 786 404 792 397 l 1256 397 l 1256 251 b 1064 61 1256 117 1200 61 l 344 61 b 154 251 208 61 154 117 l 154 721 b 344 911 154 856 208 911 l 1056 911 b 1253 721 1193 911 1253 853 l 1253 711 b 1268 696 1253 701 1256 696 l 1310 696 b 1322 711 1321 696 1322 701 l 1322 731 b 1068 978 1322 899 1240 978 l 339 978 b 83 731 167 978 83 899 l 83 242 b 339 -6 83 74 167 -6 z "},"Ğ":{"ha":1401,"x_min":0,"x_max":0,"o":"m 675 1068 l 725 1068 b 883 1236 832 1068 883 1125 b 867 1250 883 1246 881 1250 l 842 1250 b 824 1236 828 1250 824 1246 b 724 1124 824 1171 789 1124 l 676 1124 b 576 1236 613 1124 578 1171 b 558 1250 576 1246 572 1250 l 535 1250 b 517 1236 521 1250 517 1246 b 675 1068 517 1125 572 1068 z m 339 -6 l 1069 -6 b 1325 242 1242 -6 1325 74 l 1325 443 b 1306 463 1325 454 1317 463 l 804 463 b 786 444 792 463 786 457 l 786 415 b 804 397 786 404 792 397 l 1256 397 l 1256 251 b 1064 61 1256 117 1200 61 l 344 61 b 154 251 208 61 154 117 l 154 721 b 344 911 154 856 208 911 l 1056 911 b 1253 721 1193 911 1253 853 l 1253 711 b 1268 696 1253 701 1256 696 l 1310 696 b 1322 711 1321 696 1322 701 l 1322 731 b 1068 978 1322 899 1240 978 l 339 978 b 83 731 167 978 83 899 l 83 242 b 339 -6 83 74 167 -6 z "},"Ǧ":{"ha":1401,"x_min":0,"x_max":0,"o":"m 682 1043 l 715 1043 b 754 1061 731 1043 742 1046 l 900 1228 b 893 1250 910 1239 907 1250 l 860 1250 b 825 1231 847 1250 840 1249 l 708 1099 l 694 1099 l 576 1231 b 542 1250 561 1249 554 1250 l 510 1250 b 501 1228 496 1250 492 1239 l 647 1061 b 682 1043 660 1047 667 1043 z m 339 -6 l 1069 -6 b 1325 242 1242 -6 1325 74 l 1325 443 b 1306 463 1325 454 1317 463 l 804 463 b 786 444 792 463 786 457 l 786 415 b 804 397 786 404 792 397 l 1256 397 l 1256 251 b 1064 61 1256 117 1200 61 l 344 61 b 154 251 208 61 154 117 l 154 721 b 344 911 154 856 208 911 l 1056 911 b 1253 721 1193 911 1253 853 l 1253 711 b 1268 696 1253 701 1256 696 l 1310 696 b 1322 711 1321 696 1322 701 l 1322 731 b 1068 978 1322 899 1240 978 l 339 978 b 83 731 167 978 83 899 l 83 242 b 339 -6 83 74 167 -6 z "},"Ģ":{"ha":1401,"x_min":0,"x_max":0,"o":"m 339 -6 l 1069 -6 b 1325 242 1242 -6 1325 74 l 1325 443 b 1306 463 1325 454 1317 463 l 804 463 b 786 444 792 463 786 457 l 786 415 b 804 397 786 404 792 397 l 1256 397 l 1256 251 b 1064 61 1256 117 1200 61 l 344 61 b 154 251 208 61 154 117 l 154 721 b 344 911 154 856 208 911 l 1056 911 b 1253 721 1193 911 1253 853 l 1253 711 b 1268 696 1253 701 1256 696 l 1310 696 b 1322 711 1321 696 1322 701 l 1322 731 b 1068 978 1322 899 1240 978 l 339 978 b 83 731 167 978 83 899 l 83 242 b 339 -6 83 74 167 -6 z m 713 -83 l 683 -83 b 667 -101 669 -83 667 -87 l 667 -292 l 629 -292 b 611 -308 615 -292 611 -294 l 611 -333 b 629 -350 611 -347 615 -350 l 699 -350 b 729 -319 721 -350 729 -342 l 729 -101 b 713 -83 729 -87 726 -83 z "},"Ġ":{"ha":1401,"x_min":0,"x_max":0,"o":"m 679 1171 l 722 1171 b 740 1189 736 1171 740 1175 l 740 1232 b 722 1250 740 1246 736 1250 l 679 1250 b 661 1232 665 1250 661 1246 l 661 1189 b 679 1171 661 1175 665 1171 z m 339 -6 l 1069 -6 b 1325 242 1242 -6 1325 74 l 1325 443 b 1306 463 1325 454 1317 463 l 804 463 b 786 444 792 463 786 457 l 786 415 b 804 397 786 404 792 397 l 1256 397 l 1256 251 b 1064 61 1256 117 1200 61 l 344 61 b 154 251 208 61 154 117 l 154 721 b 344 911 154 856 208 911 l 1056 911 b 1253 721 1193 911 1253 853 l 1253 711 b 1268 696 1253 701 1256 696 l 1310 696 b 1322 711 1321 696 1322 701 l 1322 731 b 1068 978 1322 899 1240 978 l 339 978 b 83 731 167 978 83 899 l 83 242 b 339 -6 83 74 167 -6 z "},"H":{"ha":1328,"x_min":0,"x_max":0,"o":"m 1218 972 l 1186 972 b 1167 953 1172 972 1167 967 l 1167 519 l 161 519 l 161 953 b 142 972 161 967 156 972 l 110 972 b 90 953 96 972 90 967 l 90 19 b 110 0 90 6 96 0 l 142 0 b 161 19 156 0 161 6 l 161 453 l 1167 453 l 1167 19 b 1186 0 1167 6 1172 0 l 1218 0 b 1238 19 1232 0 1238 6 l 1238 953 b 1218 972 1238 967 1232 972 z "},"Ħ":{"ha":1328,"x_min":0,"x_max":0,"o":"m 1218 972 l 1186 972 b 1167 953 1172 972 1167 967 l 1167 735 l 161 735 l 161 953 b 142 972 161 967 156 972 l 110 972 b 90 953 96 972 90 967 l 90 19 b 110 0 90 6 96 0 l 142 0 b 161 19 156 0 161 6 l 161 453 l 1167 453 l 1167 19 b 1186 0 1167 6 1172 0 l 1218 0 b 1238 19 1232 0 1238 6 l 1238 953 b 1218 972 1238 967 1232 972 z m 161 519 l 161 668 l 1167 668 l 1167 519 z "},"I":{"ha":251,"x_min":0,"x_max":0,"o":"m 90 953 l 90 19 b 110 0 90 6 96 0 l 142 0 b 161 19 156 0 161 6 l 161 953 b 142 972 161 967 156 972 l 110 972 b 90 953 96 972 90 967 z "},"Ĳ":{"ha":1589,"x_min":0,"x_max":0,"o":"m 90 953 l 90 19 b 110 0 90 6 96 0 l 142 0 b 161 19 156 0 161 6 l 161 953 b 142 972 161 967 156 972 l 110 972 b 90 953 96 972 90 967 z m 347 0 l 1243 0 b 1500 247 1415 0 1500 79 l 1500 953 b 1481 972 1500 967 1494 972 l 1449 972 b 1429 953 1435 972 1429 967 l 1429 257 b 1238 67 1429 122 1374 67 l 347 67 b 328 47 333 67 328 61 l 328 19 b 347 0 328 6 333 0 z "},"Í":{"ha":251,"x_min":0,"x_max":0,"o":"m 197 1225 l 94 1065 b 104 1040 85 1050 90 1040 l 133 1040 b 167 1065 147 1040 154 1050 l 293 1225 b 286 1250 306 1240 301 1250 l 229 1250 b 197 1225 215 1250 207 1242 z m 90 953 l 90 19 b 110 0 90 6 96 0 l 142 0 b 161 19 156 0 161 6 l 161 953 b 142 972 161 967 156 972 l 110 972 b 90 953 96 972 90 967 z "},"Ǐ":{"ha":251,"x_min":0,"x_max":0,"o":"m 107 1043 l 140 1043 b 179 1061 156 1043 167 1046 l 325 1228 b 318 1250 335 1239 332 1250 l 285 1250 b 250 1231 272 1250 265 1249 l 133 1099 l 119 1099 l 1 1231 b -33 1250 -14 1249 -21 1250 l -65 1250 b -74 1228 -79 1250 -83 1239 l 72 1061 b 107 1043 85 1047 92 1043 z m 90 953 l 90 19 b 110 0 90 6 96 0 l 142 0 b 161 19 156 0 161 6 l 161 953 b 142 972 161 967 156 972 l 110 972 b 90 953 96 972 90 967 z "},"Î":{"ha":251,"x_min":0,"x_max":0,"o":"m 107 1250 b 72 1232 92 1250 85 1246 l -74 1065 b -65 1043 -83 1054 -79 1043 l -33 1043 b 1 1064 -21 1043 -14 1046 l 119 1196 l 133 1196 l 250 1064 b 285 1043 265 1046 272 1043 l 318 1043 b 325 1065 332 1043 335 1054 l 179 1232 b 140 1250 167 1247 156 1250 z m 90 953 l 90 19 b 110 0 90 6 96 0 l 142 0 b 161 19 156 0 161 6 l 161 953 b 142 972 161 967 156 972 l 110 972 b 90 953 96 972 90 967 z "},"Ï":{"ha":251,"x_min":0,"x_max":0,"o":"m -75 1171 l -32 1171 b -14 1189 -18 1171 -14 1175 l -14 1232 b -32 1250 -14 1246 -18 1250 l -75 1250 b -93 1232 -89 1250 -93 1246 l -93 1189 b -75 1171 -93 1175 -89 1171 z m 249 1171 l 292 1171 b 310 1189 306 1171 310 1175 l 310 1232 b 292 1250 310 1246 306 1250 l 249 1250 b 231 1232 235 1250 231 1246 l 231 1189 b 249 1171 231 1175 235 1171 z m 90 953 l 90 19 b 110 0 90 6 96 0 l 142 0 b 161 19 156 0 161 6 l 161 953 b 142 972 161 967 156 972 l 110 972 b 90 953 96 972 90 967 z "},"İ":{"ha":251,"x_min":0,"x_max":0,"o":"m 104 1171 l 147 1171 b 165 1189 161 1171 165 1175 l 165 1232 b 147 1250 165 1246 161 1250 l 104 1250 b 86 1232 90 1250 86 1246 l 86 1189 b 104 1171 86 1175 90 1171 z m 90 953 l 90 19 b 110 0 90 6 96 0 l 142 0 b 161 19 156 0 161 6 l 161 953 b 142 972 161 967 156 972 l 110 972 b 90 953 96 972 90 967 z "},"Ì":{"ha":251,"x_min":0,"x_max":0,"o":"m 53 1225 b 24 1250 43 1242 38 1250 l -31 1250 b -44 1225 -46 1250 -57 1240 l 81 1063 b 113 1040 93 1047 99 1040 l 142 1040 b 153 1065 156 1040 163 1050 z m 90 953 l 90 19 b 110 0 90 6 96 0 l 142 0 b 161 19 156 0 161 6 l 161 953 b 142 972 161 967 156 972 l 110 972 b 90 953 96 972 90 967 z "},"Ī":{"ha":251,"x_min":0,"x_max":0,"o":"m -100 1183 l 350 1183 b 371 1204 363 1183 371 1190 l 371 1229 b 350 1250 371 1243 363 1250 l -100 1250 b -121 1229 -114 1250 -121 1243 l -121 1204 b -100 1183 -121 1190 -114 1183 z m 90 953 l 90 19 b 110 0 90 6 96 0 l 142 0 b 161 19 156 0 161 6 l 161 953 b 142 972 161 967 156 972 l 110 972 b 90 953 96 972 90 967 z "},"Į":{"ha":253,"x_min":0,"x_max":0,"o":"m 143 972 l 111 972 b 92 953 97 972 92 967 l 92 -31 b 49 -74 92 -57 89 -69 l -12 -81 b -128 -176 -99 -90 -128 -96 b -7 -279 -128 -253 -103 -279 l 132 -279 b 146 -265 142 -279 146 -274 l 146 -240 b 132 -228 146 -231 140 -228 l 3 -228 b -64 -175 -51 -228 -64 -215 b -26 -132 -64 -137 -53 -135 l 101 -117 b 163 -35 149 -111 163 -93 l 163 953 b 143 972 163 967 157 972 z "},"J":{"ha":1339,"x_min":0,"x_max":0,"o":"m 96 0 l 992 0 b 1249 247 1164 0 1249 79 l 1249 953 b 1229 972 1249 967 1243 972 l 1197 972 b 1178 953 1183 972 1178 967 l 1178 257 b 986 67 1178 122 1122 67 l 96 67 b 76 47 82 67 76 61 l 76 19 b 96 0 76 6 82 0 z "},"K":{"ha":1310,"x_min":0,"x_max":0,"o":"m 1253 25 l 544 542 l 1226 947 b 1219 972 1242 957 1235 972 l 1165 972 b 1129 960 1149 972 1139 965 l 161 388 l 161 953 b 142 972 161 967 156 972 l 110 972 b 90 953 96 972 90 967 l 90 19 b 110 0 90 6 96 0 l 142 0 b 161 19 156 0 161 6 l 161 314 l 485 507 l 1149 19 b 1193 0 1164 8 1178 0 l 1244 0 b 1253 25 1263 0 1267 15 z "},"Ķ":{"ha":1310,"x_min":0,"x_max":0,"o":"m 1253 25 l 544 542 l 1226 947 b 1219 972 1242 957 1235 972 l 1165 972 b 1129 960 1149 972 1139 965 l 161 388 l 161 953 b 142 972 161 967 156 972 l 110 972 b 90 953 96 972 90 967 l 90 19 b 110 0 90 6 96 0 l 142 0 b 161 19 156 0 161 6 l 161 314 l 485 507 l 1149 19 b 1193 0 1164 8 1178 0 l 1244 0 b 1253 25 1263 0 1267 15 z m 668 -83 l 639 -83 b 622 -101 625 -83 622 -87 l 622 -292 l 585 -292 b 567 -308 571 -292 567 -294 l 567 -333 b 585 -350 567 -347 571 -350 l 654 -350 b 685 -319 676 -350 685 -342 l 685 -101 b 668 -83 685 -87 682 -83 z "},"L":{"ha":1260,"x_min":0,"x_max":0,"o":"m 1171 67 l 161 67 l 161 953 b 142 972 161 967 156 972 l 110 972 b 90 953 96 972 90 967 l 90 19 b 110 0 90 6 96 0 l 1171 0 b 1190 19 1185 0 1190 6 l 1190 47 b 1171 67 1190 61 1185 67 z "},"Ĺ":{"ha":1260,"x_min":0,"x_max":0,"o":"m 106 1040 l 135 1040 b 168 1065 149 1040 156 1050 l 294 1225 b 288 1250 307 1240 303 1250 l 231 1250 b 199 1225 217 1250 208 1242 l 96 1065 b 106 1040 86 1050 92 1040 z m 1171 67 l 161 67 l 161 953 b 142 972 161 967 156 972 l 110 972 b 90 953 96 972 90 967 l 90 19 b 110 0 90 6 96 0 l 1171 0 b 1190 19 1185 0 1190 6 l 1190 47 b 1171 67 1190 61 1185 67 z "},"Ľ":{"ha":1260,"x_min":0,"x_max":0,"o":"m 1171 67 l 161 67 l 161 953 b 142 972 161 967 156 972 l 110 972 b 90 953 96 972 90 967 l 90 19 b 110 0 90 6 96 0 l 1171 0 b 1190 19 1185 0 1190 6 l 1190 47 b 1171 67 1190 61 1185 67 z m 269 706 l 339 706 b 369 736 361 706 369 714 l 369 954 b 353 972 369 968 367 972 l 325 972 b 307 954 311 972 307 968 l 307 765 l 269 765 b 251 747 256 765 251 761 l 251 722 b 269 706 251 708 256 706 z "},"Ļ":{"ha":1260,"x_min":0,"x_max":0,"o":"m 1171 67 l 161 67 l 161 953 b 142 972 161 967 156 972 l 110 972 b 90 953 96 972 90 967 l 90 19 b 110 0 90 6 96 0 l 1171 0 b 1190 19 1185 0 1190 6 l 1190 47 b 1171 67 1190 61 1185 67 z m 642 -83 l 613 -83 b 596 -101 599 -83 596 -87 l 596 -292 l 558 -292 b 540 -308 544 -292 540 -294 l 540 -333 b 558 -350 540 -347 544 -350 l 628 -350 b 658 -319 650 -350 658 -342 l 658 -101 b 642 -83 658 -87 656 -83 z "},"Ŀ":{"ha":1260,"x_min":0,"x_max":0,"o":"m 1171 67 l 161 67 l 161 953 b 142 972 161 967 156 972 l 110 972 b 90 953 96 972 90 967 l 90 19 b 110 0 90 6 96 0 l 1171 0 b 1190 19 1185 0 1190 6 l 1190 47 b 1171 67 1190 61 1185 67 z m 476 397 l 521 397 b 538 415 535 397 538 401 l 538 458 b 521 476 538 472 535 476 l 476 476 b 460 458 463 476 460 472 l 460 415 b 476 397 460 401 463 397 z "},"Ł":{"ha":1246,"x_min":0,"x_max":0,"o":"m 1157 67 l 146 67 l 146 363 l 365 631 b 353 653 375 644 369 653 l 314 653 b 282 631 303 653 296 649 l 146 465 l 146 953 b 126 972 146 967 140 972 l 94 972 b 76 953 81 972 76 967 l 76 381 l -50 228 b -36 206 -60 214 -53 206 l 3 206 b 35 228 14 206 21 210 l 76 279 l 76 19 b 94 0 76 6 81 0 l 1157 0 b 1176 19 1171 0 1176 6 l 1176 47 b 1157 67 1176 61 1171 67 z "},"M":{"ha":1538,"x_min":0,"x_max":0,"o":"m 110 0 l 142 0 b 161 19 156 0 161 6 l 161 899 l 171 899 l 719 19 b 744 0 728 6 732 0 l 793 0 b 818 19 806 0 810 6 l 1365 899 l 1376 899 l 1376 19 b 1396 0 1376 6 1382 0 l 1428 0 b 1447 19 1442 0 1447 6 l 1447 953 b 1428 972 1447 967 1442 972 l 1350 972 b 1322 951 1336 972 1331 965 l 775 71 l 763 71 l 215 951 b 188 972 207 965 201 972 l 110 972 b 90 953 96 972 90 967 l 90 19 b 110 0 90 6 96 0 z "},"Ḿ":{"ha":1538,"x_min":0,"x_max":0,"o":"m 839 1225 l 736 1065 b 746 1040 726 1050 732 1040 l 775 1040 b 808 1065 789 1040 796 1050 l 935 1225 b 928 1250 947 1240 943 1250 l 871 1250 b 839 1225 857 1250 849 1242 z m 110 0 l 142 0 b 161 19 156 0 161 6 l 161 899 l 171 899 l 719 19 b 744 0 728 6 732 0 l 793 0 b 818 19 806 0 810 6 l 1365 899 l 1376 899 l 1376 19 b 1396 0 1376 6 1382 0 l 1428 0 b 1447 19 1442 0 1447 6 l 1447 953 b 1428 972 1447 967 1442 972 l 1350 972 b 1322 951 1336 972 1331 965 l 775 71 l 763 71 l 215 951 b 188 972 207 965 201 972 l 110 972 b 90 953 96 972 90 967 l 90 19 b 110 0 90 6 96 0 z "},"N":{"ha":1342,"x_min":0,"x_max":0,"o":"m 110 0 l 142 0 b 161 19 156 0 161 6 l 161 903 l 168 903 l 1133 14 b 1158 0 1142 6 1147 0 l 1232 0 b 1251 19 1246 0 1251 6 l 1251 953 b 1232 972 1251 967 1246 972 l 1200 972 b 1181 953 1186 972 1181 967 l 1181 69 l 1174 69 l 207 958 b 183 972 199 967 193 972 l 110 972 b 90 953 96 972 90 967 l 90 19 b 110 0 90 6 96 0 z "},"Ń":{"ha":1342,"x_min":0,"x_max":0,"o":"m 742 1225 l 639 1065 b 649 1040 629 1050 635 1040 l 678 1040 b 711 1065 692 1040 699 1050 l 838 1225 b 831 1250 850 1240 846 1250 l 774 1250 b 742 1225 760 1250 751 1242 z m 110 0 l 142 0 b 161 19 156 0 161 6 l 161 903 l 168 903 l 1133 14 b 1158 0 1142 6 1147 0 l 1232 0 b 1251 19 1246 0 1251 6 l 1251 953 b 1232 972 1251 967 1246 972 l 1200 972 b 1181 953 1186 972 1181 967 l 1181 69 l 1174 69 l 207 958 b 183 972 199 967 193 972 l 110 972 b 90 953 96 972 90 967 l 90 19 b 110 0 90 6 96 0 z "},"Ň":{"ha":1342,"x_min":0,"x_max":0,"o":"m 651 1043 l 685 1043 b 724 1061 700 1043 711 1046 l 869 1228 b 863 1250 879 1239 876 1250 l 829 1250 b 794 1231 817 1250 810 1249 l 678 1099 l 664 1099 l 546 1231 b 511 1250 531 1249 524 1250 l 479 1250 b 471 1228 465 1250 461 1239 l 617 1061 b 651 1043 629 1047 636 1043 z m 110 0 l 142 0 b 161 19 156 0 161 6 l 161 903 l 168 903 l 1133 14 b 1158 0 1142 6 1147 0 l 1232 0 b 1251 19 1246 0 1251 6 l 1251 953 b 1232 972 1251 967 1246 972 l 1200 972 b 1181 953 1186 972 1181 967 l 1181 69 l 1174 69 l 207 958 b 183 972 199 967 193 972 l 110 972 b 90 953 96 972 90 967 l 90 19 b 110 0 90 6 96 0 z "},"Ņ":{"ha":1342,"x_min":0,"x_max":0,"o":"m 110 0 l 142 0 b 161 19 156 0 161 6 l 161 903 l 168 903 l 1133 14 b 1158 0 1142 6 1147 0 l 1232 0 b 1251 19 1246 0 1251 6 l 1251 953 b 1232 972 1251 967 1246 972 l 1200 972 b 1181 953 1186 972 1181 967 l 1181 69 l 1174 69 l 207 958 b 183 972 199 967 193 972 l 110 972 b 90 953 96 972 90 967 l 90 19 b 110 0 90 6 96 0 z m 682 -83 l 653 -83 b 636 -101 639 -83 636 -87 l 636 -292 l 599 -292 b 581 -308 585 -292 581 -294 l 581 -333 b 599 -350 581 -347 585 -350 l 668 -350 b 699 -319 690 -350 699 -342 l 699 -101 b 682 -83 699 -87 696 -83 z "},"Ŋ":{"ha":1342,"x_min":0,"x_max":0,"o":"m 1232 972 l 1200 972 b 1181 953 1186 972 1181 967 l 1181 69 l 1174 69 l 207 958 b 183 972 199 967 193 972 l 110 972 b 90 953 96 972 90 967 l 90 19 b 110 0 90 6 96 0 l 142 0 b 161 19 156 0 161 6 l 161 903 l 168 903 l 1133 14 b 1158 0 1142 6 1147 0 l 1181 0 l 1181 -21 b 989 -211 1181 -156 1125 -211 l 110 -211 b 90 -231 96 -211 90 -217 l 90 -258 b 110 -278 90 -272 96 -278 l 994 -278 b 1251 -31 1167 -278 1251 -199 l 1251 953 b 1232 972 1251 967 1246 972 z "},"Ñ":{"ha":1342,"x_min":0,"x_max":0,"o":"m 772 1126 b 883 1161 811 1126 847 1140 b 893 1183 894 1168 896 1175 l 879 1210 b 858 1215 875 1219 869 1222 b 778 1189 826 1194 804 1189 b 567 1257 694 1189 657 1257 b 457 1222 529 1257 493 1244 b 447 1201 446 1215 443 1208 l 461 1175 b 481 1169 465 1164 471 1163 b 561 1196 513 1189 536 1196 b 772 1126 644 1196 683 1126 z m 110 0 l 142 0 b 161 19 156 0 161 6 l 161 903 l 168 903 l 1133 14 b 1158 0 1142 6 1147 0 l 1232 0 b 1251 19 1246 0 1251 6 l 1251 953 b 1232 972 1251 967 1246 972 l 1200 972 b 1181 953 1186 972 1181 967 l 1181 69 l 1174 69 l 207 958 b 183 972 199 967 193 972 l 110 972 b 90 953 96 972 90 967 l 90 19 b 110 0 90 6 96 0 z "},"O":{"ha":1408,"x_min":0,"x_max":0,"o":"m 339 -6 l 1069 -6 b 1325 242 1242 -6 1325 74 l 1325 731 b 1069 978 1325 899 1242 978 l 339 978 b 83 731 167 978 83 899 l 83 242 b 339 -6 83 74 167 -6 z m 344 61 b 154 251 208 61 154 117 l 154 721 b 344 911 154 856 208 911 l 1064 911 b 1256 721 1201 911 1256 856 l 1256 251 b 1064 61 1256 117 1201 61 z "},"Ó":{"ha":1408,"x_min":0,"x_max":0,"o":"m 776 1225 l 674 1065 b 683 1040 664 1050 669 1040 l 713 1040 b 746 1065 726 1040 733 1050 l 872 1225 b 865 1250 885 1240 881 1250 l 808 1250 b 776 1225 794 1250 786 1242 z m 339 -6 l 1069 -6 b 1325 242 1242 -6 1325 74 l 1325 731 b 1069 978 1325 899 1242 978 l 339 978 b 83 731 167 978 83 899 l 83 242 b 339 -6 83 74 167 -6 z m 344 61 b 154 251 208 61 154 117 l 154 721 b 344 911 154 856 208 911 l 1064 911 b 1256 721 1201 911 1256 856 l 1256 251 b 1064 61 1256 117 1201 61 z "},"Ǒ":{"ha":1408,"x_min":0,"x_max":0,"o":"m 686 1043 l 719 1043 b 758 1061 735 1043 746 1046 l 904 1228 b 897 1250 914 1239 911 1250 l 864 1250 b 829 1231 851 1250 844 1249 l 713 1099 l 699 1099 l 581 1231 b 546 1250 565 1249 558 1250 l 514 1250 b 506 1228 500 1250 496 1239 l 651 1061 b 686 1043 664 1047 671 1043 z m 339 -6 l 1069 -6 b 1325 242 1242 -6 1325 74 l 1325 731 b 1069 978 1325 899 1242 978 l 339 978 b 83 731 167 978 83 899 l 83 242 b 339 -6 83 74 167 -6 z m 344 61 b 154 251 208 61 154 117 l 154 721 b 344 911 154 856 208 911 l 1064 911 b 1256 721 1201 911 1256 856 l 1256 251 b 1064 61 1256 117 1201 61 z "},"Ô":{"ha":1408,"x_min":0,"x_max":0,"o":"m 686 1250 b 651 1232 671 1250 664 1246 l 506 1065 b 514 1043 496 1054 500 1043 l 546 1043 b 581 1064 558 1043 565 1046 l 699 1196 l 713 1196 l 829 1064 b 864 1043 844 1046 851 1043 l 897 1043 b 904 1065 911 1043 914 1054 l 758 1232 b 719 1250 746 1247 735 1250 z m 339 -6 l 1069 -6 b 1325 242 1242 -6 1325 74 l 1325 731 b 1069 978 1325 899 1242 978 l 339 978 b 83 731 167 978 83 899 l 83 242 b 339 -6 83 74 167 -6 z m 344 61 b 154 251 208 61 154 117 l 154 721 b 344 911 154 856 208 911 l 1064 911 b 1256 721 1201 911 1256 856 l 1256 251 b 1064 61 1256 117 1201 61 z "},"Ö":{"ha":1408,"x_min":0,"x_max":0,"o":"m 506 1171 l 549 1171 b 567 1189 563 1171 567 1175 l 567 1232 b 549 1250 567 1246 563 1250 l 506 1250 b 488 1232 492 1250 488 1246 l 488 1189 b 506 1171 488 1175 492 1171 z m 829 1171 l 872 1171 b 890 1189 886 1171 890 1175 l 890 1232 b 872 1250 890 1246 886 1250 l 829 1250 b 811 1232 815 1250 811 1246 l 811 1189 b 829 1171 811 1175 815 1171 z m 339 -6 l 1069 -6 b 1325 242 1242 -6 1325 74 l 1325 731 b 1069 978 1325 899 1242 978 l 339 978 b 83 731 167 978 83 899 l 83 242 b 339 -6 83 74 167 -6 z m 344 61 b 154 251 208 61 154 117 l 154 721 b 344 911 154 856 208 911 l 1064 911 b 1256 721 1201 911 1256 856 l 1256 251 b 1064 61 1256 117 1201 61 z "},"Ò":{"ha":1408,"x_min":0,"x_max":0,"o":"m 633 1225 b 604 1250 624 1242 618 1250 l 550 1250 b 536 1225 535 1250 524 1240 l 661 1063 b 693 1040 674 1047 679 1040 l 722 1040 b 733 1065 736 1040 743 1050 z m 339 -6 l 1069 -6 b 1325 242 1242 -6 1325 74 l 1325 731 b 1069 978 1325 899 1242 978 l 339 978 b 83 731 167 978 83 899 l 83 242 b 339 -6 83 74 167 -6 z m 344 61 b 154 251 208 61 154 117 l 154 721 b 344 911 154 856 208 911 l 1064 911 b 1256 721 1201 911 1256 856 l 1256 251 b 1064 61 1256 117 1201 61 z "},"Ő":{"ha":1408,"x_min":0,"x_max":0,"o":"m 699 1225 l 596 1065 b 606 1040 586 1050 592 1040 l 635 1040 b 668 1065 649 1040 656 1050 l 794 1225 b 788 1250 807 1240 803 1250 l 731 1250 b 699 1225 717 1250 708 1242 z m 865 1225 l 763 1065 b 772 1040 753 1050 758 1040 l 801 1040 b 835 1065 815 1040 822 1050 l 961 1225 b 954 1250 974 1240 971 1250 l 897 1250 b 865 1225 883 1250 875 1242 z m 339 -6 l 1069 -6 b 1325 242 1242 -6 1325 74 l 1325 731 b 1069 978 1325 899 1242 978 l 339 978 b 83 731 167 978 83 899 l 83 242 b 339 -6 83 74 167 -6 z m 344 61 b 154 251 208 61 154 117 l 154 721 b 344 911 154 856 208 911 l 1064 911 b 1256 721 1201 911 1256 856 l 1256 251 b 1064 61 1256 117 1201 61 z "},"Ō":{"ha":1408,"x_min":0,"x_max":0,"o":"m 481 1183 l 931 1183 b 951 1204 943 1183 951 1190 l 951 1229 b 931 1250 951 1243 943 1250 l 481 1250 b 460 1229 467 1250 460 1243 l 460 1204 b 481 1183 460 1190 467 1183 z m 339 -6 l 1069 -6 b 1325 242 1242 -6 1325 74 l 1325 731 b 1069 978 1325 899 1242 978 l 339 978 b 83 731 167 978 83 899 l 83 242 b 339 -6 83 74 167 -6 z m 344 61 b 154 251 208 61 154 117 l 154 721 b 344 911 154 856 208 911 l 1064 911 b 1256 721 1201 911 1256 856 l 1256 251 b 1064 61 1256 117 1201 61 z "},"Ø":{"ha":1408,"x_min":0,"x_max":0,"o":"m 1069 978 l 954 978 l 963 999 b 950 1019 968 1013 964 1019 l 914 1019 b 890 999 900 1019 896 1013 l 882 978 l 339 978 b 83 731 167 978 83 899 l 83 242 b 339 -6 83 74 167 -6 l 458 -6 l 449 -28 b 460 -49 443 -42 446 -49 l 496 -49 b 521 -28 510 -49 515 -42 l 531 -6 l 1069 -6 b 1325 242 1242 -6 1325 74 l 1325 731 b 1069 978 1325 899 1242 978 z m 344 61 b 154 251 208 61 154 117 l 154 721 b 344 911 154 856 208 911 l 853 911 l 488 61 z m 1256 251 b 1064 61 1256 117 1201 61 l 560 61 l 925 911 l 1064 911 b 1256 721 1201 911 1256 856 z "},"Õ":{"ha":1408,"x_min":0,"x_max":0,"o":"m 808 1126 b 919 1161 847 1126 883 1140 b 929 1183 931 1168 932 1175 l 915 1210 b 894 1215 911 1219 906 1222 b 814 1189 863 1194 840 1189 b 603 1257 731 1189 693 1257 b 493 1222 565 1257 529 1244 b 483 1201 482 1215 479 1208 l 497 1175 b 517 1169 501 1164 507 1163 b 597 1196 549 1189 572 1196 b 808 1126 681 1196 719 1126 z m 339 -6 l 1069 -6 b 1325 242 1242 -6 1325 74 l 1325 731 b 1069 978 1325 899 1242 978 l 339 978 b 83 731 167 978 83 899 l 83 242 b 339 -6 83 74 167 -6 z m 344 61 b 154 251 208 61 154 117 l 154 721 b 344 911 154 856 208 911 l 1064 911 b 1256 721 1201 911 1256 856 l 1256 251 b 1064 61 1256 117 1201 61 z "},"Œ":{"ha":2447,"x_min":0,"x_max":0,"o":"m 2350 67 l 1325 67 l 1325 453 l 2329 453 b 2350 474 2343 453 2350 460 l 2350 499 b 2329 519 2350 513 2343 519 l 1325 519 l 1325 906 l 2343 906 b 2364 926 2357 906 2364 913 l 2364 951 b 2343 972 2364 965 2357 972 l 1274 972 b 1256 953 1260 972 1256 967 l 1256 924 b 1069 978 1214 960 1151 978 l 339 978 b 83 731 167 978 83 899 l 83 242 b 339 -6 83 74 167 -6 l 1069 -6 b 1256 49 1151 -6 1214 13 l 1256 19 b 1274 0 1256 6 1260 0 l 2350 0 b 2371 21 2364 0 2371 7 l 2371 46 b 2350 67 2371 60 2364 67 z m 1064 61 l 344 61 b 154 251 208 61 154 117 l 154 721 b 344 911 154 856 208 911 l 1064 911 b 1256 721 1201 911 1256 856 l 1256 251 b 1064 61 1256 117 1201 61 z "},"P":{"ha":1308,"x_min":0,"x_max":0,"o":"m 968 972 l 110 972 b 90 953 96 972 90 967 l 90 19 b 110 0 90 6 96 0 l 142 0 b 161 19 156 0 161 6 l 161 247 l 968 247 b 1225 493 1143 247 1225 326 l 1225 725 b 968 972 1225 893 1143 972 z m 1154 504 b 961 314 1154 369 1097 314 l 161 314 l 161 906 l 961 906 b 1154 715 1097 906 1154 850 z "},"Þ":{"ha":1294,"x_min":0,"x_max":0,"o":"m 954 781 l 161 781 l 161 953 b 142 972 161 967 156 972 l 110 972 b 90 953 96 972 90 967 l 90 19 b 110 0 90 6 96 0 l 142 0 b 161 19 156 0 161 6 l 161 192 l 954 192 b 1211 439 1129 192 1211 271 l 1211 533 b 954 781 1211 701 1129 781 z m 1140 450 b 947 260 1140 315 1083 260 l 161 260 l 161 713 l 947 713 b 1140 522 1083 713 1140 657 z "},"Q":{"ha":1408,"x_min":0,"x_max":0,"o":"m 1069 978 l 339 978 b 83 731 167 978 83 899 l 83 242 b 339 -6 83 74 167 -6 l 669 -6 l 669 -125 b 689 -144 669 -139 675 -144 l 721 -144 b 740 -125 735 -144 740 -139 l 740 -6 l 1069 -6 b 1325 242 1242 -6 1325 74 l 1325 731 b 1069 978 1325 899 1242 978 z m 1256 251 b 1064 61 1256 117 1201 61 l 344 61 b 154 251 208 61 154 117 l 154 721 b 344 911 154 856 208 911 l 1064 911 b 1256 721 1201 911 1256 856 z "},"R":{"ha":1314,"x_min":0,"x_max":0,"o":"m 1226 24 l 1047 293 b 1225 533 1167 315 1225 393 l 1225 725 b 968 972 1225 893 1140 972 l 110 972 b 90 953 96 972 90 967 l 90 19 b 110 0 90 6 96 0 l 142 0 b 161 19 156 0 161 6 l 161 286 l 968 286 l 974 286 l 1154 14 b 1176 0 1160 4 1165 0 l 1213 0 b 1226 24 1226 0 1236 10 z m 161 906 l 963 906 b 1154 715 1100 906 1154 850 l 1154 543 b 963 353 1154 410 1100 353 l 161 353 z "},"Ŕ":{"ha":1314,"x_min":0,"x_max":0,"o":"m 625 1040 l 654 1040 b 688 1065 668 1040 675 1050 l 814 1225 b 807 1250 826 1240 822 1250 l 750 1250 b 718 1225 736 1250 728 1242 l 615 1065 b 625 1040 606 1050 611 1040 z m 1226 24 l 1047 293 b 1225 533 1167 315 1225 393 l 1225 725 b 968 972 1225 893 1140 972 l 110 972 b 90 953 96 972 90 967 l 90 19 b 110 0 90 6 96 0 l 142 0 b 161 19 156 0 161 6 l 161 286 l 968 286 l 974 286 l 1154 14 b 1176 0 1160 4 1165 0 l 1213 0 b 1226 24 1226 0 1236 10 z m 161 906 l 963 906 b 1154 715 1100 906 1154 850 l 1154 543 b 963 353 1154 410 1100 353 l 161 353 z "},"Ř":{"ha":1314,"x_min":0,"x_max":0,"o":"m 593 1061 b 628 1043 606 1047 613 1043 l 661 1043 b 700 1061 676 1043 688 1046 l 846 1228 b 839 1250 856 1239 853 1250 l 806 1250 b 771 1231 793 1250 786 1249 l 654 1099 l 640 1099 l 522 1231 b 488 1250 507 1249 500 1250 l 456 1250 b 447 1228 442 1250 438 1239 z m 1226 24 l 1047 293 b 1225 533 1167 315 1225 393 l 1225 725 b 968 972 1225 893 1140 972 l 110 972 b 90 953 96 972 90 967 l 90 19 b 110 0 90 6 96 0 l 142 0 b 161 19 156 0 161 6 l 161 286 l 968 286 l 974 286 l 1154 14 b 1176 0 1160 4 1165 0 l 1213 0 b 1226 24 1226 0 1236 10 z m 161 906 l 963 906 b 1154 715 1100 906 1154 850 l 1154 543 b 963 353 1154 410 1100 353 l 161 353 z "},"Ŗ":{"ha":1314,"x_min":0,"x_max":0,"o":"m 1226 24 l 1047 293 b 1225 533 1167 315 1225 393 l 1225 725 b 968 972 1225 893 1140 972 l 110 972 b 90 953 96 972 90 967 l 90 19 b 110 0 90 6 96 0 l 142 0 b 161 19 156 0 161 6 l 161 286 l 968 286 l 974 286 l 1154 14 b 1176 0 1160 4 1165 0 l 1213 0 b 1226 24 1226 0 1236 10 z m 161 906 l 963 906 b 1154 715 1100 906 1154 850 l 1154 543 b 963 353 1154 410 1100 353 l 161 353 z m 660 -83 l 631 -83 b 614 -101 617 -83 614 -87 l 614 -292 l 576 -292 b 558 -308 563 -292 558 -294 l 558 -333 b 576 -350 558 -347 563 -350 l 646 -350 b 676 -319 668 -350 676 -342 l 676 -101 b 660 -83 676 -87 674 -83 z "},"S":{"ha":1357,"x_min":0,"x_max":0,"o":"m 1007 496 l 357 540 b 154 728 240 549 154 588 b 356 911 154 858 219 911 l 993 911 b 1185 761 1133 911 1175 861 b 1203 743 1186 749 1192 743 l 1238 743 b 1256 761 1250 743 1256 750 b 1008 978 1256 897 1182 978 l 343 978 b 83 728 176 978 83 897 b 350 476 83 551 193 488 l 1000 432 b 1203 244 1117 424 1203 385 b 1001 61 1203 114 1138 61 l 347 61 b 154 211 206 61 164 110 b 136 229 153 224 149 229 l 101 229 b 83 211 90 229 83 222 b 331 -6 83 75 158 -6 l 1014 -6 b 1274 246 1181 -6 1274 75 b 1007 496 1274 421 1165 485 z "},"Ś":{"ha":1357,"x_min":0,"x_max":0,"o":"m 710 1225 l 607 1065 b 617 1040 597 1050 603 1040 l 646 1040 b 679 1065 660 1040 667 1050 l 806 1225 b 799 1250 818 1240 814 1250 l 742 1250 b 710 1225 728 1250 719 1242 z m 1007 496 l 357 540 b 154 728 240 549 154 588 b 356 911 154 858 219 911 l 993 911 b 1185 761 1133 911 1175 861 b 1203 743 1186 749 1192 743 l 1238 743 b 1256 761 1250 743 1256 750 b 1008 978 1256 897 1182 978 l 343 978 b 83 728 176 978 83 897 b 350 476 83 551 193 488 l 1000 432 b 1203 244 1117 424 1203 385 b 1001 61 1203 114 1138 61 l 347 61 b 154 211 206 61 164 110 b 136 229 153 224 149 229 l 101 229 b 83 211 90 229 83 222 b 331 -6 83 75 158 -6 l 1014 -6 b 1274 246 1181 -6 1274 75 b 1007 496 1274 421 1165 485 z "},"Š":{"ha":1357,"x_min":0,"x_max":0,"o":"m 619 1043 l 653 1043 b 692 1061 668 1043 679 1046 l 838 1228 b 831 1250 847 1239 844 1250 l 797 1250 b 763 1231 785 1250 778 1249 l 646 1099 l 632 1099 l 514 1231 b 479 1250 499 1249 492 1250 l 447 1250 b 439 1228 433 1250 429 1239 l 585 1061 b 619 1043 597 1047 604 1043 z m 1007 496 l 357 540 b 154 728 240 549 154 588 b 356 911 154 858 219 911 l 993 911 b 1185 761 1133 911 1175 861 b 1203 743 1186 749 1192 743 l 1238 743 b 1256 761 1250 743 1256 750 b 1008 978 1256 897 1182 978 l 343 978 b 83 728 176 978 83 897 b 350 476 83 551 193 488 l 1000 432 b 1203 244 1117 424 1203 385 b 1001 61 1203 114 1138 61 l 347 61 b 154 211 206 61 164 110 b 136 229 153 224 149 229 l 101 229 b 83 211 90 229 83 222 b 331 -6 83 75 158 -6 l 1014 -6 b 1274 246 1181 -6 1274 75 b 1007 496 1274 421 1165 485 z "},"Ş":{"ha":1357,"x_min":0,"x_max":0,"o":"m 1007 496 l 357 540 b 154 728 240 549 154 588 b 356 911 154 858 219 911 l 993 911 b 1185 761 1133 911 1175 861 b 1203 743 1186 749 1192 743 l 1238 743 b 1256 761 1250 743 1256 750 b 1008 978 1256 897 1182 978 l 343 978 b 83 728 176 978 83 897 b 350 476 83 551 193 488 l 1000 432 b 1203 244 1117 424 1203 385 b 1001 61 1203 114 1138 61 l 347 61 b 154 211 206 61 164 110 b 136 229 153 224 149 229 l 101 229 b 83 211 90 229 83 222 b 331 -6 83 75 158 -6 l 596 -6 b 549 -82 560 -40 549 -61 b 603 -129 549 -112 574 -126 b 743 -176 701 -140 743 -142 b 671 -224 743 -217 724 -224 l 642 -224 b 568 -167 585 -224 567 -208 b 554 -156 568 -160 561 -156 l 521 -156 b 508 -169 511 -156 508 -161 b 628 -276 508 -239 538 -276 l 683 -276 b 804 -178 772 -276 804 -246 b 657 -82 804 -90 735 -92 b 665 -6 617 -78 600 -72 l 1014 -6 b 1274 246 1181 -6 1274 75 b 1007 496 1274 421 1165 485 z "},"Ș":{"ha":1357,"x_min":0,"x_max":0,"o":"m 1007 496 l 357 540 b 154 728 240 549 154 588 b 356 911 154 858 219 911 l 993 911 b 1185 761 1133 911 1175 861 b 1203 743 1186 749 1192 743 l 1238 743 b 1256 761 1250 743 1256 750 b 1008 978 1256 897 1182 978 l 343 978 b 83 728 176 978 83 897 b 350 476 83 551 193 488 l 1000 432 b 1203 244 1117 424 1203 385 b 1001 61 1203 114 1138 61 l 347 61 b 154 211 206 61 164 110 b 136 229 153 224 149 229 l 101 229 b 83 211 90 229 83 222 b 331 -6 83 75 158 -6 l 1014 -6 b 1274 246 1181 -6 1274 75 b 1007 496 1274 421 1165 485 z m 651 -83 l 622 -83 b 606 -101 608 -83 606 -87 l 606 -292 l 568 -292 b 550 -308 554 -292 550 -294 l 550 -333 b 568 -350 550 -347 554 -350 l 638 -350 b 668 -319 660 -350 668 -342 l 668 -101 b 651 -83 668 -87 665 -83 z "},"T":{"ha":1332,"x_min":0,"x_max":0,"o":"m 1250 972 l 82 972 b 63 953 68 972 63 967 l 63 925 b 82 906 63 911 68 906 l 631 906 l 631 19 b 650 0 631 6 636 0 l 682 0 b 701 19 696 0 701 6 l 701 906 l 1250 906 b 1269 925 1264 906 1269 911 l 1269 953 b 1250 972 1269 967 1264 972 z "},"Ŧ":{"ha":1186,"x_min":0,"x_max":0,"o":"m 1250 972 l 82 972 b 63 953 68 972 63 967 l 63 925 b 82 906 63 911 68 906 l 631 906 l 631 610 l 440 610 b 419 589 426 610 419 603 l 419 564 b 440 543 419 550 426 543 l 631 543 l 631 19 b 650 0 631 6 636 0 l 682 0 b 701 19 696 0 701 6 l 701 543 l 890 543 b 911 564 903 543 911 550 l 911 589 b 890 610 911 603 903 610 l 701 610 l 701 906 l 1250 906 b 1269 925 1264 906 1269 911 l 1269 953 b 1250 972 1269 967 1264 972 z "},"Ť":{"ha":1332,"x_min":0,"x_max":0,"o":"m 614 1061 b 649 1043 626 1047 633 1043 l 682 1043 b 721 1061 697 1043 708 1046 l 867 1228 b 860 1250 876 1239 874 1250 l 826 1250 b 792 1231 814 1250 807 1249 l 675 1099 l 661 1099 l 543 1231 b 508 1250 528 1249 521 1250 l 476 1250 b 468 1228 463 1250 458 1239 z m 1250 972 l 82 972 b 63 953 68 972 63 967 l 63 925 b 82 906 63 911 68 906 l 631 906 l 631 19 b 650 0 631 6 636 0 l 682 0 b 701 19 696 0 701 6 l 701 906 l 1250 906 b 1269 925 1264 906 1269 911 l 1269 953 b 1250 972 1269 967 1264 972 z "},"Ţ":{"ha":1332,"x_min":0,"x_max":0,"o":"m 1250 972 l 82 972 b 63 953 68 972 63 967 l 63 925 b 82 906 63 911 68 906 l 631 906 l 631 19 b 650 0 631 6 636 0 l 631 0 b 578 -82 590 -39 578 -60 b 632 -129 578 -112 603 -126 b 772 -176 731 -140 772 -142 b 700 -224 772 -217 753 -224 l 671 -224 b 597 -167 614 -224 596 -208 b 583 -156 597 -160 590 -156 l 550 -156 b 538 -169 540 -156 538 -161 b 657 -276 538 -239 567 -276 l 713 -276 b 833 -178 801 -276 833 -246 b 686 -82 833 -90 764 -92 b 700 0 644 -78 628 -72 l 682 0 b 701 19 696 0 701 6 l 701 906 l 1250 906 b 1269 925 1264 906 1269 911 l 1269 953 b 1250 972 1269 967 1264 972 z "},"Ț":{"ha":1332,"x_min":0,"x_max":0,"o":"m 1250 972 l 82 972 b 63 953 68 972 63 967 l 63 925 b 82 906 63 911 68 906 l 631 906 l 631 19 b 650 0 631 6 636 0 l 682 0 b 701 19 696 0 701 6 l 701 906 l 1250 906 b 1269 925 1264 906 1269 911 l 1269 953 b 1250 972 1269 967 1264 972 z m 679 -83 l 650 -83 b 633 -101 636 -83 633 -87 l 633 -292 l 596 -292 b 578 -308 582 -292 578 -294 l 578 -333 b 596 -350 578 -347 582 -350 l 665 -350 b 696 -319 688 -350 696 -342 l 696 -101 b 679 -83 696 -87 693 -83 z "},"U":{"ha":1422,"x_min":0,"x_max":0,"o":"m 347 0 l 1076 0 b 1332 247 1249 0 1332 79 l 1332 953 b 1313 972 1332 967 1326 972 l 1281 972 b 1263 953 1267 972 1263 967 l 1263 257 b 1071 67 1263 122 1207 67 l 353 67 b 161 257 217 67 161 122 l 161 953 b 142 972 161 967 156 972 l 110 972 b 90 953 96 972 90 967 l 90 247 b 347 0 90 79 175 0 z "},"Ú":{"ha":1422,"x_min":0,"x_max":0,"o":"m 783 1225 l 681 1065 b 690 1040 671 1050 676 1040 l 719 1040 b 753 1065 733 1040 740 1050 l 879 1225 b 872 1250 892 1240 888 1250 l 815 1250 b 783 1225 801 1250 793 1242 z m 347 0 l 1076 0 b 1332 247 1249 0 1332 79 l 1332 953 b 1313 972 1332 967 1326 972 l 1281 972 b 1263 953 1267 972 1263 967 l 1263 257 b 1071 67 1263 122 1207 67 l 353 67 b 161 257 217 67 161 122 l 161 953 b 142 972 161 967 156 972 l 110 972 b 90 953 96 972 90 967 l 90 247 b 347 0 90 79 175 0 z "},"Ŭ":{"ha":1422,"x_min":0,"x_max":0,"o":"m 686 1068 l 736 1068 b 894 1236 843 1068 894 1125 b 878 1250 894 1246 892 1250 l 853 1250 b 835 1236 839 1250 835 1246 b 735 1124 835 1171 800 1124 l 688 1124 b 588 1236 624 1124 589 1171 b 569 1250 588 1246 583 1250 l 546 1250 b 528 1236 532 1250 528 1246 b 686 1068 528 1125 583 1068 z m 347 0 l 1076 0 b 1332 247 1249 0 1332 79 l 1332 953 b 1313 972 1332 967 1326 972 l 1281 972 b 1263 953 1267 972 1263 967 l 1263 257 b 1071 67 1263 122 1207 67 l 353 67 b 161 257 217 67 161 122 l 161 953 b 142 972 161 967 156 972 l 110 972 b 90 953 96 972 90 967 l 90 247 b 347 0 90 79 175 0 z "},"Û":{"ha":1422,"x_min":0,"x_max":0,"o":"m 693 1250 b 658 1232 678 1250 671 1246 l 513 1065 b 521 1043 503 1054 507 1043 l 553 1043 b 588 1064 565 1043 572 1046 l 706 1196 l 719 1196 l 836 1064 b 871 1043 851 1046 858 1043 l 904 1043 b 911 1065 918 1043 921 1054 l 765 1232 b 726 1250 753 1247 742 1250 z m 347 0 l 1076 0 b 1332 247 1249 0 1332 79 l 1332 953 b 1313 972 1332 967 1326 972 l 1281 972 b 1263 953 1267 972 1263 967 l 1263 257 b 1071 67 1263 122 1207 67 l 353 67 b 161 257 217 67 161 122 l 161 953 b 142 972 161 967 156 972 l 110 972 b 90 953 96 972 90 967 l 90 247 b 347 0 90 79 175 0 z "},"Ü":{"ha":1422,"x_min":0,"x_max":0,"o":"m 513 1171 l 556 1171 b 574 1189 569 1171 574 1175 l 574 1232 b 556 1250 574 1246 569 1250 l 513 1250 b 494 1232 499 1250 494 1246 l 494 1189 b 513 1171 494 1175 499 1171 z m 836 1171 l 879 1171 b 897 1189 893 1171 897 1175 l 897 1232 b 879 1250 897 1246 893 1250 l 836 1250 b 818 1232 822 1250 818 1246 l 818 1189 b 836 1171 818 1175 822 1171 z m 347 0 l 1076 0 b 1332 247 1249 0 1332 79 l 1332 953 b 1313 972 1332 967 1326 972 l 1281 972 b 1263 953 1267 972 1263 967 l 1263 257 b 1071 67 1263 122 1207 67 l 353 67 b 161 257 217 67 161 122 l 161 953 b 142 972 161 967 156 972 l 110 972 b 90 953 96 972 90 967 l 90 247 b 347 0 90 79 175 0 z "},"Ù":{"ha":1422,"x_min":0,"x_max":0,"o":"m 640 1225 b 611 1250 631 1242 625 1250 l 557 1250 b 543 1225 542 1250 531 1240 l 668 1063 b 700 1040 681 1047 686 1040 l 729 1040 b 740 1065 743 1040 750 1050 z m 347 0 l 1076 0 b 1332 247 1249 0 1332 79 l 1332 953 b 1313 972 1332 967 1326 972 l 1281 972 b 1263 953 1267 972 1263 967 l 1263 257 b 1071 67 1263 122 1207 67 l 353 67 b 161 257 217 67 161 122 l 161 953 b 142 972 161 967 156 972 l 110 972 b 90 953 96 972 90 967 l 90 247 b 347 0 90 79 175 0 z "},"Ű":{"ha":1422,"x_min":0,"x_max":0,"o":"m 706 1225 l 603 1065 b 613 1040 593 1050 599 1040 l 642 1040 b 675 1065 656 1040 663 1050 l 801 1225 b 794 1250 814 1240 810 1250 l 738 1250 b 706 1225 724 1250 715 1242 z m 872 1225 l 769 1065 b 779 1040 760 1050 765 1040 l 808 1040 b 842 1065 822 1040 829 1050 l 968 1225 b 961 1250 981 1240 978 1250 l 904 1250 b 872 1225 890 1250 882 1242 z m 347 0 l 1076 0 b 1332 247 1249 0 1332 79 l 1332 953 b 1313 972 1332 967 1326 972 l 1281 972 b 1263 953 1267 972 1263 967 l 1263 257 b 1071 67 1263 122 1207 67 l 353 67 b 161 257 217 67 161 122 l 161 953 b 142 972 161 967 156 972 l 110 972 b 90 953 96 972 90 967 l 90 247 b 347 0 90 79 175 0 z "},"Ū":{"ha":1422,"x_min":0,"x_max":0,"o":"m 488 1183 l 938 1183 b 958 1204 950 1183 958 1190 l 958 1229 b 938 1250 958 1243 950 1250 l 488 1250 b 467 1229 474 1250 467 1243 l 467 1204 b 488 1183 467 1190 474 1183 z m 347 0 l 1076 0 b 1332 247 1249 0 1332 79 l 1332 953 b 1313 972 1332 967 1326 972 l 1281 972 b 1263 953 1267 972 1263 967 l 1263 257 b 1071 67 1263 122 1207 67 l 353 67 b 161 257 217 67 161 122 l 161 953 b 142 972 161 967 156 972 l 110 972 b 90 953 96 972 90 967 l 90 247 b 347 0 90 79 175 0 z "},"Ų":{"ha":1422,"x_min":0,"x_max":0,"o":"m 1313 972 l 1281 972 b 1263 953 1267 972 1263 967 l 1263 257 b 1071 67 1263 122 1207 67 l 353 67 b 161 257 217 67 161 122 l 161 953 b 142 972 161 967 156 972 l 110 972 b 90 953 96 972 90 967 l 90 247 b 347 0 90 79 175 0 l 788 0 l 788 -11 b 743 -54 788 -37 783 -50 l 683 -61 b 567 -157 597 -71 567 -76 b 688 -260 567 -233 593 -260 l 828 -260 b 842 -246 838 -260 842 -254 l 842 -221 b 828 -208 842 -211 836 -208 l 699 -208 b 632 -156 643 -208 632 -196 b 668 -112 632 -118 642 -115 l 794 -97 b 856 -15 843 -92 856 -74 l 856 0 l 1076 0 b 1332 247 1249 0 1332 79 l 1332 953 b 1313 972 1332 967 1326 972 z "},"Ů":{"ha":1422,"x_min":0,"x_max":0,"o":"m 721 1272 l 703 1272 b 586 1156 635 1272 586 1221 l 586 1140 b 703 1025 586 1075 635 1025 l 721 1025 b 838 1140 789 1025 838 1075 l 838 1156 b 721 1272 838 1221 789 1272 z m 782 1154 l 782 1143 b 718 1079 782 1103 760 1079 l 706 1079 b 642 1143 664 1079 642 1103 l 642 1154 b 706 1218 642 1194 664 1218 l 718 1218 b 782 1154 760 1218 782 1194 z m 347 0 l 1076 0 b 1332 247 1249 0 1332 79 l 1332 953 b 1313 972 1332 967 1326 972 l 1281 972 b 1263 953 1267 972 1263 967 l 1263 257 b 1071 67 1263 122 1207 67 l 353 67 b 161 257 217 67 161 122 l 161 953 b 142 972 161 967 156 972 l 110 972 b 90 953 96 972 90 967 l 90 247 b 347 0 90 79 175 0 z "},"Ũ":{"ha":1422,"x_min":0,"x_max":0,"o":"m 815 1126 b 926 1161 854 1126 890 1140 b 936 1183 938 1168 939 1175 l 922 1210 b 901 1215 918 1219 913 1222 b 821 1189 869 1194 847 1189 b 610 1257 738 1189 700 1257 b 500 1222 572 1257 536 1244 b 490 1201 489 1215 486 1208 l 504 1175 b 524 1169 508 1164 514 1163 b 604 1196 556 1189 579 1196 b 815 1126 688 1196 726 1126 z m 347 0 l 1076 0 b 1332 247 1249 0 1332 79 l 1332 953 b 1313 972 1332 967 1326 972 l 1281 972 b 1263 953 1267 972 1263 967 l 1263 257 b 1071 67 1263 122 1207 67 l 353 67 b 161 257 217 67 161 122 l 161 953 b 142 972 161 967 156 972 l 110 972 b 90 953 96 972 90 967 l 90 247 b 347 0 90 79 175 0 z "},"V":{"ha":1449,"x_min":0,"x_max":0,"o":"m 697 0 l 753 0 b 778 22 765 0 769 8 l 1389 950 b 1375 972 1399 965 1389 972 l 1336 972 b 1308 950 1322 972 1318 965 l 732 72 l 718 72 l 142 950 b 114 972 132 965 128 972 l 74 972 b 60 950 60 972 50 965 l 671 22 b 697 0 679 8 685 0 z "},"W":{"ha":2540,"x_min":0,"x_max":0,"o":"m 638 0 l 699 0 b 725 22 711 0 717 8 l 1269 910 l 1815 22 b 1842 0 1824 8 1829 0 l 1901 0 b 1928 22 1914 0 1919 8 l 2481 950 b 2465 972 2490 965 2479 972 l 2426 972 b 2399 950 2413 972 2408 965 l 1878 74 l 1864 74 l 1328 950 b 1300 972 1318 965 1314 972 l 1239 972 b 1213 950 1225 972 1222 965 l 675 74 l 663 74 l 142 950 b 114 972 132 965 128 972 l 74 972 b 60 950 60 972 50 965 l 613 22 b 638 0 621 8 626 0 z "},"Ẃ":{"ha":2540,"x_min":0,"x_max":0,"o":"m 1342 1225 l 1239 1065 b 1249 1040 1229 1050 1235 1040 l 1278 1040 b 1311 1065 1292 1040 1299 1050 l 1438 1225 b 1431 1250 1450 1240 1446 1250 l 1374 1250 b 1342 1225 1360 1250 1351 1242 z m 638 0 l 699 0 b 725 22 711 0 717 8 l 1269 910 l 1815 22 b 1842 0 1824 8 1829 0 l 1901 0 b 1928 22 1914 0 1919 8 l 2481 950 b 2465 972 2490 965 2479 972 l 2426 972 b 2399 950 2413 972 2408 965 l 1878 74 l 1864 74 l 1328 950 b 1300 972 1318 965 1314 972 l 1239 972 b 1213 950 1225 972 1222 965 l 675 74 l 663 74 l 142 950 b 114 972 132 965 128 972 l 74 972 b 60 950 60 972 50 965 l 613 22 b 638 0 621 8 626 0 z "},"Ŵ":{"ha":2540,"x_min":0,"x_max":0,"o":"m 1251 1250 b 1217 1232 1236 1250 1229 1246 l 1071 1065 b 1079 1043 1061 1054 1065 1043 l 1111 1043 b 1146 1064 1124 1043 1131 1046 l 1264 1196 l 1278 1196 l 1394 1064 b 1429 1043 1410 1046 1417 1043 l 1463 1043 b 1469 1065 1476 1043 1479 1054 l 1324 1232 b 1285 1250 1311 1247 1300 1250 z m 638 0 l 699 0 b 725 22 711 0 717 8 l 1269 910 l 1815 22 b 1842 0 1824 8 1829 0 l 1901 0 b 1928 22 1914 0 1919 8 l 2481 950 b 2465 972 2490 965 2479 972 l 2426 972 b 2399 950 2413 972 2408 965 l 1878 74 l 1864 74 l 1328 950 b 1300 972 1318 965 1314 972 l 1239 972 b 1213 950 1225 972 1222 965 l 675 74 l 663 74 l 142 950 b 114 972 132 965 128 972 l 74 972 b 60 950 60 972 50 965 l 613 22 b 638 0 621 8 626 0 z "},"Ẅ":{"ha":2540,"x_min":0,"x_max":0,"o":"m 1069 1171 l 1113 1171 b 1131 1189 1126 1171 1131 1175 l 1131 1232 b 1113 1250 1131 1246 1126 1250 l 1069 1250 b 1051 1232 1056 1250 1051 1246 l 1051 1189 b 1069 1171 1051 1175 1056 1171 z m 1393 1171 l 1436 1171 b 1454 1189 1450 1171 1454 1175 l 1454 1232 b 1436 1250 1454 1246 1450 1250 l 1393 1250 b 1375 1232 1379 1250 1375 1246 l 1375 1189 b 1393 1171 1375 1175 1379 1171 z m 638 0 l 699 0 b 725 22 711 0 717 8 l 1269 910 l 1815 22 b 1842 0 1824 8 1829 0 l 1901 0 b 1928 22 1914 0 1919 8 l 2481 950 b 2465 972 2490 965 2479 972 l 2426 972 b 2399 950 2413 972 2408 965 l 1878 74 l 1864 74 l 1328 950 b 1300 972 1318 965 1314 972 l 1239 972 b 1213 950 1225 972 1222 965 l 675 74 l 663 74 l 142 950 b 114 972 132 965 128 972 l 74 972 b 60 950 60 972 50 965 l 613 22 b 638 0 621 8 626 0 z "},"Ẁ":{"ha":2540,"x_min":0,"x_max":0,"o":"m 1197 1225 b 1168 1250 1188 1242 1182 1250 l 1114 1250 b 1100 1225 1099 1250 1088 1240 l 1225 1063 b 1257 1040 1238 1047 1243 1040 l 1286 1040 b 1297 1065 1300 1040 1307 1050 z m 638 0 l 699 0 b 725 22 711 0 717 8 l 1269 910 l 1815 22 b 1842 0 1824 8 1829 0 l 1901 0 b 1928 22 1914 0 1919 8 l 2481 950 b 2465 972 2490 965 2479 972 l 2426 972 b 2399 950 2413 972 2408 965 l 1878 74 l 1864 74 l 1328 950 b 1300 972 1318 965 1314 972 l 1239 972 b 1213 950 1225 972 1222 965 l 675 74 l 663 74 l 142 950 b 114 972 132 965 128 972 l 74 972 b 60 950 60 972 50 965 l 613 22 b 638 0 621 8 626 0 z "},"X":{"ha":1342,"x_min":0,"x_max":0,"o":"m 1279 17 l 722 486 l 1279 956 b 1279 972 1289 964 1288 972 l 1208 972 b 1169 951 1193 972 1185 965 l 671 531 l 171 951 b 132 972 156 965 149 972 l 63 972 b 61 956 54 972 53 964 l 618 486 l 61 17 b 63 0 53 8 54 0 l 132 0 b 171 21 149 0 156 7 l 671 442 l 1169 21 b 1208 0 1185 7 1193 0 l 1278 0 b 1279 17 1288 0 1289 8 z "},"Y":{"ha":1308,"x_min":0,"x_max":0,"o":"m 1243 972 l 1183 972 b 1149 951 1169 972 1161 964 l 660 461 l 649 461 l 158 951 b 125 972 146 964 139 972 l 64 972 b 63 956 54 972 53 964 l 618 396 l 618 19 b 638 0 618 6 624 0 l 669 0 b 689 19 683 0 689 6 l 689 396 l 1246 956 b 1243 972 1254 964 1254 972 z "},"Ý":{"ha":1308,"x_min":0,"x_max":0,"o":"m 725 1225 l 622 1065 b 632 1040 613 1050 618 1040 l 661 1040 b 694 1065 675 1040 682 1050 l 821 1225 b 814 1250 833 1240 829 1250 l 757 1250 b 725 1225 743 1250 735 1242 z m 1243 972 l 1183 972 b 1149 951 1169 972 1161 964 l 660 461 l 649 461 l 158 951 b 125 972 146 964 139 972 l 64 972 b 63 956 54 972 53 964 l 618 396 l 618 19 b 638 0 618 6 624 0 l 669 0 b 689 19 683 0 689 6 l 689 396 l 1246 956 b 1243 972 1254 964 1254 972 z "},"Ŷ":{"ha":1308,"x_min":0,"x_max":0,"o":"m 635 1250 b 600 1232 619 1250 613 1246 l 454 1065 b 463 1043 444 1054 449 1043 l 494 1043 b 529 1064 507 1043 514 1046 l 647 1196 l 661 1196 l 778 1064 b 813 1043 793 1046 800 1043 l 846 1043 b 853 1065 860 1043 863 1054 l 707 1232 b 668 1250 694 1247 683 1250 z m 1243 972 l 1183 972 b 1149 951 1169 972 1161 964 l 660 461 l 649 461 l 158 951 b 125 972 146 964 139 972 l 64 972 b 63 956 54 972 53 964 l 618 396 l 618 19 b 638 0 618 6 624 0 l 669 0 b 689 19 683 0 689 6 l 689 396 l 1246 956 b 1243 972 1254 964 1254 972 z "},"Ÿ":{"ha":1308,"x_min":0,"x_max":0,"o":"m 454 1171 l 497 1171 b 515 1189 511 1171 515 1175 l 515 1232 b 497 1250 515 1246 511 1250 l 454 1250 b 436 1232 440 1250 436 1246 l 436 1189 b 454 1171 436 1175 440 1171 z m 778 1171 l 821 1171 b 839 1189 835 1171 839 1175 l 839 1232 b 821 1250 839 1246 835 1250 l 778 1250 b 760 1232 764 1250 760 1246 l 760 1189 b 778 1171 760 1175 764 1171 z m 1243 972 l 1183 972 b 1149 951 1169 972 1161 964 l 660 461 l 649 461 l 158 951 b 125 972 146 964 139 972 l 64 972 b 63 956 54 972 53 964 l 618 396 l 618 19 b 638 0 618 6 624 0 l 669 0 b 689 19 683 0 689 6 l 689 396 l 1246 956 b 1243 972 1254 964 1254 972 z "},"Ỳ":{"ha":1308,"x_min":0,"x_max":0,"o":"m 582 1225 b 553 1250 572 1242 567 1250 l 499 1250 b 485 1225 483 1250 472 1240 l 610 1063 b 642 1040 622 1047 628 1040 l 671 1040 b 682 1065 685 1040 692 1050 z m 1243 972 l 1183 972 b 1149 951 1169 972 1161 964 l 660 461 l 649 461 l 158 951 b 125 972 146 964 139 972 l 64 972 b 63 956 54 972 53 964 l 618 396 l 618 19 b 638 0 618 6 624 0 l 669 0 b 689 19 683 0 689 6 l 689 396 l 1246 956 b 1243 972 1254 964 1254 972 z "},"Z":{"ha":1264,"x_min":0,"x_max":0,"o":"m 89 0 l 1175 0 b 1194 19 1189 0 1194 6 l 1194 47 b 1175 67 1194 61 1189 67 l 185 67 l 185 78 l 1186 899 b 1193 915 1192 903 1193 908 l 1193 953 b 1174 972 1193 967 1188 972 l 100 972 b 81 953 86 972 81 967 l 81 925 b 100 906 81 911 86 906 l 1078 906 l 1078 894 l 76 74 b 69 57 71 69 69 64 l 69 19 b 89 0 69 6 75 0 z "},"Ź":{"ha":1264,"x_min":0,"x_max":0,"o":"m 703 1225 l 600 1065 b 610 1040 590 1050 596 1040 l 639 1040 b 672 1065 653 1040 660 1050 l 799 1225 b 792 1250 811 1240 807 1250 l 735 1250 b 703 1225 721 1250 713 1242 z m 89 0 l 1175 0 b 1194 19 1189 0 1194 6 l 1194 47 b 1175 67 1194 61 1189 67 l 185 67 l 185 78 l 1186 899 b 1193 915 1192 903 1193 908 l 1193 953 b 1174 972 1193 967 1188 972 l 100 972 b 81 953 86 972 81 967 l 81 925 b 100 906 81 911 86 906 l 1078 906 l 1078 894 l 76 74 b 69 57 71 69 69 64 l 69 19 b 89 0 69 6 75 0 z "},"Ž":{"ha":1264,"x_min":0,"x_max":0,"o":"m 613 1043 l 646 1043 b 685 1061 661 1043 672 1046 l 831 1228 b 824 1250 840 1239 838 1250 l 790 1250 b 756 1231 778 1250 771 1249 l 639 1099 l 625 1099 l 507 1231 b 472 1250 492 1249 485 1250 l 440 1250 b 432 1228 426 1250 422 1239 l 578 1061 b 613 1043 590 1047 597 1043 z m 89 0 l 1175 0 b 1194 19 1189 0 1194 6 l 1194 47 b 1175 67 1194 61 1189 67 l 185 67 l 185 78 l 1186 899 b 1193 915 1192 903 1193 908 l 1193 953 b 1174 972 1193 967 1188 972 l 100 972 b 81 953 86 972 81 967 l 81 925 b 100 906 81 911 86 906 l 1078 906 l 1078 894 l 76 74 b 69 57 71 69 69 64 l 69 19 b 89 0 69 6 75 0 z "},"Ż":{"ha":1264,"x_min":0,"x_max":0,"o":"m 610 1171 l 653 1171 b 671 1189 667 1171 671 1175 l 671 1232 b 653 1250 671 1246 667 1250 l 610 1250 b 592 1232 596 1250 592 1246 l 592 1189 b 610 1171 592 1175 596 1171 z m 89 0 l 1175 0 b 1194 19 1189 0 1194 6 l 1194 47 b 1175 67 1194 61 1189 67 l 185 67 l 185 78 l 1186 899 b 1193 915 1192 903 1193 908 l 1193 953 b 1174 972 1193 967 1188 972 l 100 972 b 81 953 86 972 81 967 l 81 925 b 100 906 81 911 86 906 l 1078 906 l 1078 894 l 76 74 b 69 57 71 69 69 64 l 69 19 b 89 0 69 6 75 0 z "},"a":{"ha":996,"x_min":0,"x_max":0,"o":"m 247 -7 l 615 -7 b 850 100 731 -7 807 42 l 858 100 l 858 19 b 878 0 858 6 864 0 l 907 0 b 926 19 921 0 926 6 l 926 444 b 658 700 926 621 861 700 l 303 700 b 81 542 143 700 81 640 b 101 515 81 521 86 515 l 128 515 b 150 533 143 515 149 521 b 310 638 156 604 192 638 l 647 638 b 858 438 819 638 858 576 l 858 393 l 244 393 b 42 197 121 393 42 339 b 247 -7 42 57 118 -7 z m 249 60 b 110 199 158 60 110 94 b 249 335 110 303 158 335 l 858 335 l 858 229 b 643 60 858 129 761 60 z "},"á":{"ha":996,"x_min":0,"x_max":0,"o":"m 576 947 l 474 788 b 483 763 464 772 469 763 l 513 763 b 546 788 526 763 533 772 l 672 947 b 665 972 685 963 681 972 l 608 972 b 576 947 594 972 586 964 z m 247 -7 l 615 -7 b 850 100 731 -7 807 42 l 858 100 l 858 19 b 878 0 858 6 864 0 l 907 0 b 926 19 921 0 926 6 l 926 444 b 658 700 926 621 861 700 l 303 700 b 81 542 143 700 81 640 b 101 515 81 521 86 515 l 128 515 b 150 533 143 515 149 521 b 310 638 156 604 192 638 l 647 638 b 858 438 819 638 858 576 l 858 393 l 244 393 b 42 197 121 393 42 339 b 247 -7 42 57 118 -7 z m 249 60 b 110 199 158 60 110 94 b 249 335 110 303 158 335 l 858 335 l 858 229 b 643 60 858 129 761 60 z "},"ă":{"ha":996,"x_min":0,"x_max":0,"o":"m 479 790 l 529 790 b 688 958 636 790 688 847 b 671 972 688 968 685 972 l 646 972 b 628 958 632 972 628 968 b 528 846 628 893 593 846 l 481 846 b 381 958 417 846 382 893 b 363 972 381 968 376 972 l 339 972 b 321 958 325 972 321 968 b 479 790 321 847 376 790 z m 247 -7 l 615 -7 b 850 100 731 -7 807 42 l 858 100 l 858 19 b 878 0 858 6 864 0 l 907 0 b 926 19 921 0 926 6 l 926 444 b 658 700 926 621 861 700 l 303 700 b 81 542 143 700 81 640 b 101 515 81 521 86 515 l 128 515 b 150 533 143 515 149 521 b 310 638 156 604 192 638 l 647 638 b 858 438 819 638 858 576 l 858 393 l 244 393 b 42 197 121 393 42 339 b 247 -7 42 57 118 -7 z m 249 60 b 110 199 158 60 110 94 b 249 335 110 303 158 335 l 858 335 l 858 229 b 643 60 858 129 761 60 z "},"ǎ":{"ha":996,"x_min":0,"x_max":0,"o":"m 486 765 l 519 765 b 558 783 535 765 546 768 l 704 950 b 697 972 714 961 711 972 l 664 972 b 629 953 651 972 644 971 l 513 821 l 499 821 l 381 953 b 346 972 365 971 358 972 l 314 972 b 306 950 300 972 296 961 l 451 783 b 486 765 464 769 471 765 z m 247 -7 l 615 -7 b 850 100 731 -7 807 42 l 858 100 l 858 19 b 878 0 858 6 864 0 l 907 0 b 926 19 921 0 926 6 l 926 444 b 658 700 926 621 861 700 l 303 700 b 81 542 143 700 81 640 b 101 515 81 521 86 515 l 128 515 b 150 533 143 515 149 521 b 310 638 156 604 192 638 l 647 638 b 858 438 819 638 858 576 l 858 393 l 244 393 b 42 197 121 393 42 339 b 247 -7 42 57 118 -7 z m 249 60 b 110 199 158 60 110 94 b 249 335 110 303 158 335 l 858 335 l 858 229 b 643 60 858 129 761 60 z "},"â":{"ha":996,"x_min":0,"x_max":0,"o":"m 486 972 b 451 954 471 972 464 968 l 306 788 b 314 765 296 776 300 765 l 346 765 b 381 786 358 765 365 768 l 499 918 l 513 918 l 629 786 b 664 765 644 768 651 765 l 697 765 b 704 788 711 765 714 776 l 558 954 b 519 972 546 969 535 972 z m 247 -7 l 615 -7 b 850 100 731 -7 807 42 l 858 100 l 858 19 b 878 0 858 6 864 0 l 907 0 b 926 19 921 0 926 6 l 926 444 b 658 700 926 621 861 700 l 303 700 b 81 542 143 700 81 640 b 101 515 81 521 86 515 l 128 515 b 150 533 143 515 149 521 b 310 638 156 604 192 638 l 647 638 b 858 438 819 638 858 576 l 858 393 l 244 393 b 42 197 121 393 42 339 b 247 -7 42 57 118 -7 z m 249 60 b 110 199 158 60 110 94 b 249 335 110 303 158 335 l 858 335 l 858 229 b 643 60 858 129 761 60 z "},"ä":{"ha":996,"x_min":0,"x_max":0,"o":"m 304 893 l 347 893 b 365 911 361 893 365 897 l 365 954 b 347 972 365 968 361 972 l 304 972 b 286 954 290 972 286 968 l 286 911 b 304 893 286 897 290 893 z m 628 893 l 671 893 b 689 911 685 893 689 897 l 689 954 b 671 972 689 968 685 972 l 628 972 b 610 954 614 972 610 968 l 610 911 b 628 893 610 897 614 893 z m 247 -7 l 615 -7 b 850 100 731 -7 807 42 l 858 100 l 858 19 b 878 0 858 6 864 0 l 907 0 b 926 19 921 0 926 6 l 926 444 b 658 700 926 621 861 700 l 303 700 b 81 542 143 700 81 640 b 101 515 81 521 86 515 l 128 515 b 150 533 143 515 149 521 b 310 638 156 604 192 638 l 647 638 b 858 438 819 638 858 576 l 858 393 l 244 393 b 42 197 121 393 42 339 b 247 -7 42 57 118 -7 z m 249 60 b 110 199 158 60 110 94 b 249 335 110 303 158 335 l 858 335 l 858 229 b 643 60 858 129 761 60 z "},"à":{"ha":996,"x_min":0,"x_max":0,"o":"m 432 947 b 403 972 422 964 417 972 l 349 972 b 335 947 333 972 322 963 l 460 785 b 492 763 472 769 478 763 l 521 763 b 532 788 535 763 542 772 z m 247 -7 l 615 -7 b 850 100 731 -7 807 42 l 858 100 l 858 19 b 878 0 858 6 864 0 l 907 0 b 926 19 921 0 926 6 l 926 444 b 658 700 926 621 861 700 l 303 700 b 81 542 143 700 81 640 b 101 515 81 521 86 515 l 128 515 b 150 533 143 515 149 521 b 310 638 156 604 192 638 l 647 638 b 858 438 819 638 858 576 l 858 393 l 244 393 b 42 197 121 393 42 339 b 247 -7 42 57 118 -7 z m 249 60 b 110 199 158 60 110 94 b 249 335 110 303 158 335 l 858 335 l 858 229 b 643 60 858 129 761 60 z "},"ā":{"ha":996,"x_min":0,"x_max":0,"o":"m 279 906 l 729 906 b 750 926 742 906 750 913 l 750 951 b 729 972 750 965 742 972 l 279 972 b 258 951 265 972 258 965 l 258 926 b 279 906 258 913 265 906 z m 247 -7 l 615 -7 b 850 100 731 -7 807 42 l 858 100 l 858 19 b 878 0 858 6 864 0 l 907 0 b 926 19 921 0 926 6 l 926 444 b 658 700 926 621 861 700 l 303 700 b 81 542 143 700 81 640 b 101 515 81 521 86 515 l 128 515 b 150 533 143 515 149 521 b 310 638 156 604 192 638 l 647 638 b 858 438 819 638 858 576 l 858 393 l 244 393 b 42 197 121 393 42 339 b 247 -7 42 57 118 -7 z m 249 60 b 110 199 158 60 110 94 b 249 335 110 303 158 335 l 858 335 l 858 229 b 643 60 858 129 761 60 z "},"ą":{"ha":996,"x_min":0,"x_max":0,"o":"m 658 700 l 303 700 b 81 542 143 700 81 640 b 101 515 81 521 86 515 l 128 515 b 150 533 143 515 149 521 b 310 638 156 604 192 638 l 647 638 b 858 438 819 638 858 576 l 858 393 l 244 393 b 42 197 121 393 42 339 b 247 -7 42 57 118 -7 l 615 -7 b 850 100 731 -7 807 42 l 858 100 l 858 -17 b 814 -60 858 -43 854 -56 l 753 -67 b 638 -162 668 -76 638 -82 b 758 -265 638 -239 664 -265 l 899 -265 b 913 -251 908 -265 913 -260 l 913 -226 b 899 -214 913 -217 907 -214 l 768 -214 b 701 -161 714 -214 701 -201 b 739 -118 701 -124 713 -121 l 865 -103 b 926 -21 914 -97 926 -79 l 926 444 b 658 700 926 621 861 700 z m 643 60 l 249 60 b 110 199 158 60 110 94 b 249 335 110 303 158 335 l 858 335 l 858 229 b 643 60 858 129 761 60 z "},"å":{"ha":996,"x_min":0,"x_max":0,"o":"m 513 994 l 494 994 b 378 878 426 994 378 943 l 378 863 b 494 747 378 797 426 747 l 513 747 b 629 863 581 747 629 797 l 629 878 b 513 994 629 943 581 994 z m 574 876 l 574 865 b 510 801 574 825 551 801 l 497 801 b 433 865 456 801 433 825 l 433 876 b 497 940 433 917 456 940 l 510 940 b 574 876 551 940 574 917 z m 247 -7 l 615 -7 b 850 100 731 -7 807 42 l 858 100 l 858 19 b 878 0 858 6 864 0 l 907 0 b 926 19 921 0 926 6 l 926 444 b 658 700 926 621 861 700 l 303 700 b 81 542 143 700 81 640 b 101 515 81 521 86 515 l 128 515 b 150 533 143 515 149 521 b 310 638 156 604 192 638 l 647 638 b 858 438 819 638 858 576 l 858 393 l 244 393 b 42 197 121 393 42 339 b 247 -7 42 57 118 -7 z m 249 60 b 110 199 158 60 110 94 b 249 335 110 303 158 335 l 858 335 l 858 229 b 643 60 858 129 761 60 z "},"ã":{"ha":996,"x_min":0,"x_max":0,"o":"m 607 849 b 718 883 646 849 682 863 b 728 906 729 890 731 897 l 714 932 b 693 938 710 942 704 944 b 613 911 661 917 639 911 b 401 979 529 911 492 979 b 292 944 364 979 328 967 b 282 924 281 938 278 931 l 296 897 b 315 892 300 886 306 885 b 396 918 347 911 371 918 b 607 849 479 918 518 849 z m 247 -7 l 615 -7 b 850 100 731 -7 807 42 l 858 100 l 858 19 b 878 0 858 6 864 0 l 907 0 b 926 19 921 0 926 6 l 926 444 b 658 700 926 621 861 700 l 303 700 b 81 542 143 700 81 640 b 101 515 81 521 86 515 l 128 515 b 150 533 143 515 149 521 b 310 638 156 604 192 638 l 647 638 b 858 438 819 638 858 576 l 858 393 l 244 393 b 42 197 121 393 42 339 b 247 -7 42 57 118 -7 z m 249 60 b 110 199 158 60 110 94 b 249 335 110 303 158 335 l 858 335 l 858 229 b 643 60 858 129 761 60 z "},"æ":{"ha":1806,"x_min":0,"x_max":0,"o":"m 1503 700 l 1099 700 b 889 601 994 700 925 667 b 658 700 856 668 786 700 l 304 700 b 81 539 144 700 81 638 b 101 513 81 518 86 513 l 128 513 b 150 529 143 513 149 517 b 310 635 156 603 192 635 l 647 638 b 858 438 819 638 858 576 l 858 393 l 244 393 b 42 197 121 393 42 339 b 247 -7 42 57 118 -7 l 629 -7 b 876 114 751 -7 832 50 l 878 114 b 1099 -7 910 33 983 -7 l 1485 -7 b 1722 67 1642 -7 1688 26 b 1725 89 1731 78 1733 85 l 1696 103 b 1669 101 1685 110 1679 108 b 1486 60 1624 65 1590 60 l 1099 60 b 926 233 985 60 926 111 l 926 318 l 1692 318 b 1743 368 1732 318 1743 329 l 1743 461 b 1503 700 1743 617 1664 700 z m 1675 376 l 926 376 l 926 458 b 1099 635 926 583 985 635 l 1503 635 b 1675 458 1617 635 1675 583 z m 643 60 l 249 60 b 110 199 158 60 110 94 b 249 335 110 303 158 335 l 858 335 l 858 229 b 643 60 858 129 761 60 z "},"b":{"ha":1018,"x_min":0,"x_max":0,"o":"m 714 -7 b 956 231 875 -7 956 74 l 956 461 b 714 700 956 619 875 700 l 349 700 b 147 619 224 700 185 672 l 138 619 l 138 953 b 118 972 138 967 133 972 l 89 972 b 69 953 75 972 69 967 l 69 19 b 89 0 69 6 75 0 l 118 0 b 138 19 132 0 138 6 l 138 74 l 147 74 b 349 -7 185 21 224 -7 z m 714 60 l 313 60 b 138 233 197 60 138 110 l 138 458 b 313 635 138 583 197 635 l 714 635 b 888 458 829 635 888 583 l 888 233 b 714 60 888 110 829 60 z "},"c":{"ha":999,"x_min":0,"x_max":0,"o":"m 303 -7 l 689 -7 b 926 67 846 -7 892 26 b 929 89 935 78 938 85 l 901 103 b 874 101 889 110 883 108 b 690 60 828 65 794 60 l 303 60 b 131 233 189 60 131 111 l 131 458 b 303 635 131 583 189 635 l 711 635 b 875 507 824 635 875 590 l 875 475 b 893 460 875 465 882 460 l 926 460 b 943 478 938 460 943 467 l 943 511 b 717 700 943 635 868 700 l 303 700 b 63 463 142 700 63 621 l 63 229 b 303 -7 63 72 142 -7 z "},"ć":{"ha":999,"x_min":0,"x_max":0,"o":"m 564 947 l 461 788 b 471 763 451 772 457 763 l 500 763 b 533 788 514 763 521 772 l 660 947 b 653 972 672 963 668 972 l 596 972 b 564 947 582 972 574 964 z m 303 -7 l 689 -7 b 926 67 846 -7 892 26 b 929 89 935 78 938 85 l 901 103 b 874 101 889 110 883 108 b 690 60 828 65 794 60 l 303 60 b 131 233 189 60 131 111 l 131 458 b 303 635 131 583 189 635 l 711 635 b 875 507 824 635 875 590 l 875 475 b 893 460 875 465 882 460 l 926 460 b 943 478 938 460 943 467 l 943 511 b 717 700 943 635 868 700 l 303 700 b 63 463 142 700 63 621 l 63 229 b 303 -7 63 72 142 -7 z "},"č":{"ha":999,"x_min":0,"x_max":0,"o":"m 472 765 l 506 765 b 544 783 521 765 532 768 l 690 950 b 683 972 700 961 697 972 l 650 972 b 615 953 638 972 631 971 l 499 821 l 485 821 l 367 953 b 332 972 351 971 344 972 l 300 972 b 292 950 286 972 282 961 l 438 783 b 472 765 450 769 457 765 z m 303 -7 l 689 -7 b 926 67 846 -7 892 26 b 929 89 935 78 938 85 l 901 103 b 874 101 889 110 883 108 b 690 60 828 65 794 60 l 303 60 b 131 233 189 60 131 111 l 131 458 b 303 635 131 583 189 635 l 711 635 b 875 507 824 635 875 590 l 875 475 b 893 460 875 465 882 460 l 926 460 b 943 478 938 460 943 467 l 943 511 b 717 700 943 635 868 700 l 303 700 b 63 463 142 700 63 621 l 63 229 b 303 -7 63 72 142 -7 z "},"ç":{"ha":999,"x_min":0,"x_max":0,"o":"m 717 700 l 303 700 b 63 463 142 700 63 621 l 63 229 b 303 -7 63 72 142 -7 l 447 -7 b 401 -82 413 -42 401 -61 b 456 -129 401 -112 426 -126 b 596 -176 554 -140 596 -142 b 524 -224 596 -217 576 -224 l 494 -224 b 421 -167 438 -224 419 -208 b 407 -156 421 -160 414 -156 l 374 -156 b 361 -169 364 -156 361 -161 b 481 -276 361 -239 390 -276 l 536 -276 b 657 -178 625 -276 657 -246 b 510 -82 657 -90 588 -92 b 517 -7 469 -78 453 -72 l 689 -7 b 926 67 846 -7 892 26 b 929 89 935 78 938 85 l 901 103 b 874 101 889 110 883 108 b 690 60 828 65 794 60 l 303 60 b 131 233 189 60 131 111 l 131 458 b 303 635 131 583 189 635 l 711 635 b 875 507 824 635 875 590 l 875 475 b 893 460 875 465 882 460 l 926 460 b 943 478 938 460 943 467 l 943 511 b 717 700 943 635 868 700 z "},"ċ":{"ha":999,"x_min":0,"x_max":0,"o":"m 469 893 l 513 893 b 531 911 526 893 531 897 l 531 954 b 513 972 531 968 526 972 l 469 972 b 451 954 456 972 451 968 l 451 911 b 469 893 451 897 456 893 z m 303 -7 l 689 -7 b 926 67 846 -7 892 26 b 929 89 935 78 938 85 l 901 103 b 874 101 889 110 883 108 b 690 60 828 65 794 60 l 303 60 b 131 233 189 60 131 111 l 131 458 b 303 635 131 583 189 635 l 711 635 b 875 507 824 635 875 590 l 875 475 b 893 460 875 465 882 460 l 926 460 b 943 478 938 460 943 467 l 943 511 b 717 700 943 635 868 700 l 303 700 b 63 463 142 700 63 621 l 63 229 b 303 -7 63 72 142 -7 z "},"d":{"ha":1018,"x_min":0,"x_max":0,"o":"m 304 -7 l 671 -7 b 871 74 794 -7 833 21 l 881 74 l 881 19 b 900 0 881 6 886 0 l 929 0 b 949 19 943 0 949 6 l 949 953 b 929 972 949 967 943 972 l 900 972 b 881 953 885 972 881 967 l 881 619 l 871 619 b 671 700 833 672 794 700 l 304 700 b 63 461 144 700 63 619 l 63 231 b 304 -7 63 74 144 -7 z m 304 60 b 131 233 189 60 131 110 l 131 458 b 304 635 131 583 189 635 l 706 635 b 881 458 822 635 881 583 l 881 233 b 706 60 881 110 822 60 z "},"ð":{"ha":1061,"x_min":0,"x_max":0,"o":"m 974 1007 l 942 1007 b 910 983 931 1007 928 1003 l 865 936 b 704 972 826 961 774 972 l 293 972 b 274 953 279 972 274 967 l 274 925 b 293 907 274 911 279 907 l 693 907 b 818 885 747 907 788 900 l 700 758 b 713 733 689 746 696 733 l 743 733 b 775 757 754 733 758 740 l 858 847 b 881 756 874 825 881 794 l 881 619 l 871 619 b 671 700 833 672 794 700 l 304 700 b 63 461 144 700 63 619 l 63 231 b 304 -7 63 74 144 -7 l 671 -7 b 871 74 794 -7 833 21 l 881 74 l 881 19 b 900 0 881 6 886 0 l 929 0 b 949 19 943 0 949 6 l 949 746 b 907 900 949 813 935 863 l 983 982 b 974 1007 996 994 990 1007 z m 881 233 b 706 60 881 110 822 60 l 304 60 b 131 233 189 60 131 110 l 131 458 b 304 635 131 583 189 635 l 706 635 b 881 458 822 635 881 583 z "},"ď":{"ha":1081,"x_min":0,"x_max":0,"o":"m 304 -7 l 671 -7 b 871 74 794 -7 833 21 l 881 74 l 881 19 b 900 0 881 6 886 0 l 929 0 b 949 19 943 0 949 6 l 949 953 b 929 972 949 967 943 972 l 900 972 b 881 953 885 972 881 967 l 881 619 l 871 619 b 671 700 833 672 794 700 l 304 700 b 63 461 144 700 63 619 l 63 231 b 304 -7 63 74 144 -7 z m 1089 972 l 1061 972 b 1043 954 1047 972 1043 968 l 1043 765 l 1006 765 b 988 747 992 765 988 761 l 988 722 b 1006 706 988 708 992 706 l 1075 706 b 1107 736 1097 706 1107 714 l 1107 954 b 1089 972 1107 968 1103 972 z m 304 60 b 131 233 189 60 131 110 l 131 458 b 304 635 131 583 189 635 l 706 635 b 881 458 822 635 881 583 l 881 233 b 706 60 881 110 822 60 z "},"đ":{"ha":1035,"x_min":0,"x_max":0,"o":"m 993 844 l 949 844 l 949 953 b 929 972 949 967 943 972 l 900 972 b 881 953 885 972 881 967 l 881 844 l 543 844 b 522 824 529 844 522 838 l 522 797 b 543 776 522 783 529 776 l 881 776 l 881 619 l 871 619 b 671 700 833 672 794 700 l 304 700 b 63 461 144 700 63 619 l 63 231 b 304 -7 63 74 144 -7 l 671 -7 b 871 74 794 -7 833 21 l 881 74 l 881 19 b 900 0 881 6 886 0 l 929 0 b 949 19 943 0 949 6 l 949 776 l 993 776 b 1014 797 1006 776 1014 783 l 1014 824 b 993 844 1014 838 1006 844 z m 881 233 b 706 60 881 110 822 60 l 304 60 b 131 233 189 60 131 110 l 131 458 b 304 635 131 583 189 635 l 706 635 b 881 458 822 635 881 583 z "},"e":{"ha":1010,"x_min":0,"x_max":0,"o":"m 707 700 l 303 700 b 63 463 142 700 63 621 l 63 229 b 303 -7 63 72 142 -7 l 689 -7 b 926 67 846 -7 892 26 b 929 89 935 78 938 85 l 901 103 b 874 101 889 110 883 108 b 690 60 828 65 794 60 l 303 60 b 131 233 189 60 131 111 l 131 318 l 896 318 b 947 368 936 318 947 329 l 947 461 b 707 700 947 617 868 700 z m 879 376 l 131 376 l 131 458 b 303 635 131 583 189 635 l 707 635 b 879 458 821 635 879 583 z "},"é":{"ha":1010,"x_min":0,"x_max":0,"o":"m 482 763 l 511 763 b 544 788 525 763 532 772 l 671 947 b 664 972 683 963 679 972 l 607 972 b 575 947 593 972 585 964 l 472 788 b 482 763 463 772 468 763 z m 707 700 l 303 700 b 63 463 142 700 63 621 l 63 229 b 303 -7 63 72 142 -7 l 689 -7 b 926 67 846 -7 892 26 b 929 89 935 78 938 85 l 901 103 b 874 101 889 110 883 108 b 690 60 828 65 794 60 l 303 60 b 131 233 189 60 131 111 l 131 318 l 896 318 b 947 368 936 318 947 329 l 947 461 b 707 700 947 617 868 700 z m 879 376 l 131 376 l 131 458 b 303 635 131 583 189 635 l 707 635 b 879 458 821 635 879 583 z "},"ě":{"ha":1010,"x_min":0,"x_max":0,"o":"m 450 783 b 485 765 463 769 469 765 l 518 765 b 557 783 533 765 544 768 l 703 950 b 696 972 713 961 710 972 l 663 972 b 628 953 650 972 643 971 l 511 821 l 497 821 l 379 953 b 344 972 364 971 357 972 l 313 972 b 304 950 299 972 294 961 z m 707 700 l 303 700 b 63 463 142 700 63 621 l 63 229 b 303 -7 63 72 142 -7 l 689 -7 b 926 67 846 -7 892 26 b 929 89 935 78 938 85 l 901 103 b 874 101 889 110 883 108 b 690 60 828 65 794 60 l 303 60 b 131 233 189 60 131 111 l 131 318 l 896 318 b 947 368 936 318 947 329 l 947 461 b 707 700 947 617 868 700 z m 879 376 l 131 376 l 131 458 b 303 635 131 583 189 635 l 707 635 b 879 458 821 635 879 583 z "},"ȩ":{"ha":1010,"x_min":0,"x_max":0,"o":"m 707 700 l 303 700 b 63 463 142 700 63 621 l 63 229 b 303 -7 63 72 142 -7 l 460 -7 b 414 -82 425 -42 414 -61 b 468 -129 414 -112 439 -126 b 608 -176 567 -140 608 -142 b 536 -224 608 -217 589 -224 l 507 -224 b 433 -167 450 -224 432 -208 b 419 -156 433 -160 426 -156 l 386 -156 b 374 -169 376 -156 374 -161 b 493 -276 374 -239 403 -276 l 549 -276 b 669 -178 638 -276 669 -246 b 522 -82 669 -90 600 -92 b 529 -7 482 -78 465 -72 l 689 -7 b 926 67 846 -7 892 26 b 929 89 935 78 938 85 l 901 103 b 874 101 889 110 883 108 b 690 60 828 65 794 60 l 303 60 b 131 233 189 60 131 111 l 131 318 l 896 318 b 947 368 936 318 947 329 l 947 461 b 707 700 947 617 868 700 z m 879 376 l 131 376 l 131 458 b 303 635 131 583 189 635 l 707 635 b 879 458 821 635 879 583 z "},"ê":{"ha":1010,"x_min":0,"x_max":0,"o":"m 313 765 l 344 765 b 379 786 357 765 364 768 l 497 918 l 511 918 l 628 786 b 663 765 643 768 650 765 l 696 765 b 703 788 710 765 713 776 l 557 954 b 518 972 544 969 533 972 l 485 972 b 450 954 469 972 463 968 l 304 788 b 313 765 294 776 299 765 z m 707 700 l 303 700 b 63 463 142 700 63 621 l 63 229 b 303 -7 63 72 142 -7 l 689 -7 b 926 67 846 -7 892 26 b 929 89 935 78 938 85 l 901 103 b 874 101 889 110 883 108 b 690 60 828 65 794 60 l 303 60 b 131 233 189 60 131 111 l 131 318 l 896 318 b 947 368 936 318 947 329 l 947 461 b 707 700 947 617 868 700 z m 879 376 l 131 376 l 131 458 b 303 635 131 583 189 635 l 707 635 b 879 458 821 635 879 583 z "},"ë":{"ha":1010,"x_min":0,"x_max":0,"o":"m 304 893 l 347 893 b 365 911 361 893 365 897 l 365 954 b 347 972 365 968 361 972 l 304 972 b 286 954 290 972 286 968 l 286 911 b 304 893 286 897 290 893 z m 628 893 l 671 893 b 689 911 685 893 689 897 l 689 954 b 671 972 689 968 685 972 l 628 972 b 610 954 614 972 610 968 l 610 911 b 628 893 610 897 614 893 z m 707 700 l 303 700 b 63 463 142 700 63 621 l 63 229 b 303 -7 63 72 142 -7 l 689 -7 b 926 67 846 -7 892 26 b 929 89 935 78 938 85 l 901 103 b 874 101 889 110 883 108 b 690 60 828 65 794 60 l 303 60 b 131 233 189 60 131 111 l 131 318 l 896 318 b 947 368 936 318 947 329 l 947 461 b 707 700 947 617 868 700 z m 879 376 l 131 376 l 131 458 b 303 635 131 583 189 635 l 707 635 b 879 458 821 635 879 583 z "},"ė":{"ha":1010,"x_min":0,"x_max":0,"o":"m 482 893 l 525 893 b 543 911 539 893 543 897 l 543 954 b 525 972 543 968 539 972 l 482 972 b 464 954 468 972 464 968 l 464 911 b 482 893 464 897 468 893 z m 707 700 l 303 700 b 63 463 142 700 63 621 l 63 229 b 303 -7 63 72 142 -7 l 689 -7 b 926 67 846 -7 892 26 b 929 89 935 78 938 85 l 901 103 b 874 101 889 110 883 108 b 690 60 828 65 794 60 l 303 60 b 131 233 189 60 131 111 l 131 318 l 896 318 b 947 368 936 318 947 329 l 947 461 b 707 700 947 617 868 700 z m 879 376 l 131 376 l 131 458 b 303 635 131 583 189 635 l 707 635 b 879 458 821 635 879 583 z "},"è":{"ha":1010,"x_min":0,"x_max":0,"o":"m 460 785 b 492 763 472 769 478 763 l 521 763 b 532 788 535 763 542 772 l 432 947 b 403 972 422 964 417 972 l 349 972 b 335 947 333 972 322 963 z m 707 700 l 303 700 b 63 463 142 700 63 621 l 63 229 b 303 -7 63 72 142 -7 l 689 -7 b 926 67 846 -7 892 26 b 929 89 935 78 938 85 l 901 103 b 874 101 889 110 883 108 b 690 60 828 65 794 60 l 303 60 b 131 233 189 60 131 111 l 131 318 l 896 318 b 947 368 936 318 947 329 l 947 461 b 707 700 947 617 868 700 z m 879 376 l 131 376 l 131 458 b 303 635 131 583 189 635 l 707 635 b 879 458 821 635 879 583 z "},"ē":{"ha":1010,"x_min":0,"x_max":0,"o":"m 279 906 l 729 906 b 750 926 742 906 750 913 l 750 951 b 729 972 750 965 742 972 l 279 972 b 258 951 265 972 258 965 l 258 926 b 279 906 258 913 265 906 z m 707 700 l 303 700 b 63 463 142 700 63 621 l 63 229 b 303 -7 63 72 142 -7 l 689 -7 b 926 67 846 -7 892 26 b 929 89 935 78 938 85 l 901 103 b 874 101 889 110 883 108 b 690 60 828 65 794 60 l 303 60 b 131 233 189 60 131 111 l 131 318 l 896 318 b 947 368 936 318 947 329 l 947 461 b 707 700 947 617 868 700 z m 879 376 l 131 376 l 131 458 b 303 635 131 583 189 635 l 707 635 b 879 458 821 635 879 583 z "},"ę":{"ha":1010,"x_min":0,"x_max":0,"o":"m 707 700 l 303 700 b 63 463 142 700 63 621 l 63 229 b 303 -7 63 72 142 -7 l 581 -7 l 581 -31 b 536 -74 581 -57 576 -69 l 475 -81 b 360 -176 390 -90 360 -96 b 481 -279 360 -253 386 -279 l 621 -279 b 635 -265 631 -279 635 -274 l 635 -240 b 621 -228 635 -231 629 -228 l 490 -228 b 424 -175 436 -228 424 -215 b 461 -132 424 -137 435 -135 l 588 -117 b 649 -35 636 -111 649 -93 l 649 -7 l 689 -7 b 926 67 846 -7 892 26 b 929 89 935 78 938 85 l 901 103 b 874 101 889 110 883 108 b 690 60 828 65 794 60 l 303 60 b 131 233 189 60 131 111 l 131 318 l 896 318 b 947 368 936 318 947 329 l 947 461 b 707 700 947 617 868 700 z m 879 376 l 131 376 l 131 458 b 303 635 131 583 189 635 l 707 635 b 879 458 821 635 879 583 z "},"f":{"ha":826,"x_min":0,"x_max":0,"o":"m 757 972 l 385 972 b 142 733 224 972 142 892 l 142 694 l 76 694 b 56 674 63 694 56 688 l 56 650 b 76 629 56 636 63 629 l 142 629 l 142 21 b 163 0 142 7 149 0 l 189 0 b 210 21 203 0 210 7 l 210 629 l 743 629 b 764 650 757 629 764 636 l 764 674 b 743 694 764 688 757 694 l 210 694 l 210 731 b 383 907 210 856 269 907 l 757 907 b 778 928 771 907 778 914 l 778 951 b 757 972 778 965 771 972 z "},"g":{"ha":1018,"x_min":0,"x_max":0,"o":"m 190 -251 l 707 -251 b 949 -12 868 -251 949 -171 l 949 675 b 929 694 949 689 943 694 l 900 694 b 881 675 885 694 881 689 l 881 619 l 871 619 b 671 700 833 672 794 700 l 304 700 b 63 461 144 700 63 619 l 63 231 b 304 -7 63 74 144 -7 l 671 -7 b 871 74 794 -7 833 21 l 881 74 l 881 -8 b 708 -190 881 -137 822 -190 l 190 -190 b 172 -211 176 -190 172 -196 l 172 -232 b 190 -251 172 -246 176 -251 z m 304 60 b 131 233 189 60 131 110 l 131 458 b 304 635 131 583 189 635 l 706 635 b 881 458 822 635 881 583 l 881 233 b 706 60 881 110 822 60 z "},"ğ":{"ha":1018,"x_min":0,"x_max":0,"o":"m 490 790 l 540 790 b 699 958 647 790 699 847 b 682 972 699 968 696 972 l 657 972 b 639 958 643 972 639 968 b 539 846 639 893 604 846 l 492 846 b 392 958 428 846 393 893 b 374 972 392 968 388 972 l 350 972 b 332 958 336 972 332 968 b 490 790 332 847 388 790 z m 190 -251 l 707 -251 b 949 -12 868 -251 949 -171 l 949 675 b 929 694 949 689 943 694 l 900 694 b 881 675 885 694 881 689 l 881 619 l 871 619 b 671 700 833 672 794 700 l 304 700 b 63 461 144 700 63 619 l 63 231 b 304 -7 63 74 144 -7 l 671 -7 b 871 74 794 -7 833 21 l 881 74 l 881 -8 b 708 -190 881 -137 822 -190 l 190 -190 b 172 -211 176 -190 172 -196 l 172 -232 b 190 -251 172 -246 176 -251 z m 304 60 b 131 233 189 60 131 110 l 131 458 b 304 635 131 583 189 635 l 706 635 b 881 458 822 635 881 583 l 881 233 b 706 60 881 110 822 60 z "},"ǧ":{"ha":1018,"x_min":0,"x_max":0,"o":"m 497 765 l 531 765 b 569 783 546 765 557 768 l 715 950 b 708 972 725 961 722 972 l 675 972 b 640 953 663 972 656 971 l 524 821 l 510 821 l 392 953 b 357 972 376 971 369 972 l 325 972 b 317 950 311 972 307 961 l 463 783 b 497 765 475 769 482 765 z m 190 -251 l 707 -251 b 949 -12 868 -251 949 -171 l 949 675 b 929 694 949 689 943 694 l 900 694 b 881 675 885 694 881 689 l 881 619 l 871 619 b 671 700 833 672 794 700 l 304 700 b 63 461 144 700 63 619 l 63 231 b 304 -7 63 74 144 -7 l 671 -7 b 871 74 794 -7 833 21 l 881 74 l 881 -8 b 708 -190 881 -137 822 -190 l 190 -190 b 172 -211 176 -190 172 -196 l 172 -232 b 190 -251 172 -246 176 -251 z m 304 60 b 131 233 189 60 131 110 l 131 458 b 304 635 131 583 189 635 l 706 635 b 881 458 822 635 881 583 l 881 233 b 706 60 881 110 822 60 z "},"ģ":{"ha":1032,"x_min":0,"x_max":0,"o":"m 446 814 l 475 814 b 492 831 489 814 492 817 l 492 1021 l 529 1021 b 547 1039 543 1021 547 1025 l 547 1063 b 529 1081 547 1076 543 1081 l 460 1081 b 429 1050 438 1081 429 1072 l 429 831 b 446 814 429 817 432 814 z m 190 -251 l 707 -251 b 949 -12 868 -251 949 -171 l 949 675 b 929 694 949 689 943 694 l 900 694 b 881 675 885 694 881 689 l 881 619 l 871 619 b 671 700 833 672 794 700 l 304 700 b 63 461 144 700 63 619 l 63 231 b 304 -7 63 74 144 -7 l 671 -7 b 871 74 794 -7 833 21 l 881 74 l 881 -8 b 708 -190 881 -137 822 -190 l 190 -190 b 172 -211 176 -190 172 -196 l 172 -232 b 190 -251 172 -246 176 -251 z m 304 60 b 131 233 189 60 131 110 l 131 458 b 304 635 131 583 189 635 l 706 635 b 881 458 822 635 881 583 l 881 233 b 706 60 881 110 822 60 z "},"ġ":{"ha":1018,"x_min":0,"x_max":0,"o":"m 494 893 l 538 893 b 556 911 551 893 556 897 l 556 954 b 538 972 556 968 551 972 l 494 972 b 476 954 481 972 476 968 l 476 911 b 494 893 476 897 481 893 z m 190 -251 l 707 -251 b 949 -12 868 -251 949 -171 l 949 675 b 929 694 949 689 943 694 l 900 694 b 881 675 885 694 881 689 l 881 619 l 871 619 b 671 700 833 672 794 700 l 304 700 b 63 461 144 700 63 619 l 63 231 b 304 -7 63 74 144 -7 l 671 -7 b 871 74 794 -7 833 21 l 881 74 l 881 -8 b 708 -190 881 -137 822 -190 l 190 -190 b 172 -211 176 -190 172 -196 l 172 -232 b 190 -251 172 -246 176 -251 z m 304 60 b 131 233 189 60 131 110 l 131 458 b 304 635 131 583 189 635 l 706 635 b 881 458 822 635 881 583 l 881 233 b 706 60 881 110 822 60 z "},"h":{"ha":1025,"x_min":0,"x_max":0,"o":"m 714 700 l 349 700 b 147 619 224 700 185 672 l 138 619 l 138 953 b 118 972 138 967 132 972 l 89 972 b 69 953 75 972 69 967 l 69 19 b 89 0 69 6 75 0 l 118 0 b 138 19 132 0 138 6 l 138 458 b 310 635 138 583 197 635 l 715 635 b 888 458 829 635 888 583 l 888 19 b 907 0 888 6 893 0 l 936 0 b 956 19 950 0 956 6 l 956 461 b 714 700 956 619 875 700 z "},"ħ":{"ha":1067,"x_min":0,"x_max":0,"o":"m 756 700 l 390 700 b 189 619 265 700 226 672 l 179 619 l 179 779 l 407 779 b 428 800 421 779 428 786 l 428 817 b 407 838 428 831 421 838 l 179 838 l 179 953 b 160 972 179 967 174 972 l 131 972 b 111 953 117 972 111 967 l 111 838 l 63 838 b 42 817 49 838 42 831 l 42 800 b 63 779 42 786 49 779 l 111 779 l 111 19 b 131 0 111 6 117 0 l 160 0 b 179 19 174 0 179 6 l 179 458 b 351 635 179 583 239 635 l 757 635 b 929 458 871 635 929 583 l 929 19 b 949 0 929 6 935 0 l 978 0 b 997 19 992 0 997 6 l 997 461 b 756 700 997 619 917 700 z "},"i":{"ha":207,"x_min":0,"x_max":0,"o":"m 69 953 l 69 922 b 89 903 69 908 75 903 l 118 903 b 138 922 132 903 138 908 l 138 953 b 118 972 138 967 132 972 l 89 972 b 69 953 75 972 69 967 z m 69 675 l 69 19 b 89 0 69 6 75 0 l 118 0 b 138 19 132 0 138 6 l 138 675 b 118 694 138 689 132 694 l 89 694 b 69 675 75 694 69 689 z "},"ı":{"ha":207,"x_min":0,"x_max":0,"o":"m 69 675 l 69 19 b 89 0 69 6 75 0 l 118 0 b 138 19 132 0 138 6 l 138 675 b 118 694 138 689 132 694 l 89 694 b 69 675 75 694 69 689 z "},"í":{"ha":207,"x_min":0,"x_max":0,"o":"m 175 947 l 72 788 b 82 763 63 772 68 763 l 111 763 b 144 788 125 763 132 772 l 271 947 b 264 972 283 963 279 972 l 207 972 b 175 947 193 972 185 964 z m 69 675 l 69 19 b 89 0 69 6 75 0 l 118 0 b 138 19 132 0 138 6 l 138 675 b 118 694 138 689 132 694 l 89 694 b 69 675 75 694 69 689 z "},"ǐ":{"ha":207,"x_min":0,"x_max":0,"o":"m 85 765 l 118 765 b 157 783 133 765 144 768 l 303 950 b 296 972 313 961 310 972 l 263 972 b 228 953 250 972 243 971 l 111 821 l 97 821 l -21 953 b -56 972 -36 971 -43 972 l -87 972 b -96 950 -101 972 -106 961 l 50 783 b 85 765 63 769 69 765 z m 69 675 l 69 19 b 89 0 69 6 75 0 l 118 0 b 138 19 132 0 138 6 l 138 675 b 118 694 138 689 132 694 l 89 694 b 69 675 75 694 69 689 z "},"î":{"ha":207,"x_min":0,"x_max":0,"o":"m 85 972 b 50 954 69 972 63 968 l -96 788 b -87 765 -106 776 -101 765 l -56 765 b -21 786 -43 765 -36 768 l 97 918 l 111 918 l 228 786 b 263 765 243 768 250 765 l 296 765 b 303 788 310 765 313 776 l 157 954 b 118 972 144 969 133 972 z m 69 675 l 69 19 b 89 0 69 6 75 0 l 118 0 b 138 19 132 0 138 6 l 138 675 b 118 694 138 689 132 694 l 89 694 b 69 675 75 694 69 689 z "},"ï":{"ha":207,"x_min":0,"x_max":0,"o":"m -96 893 l -53 893 b -35 911 -39 893 -35 897 l -35 954 b -53 972 -35 968 -39 972 l -96 972 b -114 954 -110 972 -114 968 l -114 911 b -96 893 -114 897 -110 893 z m 228 893 l 271 893 b 289 911 285 893 289 897 l 289 954 b 271 972 289 968 285 972 l 228 972 b 210 954 214 972 210 968 l 210 911 b 228 893 210 897 214 893 z m 69 675 l 69 19 b 89 0 69 6 75 0 l 118 0 b 138 19 132 0 138 6 l 138 675 b 118 694 138 689 132 694 l 89 694 b 69 675 75 694 69 689 z "},"ì":{"ha":207,"x_min":0,"x_max":0,"o":"m 32 947 b 3 972 22 964 17 972 l -51 972 b -65 947 -67 972 -78 963 l 60 785 b 92 763 72 769 78 763 l 121 763 b 132 788 135 763 142 772 z m 69 675 l 69 19 b 89 0 69 6 75 0 l 118 0 b 138 19 132 0 138 6 l 138 675 b 118 694 138 689 132 694 l 89 694 b 69 675 75 694 69 689 z "},"ĳ":{"ha":453,"x_min":0,"x_max":0,"o":"m 69 953 l 69 922 b 89 903 69 908 75 903 l 118 903 b 138 922 132 903 138 908 l 138 953 b 118 972 138 967 132 972 l 89 972 b 69 953 75 972 69 967 z m 333 903 l 364 903 b 383 922 378 903 383 908 l 383 953 b 364 972 383 967 378 972 l 333 972 b 315 953 319 972 315 967 l 315 922 b 333 903 315 908 319 903 z m 69 675 l 69 19 b 89 0 69 6 75 0 l 118 0 b 138 19 132 0 138 6 l 138 675 b 118 694 138 689 132 694 l 89 694 b 69 675 75 694 69 689 z m 150 -251 b 383 -12 303 -251 383 -171 l 383 675 b 364 694 383 689 378 694 l 333 694 b 315 675 319 694 315 689 l 315 -8 b 153 -186 315 -135 258 -186 l 93 -186 b 82 -197 86 -186 82 -190 l 82 -236 b 96 -247 82 -242 86 -246 b 150 -251 119 -250 133 -251 z "},"ī":{"ha":207,"x_min":0,"x_max":0,"o":"m -121 906 l 329 906 b 350 926 342 906 350 913 l 350 951 b 329 972 350 965 342 972 l -121 972 b -142 951 -135 972 -142 965 l -142 926 b -121 906 -142 913 -135 906 z m 69 675 l 69 19 b 89 0 69 6 75 0 l 118 0 b 138 19 132 0 138 6 l 138 675 b 118 694 138 689 132 694 l 89 694 b 69 675 75 694 69 689 z "},"į":{"ha":207,"x_min":0,"x_max":0,"o":"m 125 972 l 82 972 b 64 954 68 972 64 968 l 64 911 b 82 893 64 897 68 893 l 125 893 b 143 911 139 893 143 897 l 143 954 b 125 972 143 968 139 972 z m 118 694 l 89 694 b 69 675 75 694 69 689 l 69 -31 b 25 -74 69 -57 65 -69 l -36 -81 b -151 -176 -121 -90 -151 -96 b -31 -279 -151 -253 -125 -279 l 110 -279 b 124 -265 119 -279 124 -274 l 124 -240 b 110 -228 124 -231 118 -228 l -21 -228 b -87 -175 -75 -228 -87 -215 b -50 -132 -87 -137 -76 -135 l 76 -117 b 138 -35 125 -111 138 -93 l 138 675 b 118 694 138 689 132 694 z "},"j":{"ha":218,"x_min":0,"x_max":0,"o":"m 99 903 l 129 903 b 149 922 143 903 149 908 l 149 953 b 129 972 149 967 143 972 l 99 972 b 81 953 85 972 81 967 l 81 922 b 99 903 81 908 85 903 z m -85 -251 b 149 -12 68 -251 149 -171 l 149 675 b 129 694 149 689 143 694 l 99 694 b 81 675 85 694 81 689 l 81 -8 b -82 -186 81 -135 24 -186 l -142 -186 b -153 -197 -149 -186 -153 -190 l -153 -236 b -139 -247 -153 -242 -149 -246 b -85 -251 -115 -250 -101 -251 z "},"ȷ":{"ha":218,"x_min":0,"x_max":0,"o":"m -85 -251 b 149 -12 68 -251 149 -171 l 149 675 b 129 694 149 689 143 694 l 99 694 b 81 675 85 694 81 689 l 81 -8 b -82 -186 81 -135 24 -186 l -142 -186 b -153 -197 -149 -186 -153 -190 l -153 -236 b -139 -247 -153 -242 -149 -246 b -85 -251 -115 -250 -101 -251 z "},"k":{"ha":978,"x_min":0,"x_max":0,"o":"m 928 25 l 421 383 l 913 669 b 906 694 928 678 921 694 l 853 694 b 813 679 836 694 826 688 l 138 283 l 138 953 b 118 972 138 967 132 972 l 89 972 b 69 953 75 972 69 967 l 69 19 b 89 0 69 6 75 0 l 118 0 b 138 19 132 0 138 6 l 138 218 l 367 351 l 836 17 b 878 0 849 8 863 0 l 924 0 b 928 25 939 0 942 15 z "},"ķ":{"ha":978,"x_min":0,"x_max":0,"o":"m 928 25 l 421 383 l 913 669 b 906 694 928 678 921 694 l 853 694 b 813 679 836 694 826 688 l 138 283 l 138 953 b 118 972 138 967 132 972 l 89 972 b 69 953 75 972 69 967 l 69 19 b 89 0 69 6 75 0 l 118 0 b 138 19 132 0 138 6 l 138 218 l 367 351 l 836 17 b 878 0 849 8 863 0 l 924 0 b 928 25 939 0 942 15 z m 478 -83 l 449 -83 b 432 -101 435 -83 432 -87 l 432 -292 l 394 -292 b 376 -308 381 -292 376 -294 l 376 -333 b 394 -350 376 -347 381 -350 l 464 -350 b 494 -319 486 -350 494 -342 l 494 -101 b 478 -83 494 -87 492 -83 z "},"l":{"ha":207,"x_min":0,"x_max":0,"o":"m 69 953 l 69 19 b 89 0 69 6 75 0 l 118 0 b 138 19 132 0 138 6 l 138 953 b 118 972 138 967 132 972 l 89 972 b 69 953 75 972 69 967 z "},"ĺ":{"ha":207,"x_min":0,"x_max":0,"o":"m 175 1225 l 72 1065 b 82 1040 63 1050 68 1040 l 111 1040 b 144 1065 125 1040 132 1050 l 271 1225 b 264 1250 283 1240 279 1250 l 207 1250 b 175 1225 193 1250 185 1242 z m 69 953 l 69 19 b 89 0 69 6 75 0 l 118 0 b 138 19 132 0 138 6 l 138 953 b 118 972 138 967 132 972 l 89 972 b 69 953 75 972 69 967 z "},"ľ":{"ha":244,"x_min":0,"x_max":0,"o":"m 69 953 l 69 19 b 89 0 69 6 75 0 l 118 0 b 138 19 132 0 138 6 l 138 953 b 118 972 138 967 132 972 l 89 972 b 69 953 75 972 69 967 z m 282 972 l 254 972 b 236 954 240 972 236 968 l 236 765 l 199 765 b 181 747 185 765 181 761 l 181 722 b 199 706 181 708 185 706 l 268 706 b 300 736 290 706 300 714 l 300 954 b 282 972 300 968 296 972 z "},"ļ":{"ha":207,"x_min":0,"x_max":0,"o":"m 69 953 l 69 19 b 89 0 69 6 75 0 l 118 0 b 138 19 132 0 138 6 l 138 953 b 118 972 138 967 132 972 l 89 972 b 69 953 75 972 69 967 z m 115 -83 l 86 -83 b 69 -101 72 -83 69 -87 l 69 -292 l 32 -292 b 14 -308 18 -292 14 -294 l 14 -333 b 32 -350 14 -347 18 -350 l 101 -350 b 132 -319 124 -350 132 -342 l 132 -101 b 115 -83 132 -87 129 -83 z "},"ŀ":{"ha":261,"x_min":0,"x_max":0,"o":"m 69 953 l 69 19 b 89 0 69 6 75 0 l 118 0 b 138 19 132 0 138 6 l 138 953 b 118 972 138 967 132 972 l 89 972 b 69 953 75 972 69 967 z m 219 447 l 263 447 b 281 465 276 447 281 451 l 281 508 b 263 526 281 522 276 526 l 219 526 b 201 508 206 526 201 522 l 201 465 b 219 447 201 451 206 447 z "},"ł":{"ha":283,"x_min":0,"x_max":0,"o":"m 272 622 l 240 622 b 208 599 231 622 226 618 l 176 564 l 176 953 b 157 972 176 967 171 972 l 128 972 b 108 953 114 972 108 967 l 108 492 l -1 374 b 11 349 -12 361 -6 349 l 42 349 b 74 372 53 349 57 356 l 108 410 l 108 19 b 128 0 108 6 114 0 l 157 0 b 176 19 171 0 176 6 l 176 482 l 283 597 b 272 622 296 610 289 622 z "},"m":{"ha":1629,"x_min":0,"x_max":0,"o":"m 1318 700 l 1046 700 b 828 606 918 700 860 664 l 815 606 b 607 700 778 668 708 700 l 349 700 b 147 619 224 700 185 672 l 138 619 l 138 675 b 118 694 138 689 133 694 l 89 694 b 69 675 75 694 69 689 l 69 19 b 89 0 69 6 75 0 l 118 0 b 138 19 132 0 138 6 l 138 458 b 310 635 138 583 197 635 l 608 635 b 781 458 722 635 781 583 l 781 19 b 800 0 781 6 786 0 l 829 0 b 849 19 843 0 849 6 l 849 458 b 1021 635 849 583 908 635 l 1319 635 b 1492 458 1433 635 1492 583 l 1492 19 b 1511 0 1492 6 1497 0 l 1540 0 b 1560 19 1554 0 1560 6 l 1560 461 b 1318 700 1560 619 1479 700 z "},"ḿ":{"ha":1629,"x_min":0,"x_max":0,"o":"m 793 763 l 822 763 b 856 788 836 763 843 772 l 982 947 b 975 972 994 963 990 972 l 918 972 b 886 947 904 972 896 964 l 783 788 b 793 763 774 772 779 763 z m 1318 700 l 1046 700 b 828 606 918 700 860 664 l 815 606 b 607 700 778 668 708 700 l 349 700 b 147 619 224 700 185 672 l 138 619 l 138 675 b 118 694 138 689 133 694 l 89 694 b 69 675 75 694 69 689 l 69 19 b 89 0 69 6 75 0 l 118 0 b 138 19 132 0 138 6 l 138 458 b 310 635 138 583 197 635 l 608 635 b 781 458 722 635 781 583 l 781 19 b 800 0 781 6 786 0 l 829 0 b 849 19 843 0 849 6 l 849 458 b 1021 635 849 583 908 635 l 1319 635 b 1492 458 1433 635 1492 583 l 1492 19 b 1511 0 1492 6 1497 0 l 1540 0 b 1560 19 1554 0 1560 6 l 1560 461 b 1318 700 1560 619 1479 700 z "},"n":{"ha":1025,"x_min":0,"x_max":0,"o":"m 89 0 l 118 0 b 138 19 132 0 138 6 l 138 458 b 310 635 138 583 197 635 l 715 635 b 888 458 829 635 888 583 l 888 19 b 907 0 888 6 893 0 l 936 0 b 956 19 950 0 956 6 l 956 461 b 714 700 956 619 875 700 l 349 700 b 147 619 224 700 185 672 l 138 619 l 138 675 b 118 694 138 689 133 694 l 89 694 b 69 675 75 694 69 689 l 69 19 b 89 0 69 6 75 0 z "},"ń":{"ha":1025,"x_min":0,"x_max":0,"o":"m 585 947 l 482 788 b 492 763 472 772 478 763 l 521 763 b 554 788 535 763 542 772 l 681 947 b 674 972 693 963 689 972 l 617 972 b 585 947 603 972 594 964 z m 89 0 l 118 0 b 138 19 132 0 138 6 l 138 458 b 310 635 138 583 197 635 l 715 635 b 888 458 829 635 888 583 l 888 19 b 907 0 888 6 893 0 l 936 0 b 956 19 950 0 956 6 l 956 461 b 714 700 956 619 875 700 l 349 700 b 147 619 224 700 185 672 l 138 619 l 138 675 b 118 694 138 689 133 694 l 89 694 b 69 675 75 694 69 689 l 69 19 b 89 0 69 6 75 0 z "},"ň":{"ha":1025,"x_min":0,"x_max":0,"o":"m 493 765 l 526 765 b 565 783 542 765 553 768 l 711 950 b 704 972 721 961 718 972 l 671 972 b 636 953 658 972 651 971 l 519 821 l 506 821 l 388 953 b 353 972 372 971 365 972 l 321 972 b 313 950 307 972 303 961 l 458 783 b 493 765 471 769 478 765 z m 89 0 l 118 0 b 138 19 132 0 138 6 l 138 458 b 310 635 138 583 197 635 l 715 635 b 888 458 829 635 888 583 l 888 19 b 907 0 888 6 893 0 l 936 0 b 956 19 950 0 956 6 l 956 461 b 714 700 956 619 875 700 l 349 700 b 147 619 224 700 185 672 l 138 619 l 138 675 b 118 694 138 689 133 694 l 89 694 b 69 675 75 694 69 689 l 69 19 b 89 0 69 6 75 0 z "},"ņ":{"ha":1025,"x_min":0,"x_max":0,"o":"m 89 0 l 118 0 b 138 19 132 0 138 6 l 138 458 b 310 635 138 583 197 635 l 715 635 b 888 458 829 635 888 583 l 888 19 b 907 0 888 6 893 0 l 936 0 b 956 19 950 0 956 6 l 956 461 b 714 700 956 619 875 700 l 349 700 b 147 619 224 700 185 672 l 138 619 l 138 675 b 118 694 138 689 133 694 l 89 694 b 69 675 75 694 69 689 l 69 19 b 89 0 69 6 75 0 z m 525 -83 l 496 -83 b 479 -101 482 -83 479 -87 l 479 -292 l 442 -292 b 424 -308 428 -292 424 -294 l 424 -333 b 442 -350 424 -347 428 -350 l 511 -350 b 542 -319 533 -350 542 -342 l 542 -101 b 525 -83 542 -87 539 -83 z "},"ŋ":{"ha":1025,"x_min":0,"x_max":0,"o":"m 714 700 l 349 700 b 147 619 224 700 185 672 l 138 619 l 138 675 b 118 694 138 689 133 694 l 89 694 b 69 675 75 694 69 689 l 69 19 b 89 0 69 6 75 0 l 118 0 b 138 19 132 0 138 6 l 138 458 b 310 635 138 583 197 635 l 715 635 b 888 458 829 635 888 583 l 888 -35 b 725 -212 888 -161 831 -212 l 667 -212 b 654 -224 660 -212 654 -217 l 654 -262 b 669 -274 654 -268 660 -272 b 724 -278 692 -276 706 -278 b 956 -39 876 -278 956 -197 l 956 461 b 714 700 956 619 875 700 z "},"ñ":{"ha":1025,"x_min":0,"x_max":0,"o":"m 615 849 b 726 883 654 849 690 863 b 736 906 738 890 739 897 l 722 932 b 701 938 718 942 713 944 b 621 911 669 917 647 911 b 410 979 538 911 500 979 b 300 944 372 979 336 967 b 290 924 289 938 286 931 l 304 897 b 324 892 308 886 314 885 b 404 918 356 911 379 918 b 615 849 488 918 526 849 z m 89 0 l 118 0 b 138 19 132 0 138 6 l 138 458 b 310 635 138 583 197 635 l 715 635 b 888 458 829 635 888 583 l 888 19 b 907 0 888 6 893 0 l 936 0 b 956 19 950 0 956 6 l 956 461 b 714 700 956 619 875 700 l 349 700 b 147 619 224 700 185 672 l 138 619 l 138 675 b 118 694 138 689 133 694 l 89 694 b 69 675 75 694 69 689 l 69 19 b 89 0 69 6 75 0 z "},"o":{"ha":1011,"x_min":0,"x_max":0,"o":"m 303 -7 l 708 -7 b 949 229 869 -7 949 72 l 949 463 b 708 700 949 621 869 700 l 303 700 b 63 463 142 700 63 621 l 63 229 b 303 -7 63 72 142 -7 z m 303 60 b 131 233 189 60 131 110 l 131 458 b 303 635 131 583 189 635 l 708 635 b 881 458 822 635 881 583 l 881 233 b 708 60 881 110 822 60 z "},"ó":{"ha":1011,"x_min":0,"x_max":0,"o":"m 579 947 l 476 788 b 486 763 467 772 472 763 l 515 763 b 549 788 529 763 536 772 l 675 947 b 668 972 688 963 683 972 l 611 972 b 579 947 597 972 589 964 z m 303 -7 l 708 -7 b 949 229 869 -7 949 72 l 949 463 b 708 700 949 621 869 700 l 303 700 b 63 463 142 700 63 621 l 63 229 b 303 -7 63 72 142 -7 z m 303 60 b 131 233 189 60 131 110 l 131 458 b 303 635 131 583 189 635 l 708 635 b 881 458 822 635 881 583 l 881 233 b 708 60 881 110 822 60 z "},"ǒ":{"ha":1011,"x_min":0,"x_max":0,"o":"m 489 765 l 522 765 b 561 783 538 765 549 768 l 707 950 b 700 972 717 961 714 972 l 667 972 b 632 953 654 972 647 971 l 515 821 l 501 821 l 383 953 b 349 972 368 971 361 972 l 317 972 b 308 950 303 972 299 961 l 454 783 b 489 765 467 769 474 765 z m 303 -7 l 708 -7 b 949 229 869 -7 949 72 l 949 463 b 708 700 949 621 869 700 l 303 700 b 63 463 142 700 63 621 l 63 229 b 303 -7 63 72 142 -7 z m 303 60 b 131 233 189 60 131 110 l 131 458 b 303 635 131 583 189 635 l 708 635 b 881 458 822 635 881 583 l 881 233 b 708 60 881 110 822 60 z "},"ô":{"ha":1011,"x_min":0,"x_max":0,"o":"m 489 972 b 454 954 474 972 467 968 l 308 788 b 317 765 299 776 303 765 l 349 765 b 383 786 361 765 368 768 l 501 918 l 515 918 l 632 786 b 667 765 647 768 654 765 l 700 765 b 707 788 714 765 717 776 l 561 954 b 522 972 549 969 538 972 z m 303 -7 l 708 -7 b 949 229 869 -7 949 72 l 949 463 b 708 700 949 621 869 700 l 303 700 b 63 463 142 700 63 621 l 63 229 b 303 -7 63 72 142 -7 z m 303 60 b 131 233 189 60 131 110 l 131 458 b 303 635 131 583 189 635 l 708 635 b 881 458 822 635 881 583 l 881 233 b 708 60 881 110 822 60 z "},"ö":{"ha":1011,"x_min":0,"x_max":0,"o":"m 307 893 l 350 893 b 368 911 364 893 368 897 l 368 954 b 350 972 368 968 364 972 l 307 972 b 289 954 293 972 289 968 l 289 911 b 307 893 289 897 293 893 z m 631 893 l 674 893 b 692 911 688 893 692 897 l 692 954 b 674 972 692 968 688 972 l 631 972 b 613 954 617 972 613 968 l 613 911 b 631 893 613 897 617 893 z m 303 -7 l 708 -7 b 949 229 869 -7 949 72 l 949 463 b 708 700 949 621 869 700 l 303 700 b 63 463 142 700 63 621 l 63 229 b 303 -7 63 72 142 -7 z m 303 60 b 131 233 189 60 131 110 l 131 458 b 303 635 131 583 189 635 l 708 635 b 881 458 822 635 881 583 l 881 233 b 708 60 881 110 822 60 z "},"ò":{"ha":1011,"x_min":0,"x_max":0,"o":"m 435 947 b 406 972 425 964 419 972 l 351 972 b 338 947 336 972 325 963 l 463 785 b 494 763 475 769 481 763 l 524 763 b 535 788 538 763 544 772 z m 303 -7 l 708 -7 b 949 229 869 -7 949 72 l 949 463 b 708 700 949 621 869 700 l 303 700 b 63 463 142 700 63 621 l 63 229 b 303 -7 63 72 142 -7 z m 303 60 b 131 233 189 60 131 110 l 131 458 b 303 635 131 583 189 635 l 708 635 b 881 458 822 635 881 583 l 881 233 b 708 60 881 110 822 60 z "},"ő":{"ha":1011,"x_min":0,"x_max":0,"o":"m 500 947 l 397 788 b 407 763 388 772 393 763 l 436 763 b 469 788 450 763 457 772 l 596 947 b 589 972 608 963 604 972 l 532 972 b 500 947 518 972 510 964 z m 667 947 l 564 788 b 574 763 554 772 560 763 l 603 763 b 636 788 617 763 624 772 l 763 947 b 756 972 775 963 772 972 l 699 972 b 667 947 685 972 676 964 z m 303 -7 l 708 -7 b 949 229 869 -7 949 72 l 949 463 b 708 700 949 621 869 700 l 303 700 b 63 463 142 700 63 621 l 63 229 b 303 -7 63 72 142 -7 z m 303 60 b 131 233 189 60 131 110 l 131 458 b 303 635 131 583 189 635 l 708 635 b 881 458 822 635 881 583 l 881 233 b 708 60 881 110 822 60 z "},"ō":{"ha":1011,"x_min":0,"x_max":0,"o":"m 282 906 l 732 906 b 753 926 744 906 753 913 l 753 951 b 732 972 753 965 744 972 l 282 972 b 261 951 268 972 261 965 l 261 926 b 282 906 261 913 268 906 z m 303 -7 l 708 -7 b 949 229 869 -7 949 72 l 949 463 b 708 700 949 621 869 700 l 303 700 b 63 463 142 700 63 621 l 63 229 b 303 -7 63 72 142 -7 z m 303 60 b 131 233 189 60 131 110 l 131 458 b 303 635 131 583 189 635 l 708 635 b 881 458 822 635 881 583 l 881 233 b 708 60 881 110 822 60 z "},"ø":{"ha":1011,"x_min":0,"x_max":0,"o":"m 708 700 l 685 700 l 692 718 b 678 739 697 732 692 739 l 653 739 b 625 718 639 739 631 732 l 618 700 l 303 700 b 63 463 142 700 63 621 l 63 229 b 303 -7 63 72 142 -7 l 328 -7 l 321 -25 b 335 -46 315 -39 321 -46 l 360 -46 b 388 -25 374 -46 382 -39 l 394 -7 l 708 -7 b 949 229 869 -7 949 72 l 949 463 b 708 700 949 621 869 700 z m 303 58 b 131 233 189 58 131 110 l 131 457 b 303 633 131 582 189 633 l 590 633 l 356 58 z m 881 233 b 708 58 881 110 822 58 l 422 58 l 657 633 l 708 633 b 881 457 822 633 881 582 z "},"õ":{"ha":1011,"x_min":0,"x_max":0,"o":"m 610 849 b 721 883 649 849 685 863 b 731 906 732 890 733 897 l 717 932 b 696 938 713 942 707 944 b 615 911 664 917 642 911 b 404 979 532 911 494 979 b 294 944 367 979 331 967 b 285 924 283 938 281 931 l 299 897 b 318 892 303 886 308 885 b 399 918 350 911 374 918 b 610 849 482 918 521 849 z m 303 -7 l 708 -7 b 949 229 869 -7 949 72 l 949 463 b 708 700 949 621 869 700 l 303 700 b 63 463 142 700 63 621 l 63 229 b 303 -7 63 72 142 -7 z m 303 60 b 131 233 189 60 131 110 l 131 458 b 303 635 131 583 189 635 l 708 635 b 881 458 822 635 881 583 l 881 233 b 708 60 881 110 822 60 z "},"œ":{"ha":1828,"x_min":0,"x_max":0,"o":"m 1525 700 l 1121 700 b 915 608 1021 700 951 669 b 708 700 878 669 808 700 l 303 700 b 63 463 142 700 63 621 l 63 229 b 303 -7 63 72 142 -7 l 708 -7 b 915 85 808 -7 878 24 b 1121 -7 951 24 1021 -7 l 1507 -7 b 1744 67 1664 -7 1710 26 b 1747 89 1753 78 1756 85 l 1718 103 b 1692 101 1707 110 1701 108 b 1508 60 1646 65 1613 60 l 1121 60 b 949 233 1007 60 949 111 l 949 318 l 1714 318 b 1765 368 1754 318 1765 329 l 1765 461 b 1525 700 1765 617 1686 700 z m 708 60 l 303 60 b 131 233 189 60 131 110 l 131 458 b 303 635 131 583 189 635 l 708 635 b 881 458 822 635 881 583 l 881 233 b 708 60 881 110 822 60 z m 1697 376 l 949 376 l 949 458 b 1121 635 949 583 1007 635 l 1525 635 b 1697 458 1639 635 1697 583 z "},"p":{"ha":1018,"x_min":0,"x_max":0,"o":"m 118 -246 b 138 -226 133 -246 138 -240 l 138 74 l 147 74 b 349 -7 185 21 224 -7 l 714 -7 b 956 232 875 -7 956 74 l 956 463 b 714 700 956 619 875 700 l 349 700 b 147 619 224 700 185 672 l 138 619 l 138 675 b 118 694 138 689 132 694 l 89 694 b 69 675 75 694 69 689 l 69 -226 b 89 -246 69 -240 75 -246 z m 714 60 l 313 60 b 138 235 197 60 138 110 l 138 460 b 313 635 138 583 197 635 l 714 635 b 888 460 829 635 888 583 l 888 235 b 714 60 888 110 829 60 z "},"þ":{"ha":1018,"x_min":0,"x_max":0,"o":"m 710 700 l 326 700 b 138 597 224 700 165 663 l 138 988 b 117 1008 138 1001 131 1008 l 90 1008 b 69 988 76 1008 69 1001 l 69 -257 b 90 -278 69 -271 76 -278 l 117 -278 b 138 -257 131 -278 138 -271 l 138 106 b 326 -7 165 38 224 -7 l 710 -7 b 956 249 854 -7 956 94 l 956 447 b 710 700 956 604 854 700 z m 888 243 b 708 60 888 124 824 60 l 317 60 b 138 243 201 60 138 124 l 138 443 b 317 635 138 572 201 635 l 708 635 b 888 443 824 635 888 572 z "},"q":{"ha":1018,"x_min":0,"x_max":0,"o":"m 900 -246 l 929 -246 b 949 -226 943 -246 949 -240 l 949 675 b 929 694 949 689 943 694 l 900 694 b 881 675 886 694 881 689 l 881 619 l 871 619 b 671 700 833 672 794 700 l 304 700 b 63 463 144 700 63 619 l 63 232 b 304 -7 63 74 144 -7 l 671 -7 b 871 74 794 -7 833 21 l 881 74 l 881 -226 b 900 -246 881 -240 885 -246 z m 304 60 b 131 235 189 60 131 110 l 131 460 b 304 635 131 583 189 635 l 706 635 b 881 460 822 635 881 583 l 881 235 b 706 60 881 110 822 60 z "},"r":{"ha":996,"x_min":0,"x_max":0,"o":"m 89 0 l 118 0 b 138 19 132 0 138 6 l 138 458 b 310 635 138 583 197 635 l 714 635 b 874 532 832 635 868 604 b 896 514 875 519 881 514 l 922 514 b 943 540 938 514 943 521 b 721 700 943 640 881 700 l 349 700 b 147 619 224 700 185 672 l 138 619 l 138 675 b 118 694 138 689 133 694 l 89 694 b 69 675 75 694 69 689 l 69 19 b 89 0 69 6 75 0 z "},"ŕ":{"ha":996,"x_min":0,"x_max":0,"o":"m 576 947 l 474 788 b 483 763 464 772 469 763 l 513 763 b 546 788 526 763 533 772 l 672 947 b 665 972 685 963 681 972 l 608 972 b 576 947 594 972 586 964 z m 89 0 l 118 0 b 138 19 132 0 138 6 l 138 458 b 310 635 138 583 197 635 l 714 635 b 874 532 832 635 868 604 b 896 514 875 519 881 514 l 922 514 b 943 540 938 514 943 521 b 721 700 943 640 881 700 l 349 700 b 147 619 224 700 185 672 l 138 619 l 138 675 b 118 694 138 689 133 694 l 89 694 b 69 675 75 694 69 689 l 69 19 b 89 0 69 6 75 0 z "},"ř":{"ha":996,"x_min":0,"x_max":0,"o":"m 486 765 l 519 765 b 558 783 535 765 546 768 l 704 950 b 697 972 714 961 711 972 l 664 972 b 629 953 651 972 644 971 l 513 821 l 499 821 l 381 953 b 346 972 365 971 358 972 l 314 972 b 306 950 300 972 296 961 l 451 783 b 486 765 464 769 471 765 z m 89 0 l 118 0 b 138 19 132 0 138 6 l 138 458 b 310 635 138 583 197 635 l 714 635 b 874 532 832 635 868 604 b 896 514 875 519 881 514 l 922 514 b 943 540 938 514 943 521 b 721 700 943 640 881 700 l 349 700 b 147 619 224 700 185 672 l 138 619 l 138 675 b 118 694 138 689 133 694 l 89 694 b 69 675 75 694 69 689 l 69 19 b 89 0 69 6 75 0 z "},"ŗ":{"ha":996,"x_min":0,"x_max":0,"o":"m 89 0 l 118 0 b 138 19 132 0 138 6 l 138 458 b 310 635 138 583 197 635 l 714 635 b 874 532 832 635 868 604 b 896 514 875 519 881 514 l 922 514 b 943 540 938 514 943 521 b 721 700 943 640 881 700 l 349 700 b 147 619 224 700 185 672 l 138 619 l 138 675 b 118 694 138 689 133 694 l 89 694 b 69 675 75 694 69 689 l 69 19 b 89 0 69 6 75 0 z m 121 -83 l 92 -83 b 75 -101 78 -83 75 -87 l 75 -292 l 38 -292 b 19 -308 24 -292 19 -294 l 19 -333 b 38 -350 19 -347 24 -350 l 107 -350 b 138 -319 129 -350 138 -342 l 138 -101 b 121 -83 138 -87 135 -83 z "},"s":{"ha":1011,"x_min":0,"x_max":0,"o":"m 286 0 l 724 0 b 949 182 860 0 949 57 b 729 369 949 310 874 364 l 289 388 b 133 514 188 392 133 418 b 293 632 133 604 197 632 l 696 632 b 856 524 813 632 850 597 b 876 507 857 511 861 507 l 903 507 b 924 533 918 507 924 513 b 701 694 924 632 861 694 l 290 694 b 65 514 154 694 65 638 b 285 328 65 388 140 332 l 726 310 b 881 182 826 304 881 279 b 721 64 881 90 817 64 l 292 64 b 131 171 174 64 138 97 b 110 188 129 183 125 188 l 83 188 b 63 163 68 188 63 182 b 286 0 63 63 125 0 z "},"ś":{"ha":1011,"x_min":0,"x_max":0,"o":"m 576 947 l 474 788 b 483 763 464 772 469 763 l 513 763 b 546 788 526 763 533 772 l 672 947 b 665 972 685 963 681 972 l 608 972 b 576 947 594 972 586 964 z m 286 0 l 724 0 b 949 182 860 0 949 57 b 729 369 949 310 874 364 l 289 388 b 133 514 188 392 133 418 b 293 632 133 604 197 632 l 696 632 b 856 524 813 632 850 597 b 876 507 857 511 861 507 l 903 507 b 924 533 918 507 924 513 b 701 694 924 632 861 694 l 290 694 b 65 514 154 694 65 638 b 285 328 65 388 140 332 l 726 310 b 881 182 826 304 881 279 b 721 64 881 90 817 64 l 292 64 b 131 171 174 64 138 97 b 110 188 129 183 125 188 l 83 188 b 63 163 68 188 63 182 b 286 0 63 63 125 0 z "},"š":{"ha":1011,"x_min":0,"x_max":0,"o":"m 486 765 l 519 765 b 558 783 535 765 546 768 l 704 950 b 697 972 714 961 711 972 l 664 972 b 629 953 651 972 644 971 l 513 821 l 499 821 l 381 953 b 346 972 365 971 358 972 l 314 972 b 306 950 300 972 296 961 l 451 783 b 486 765 464 769 471 765 z m 286 0 l 724 0 b 949 182 860 0 949 57 b 729 369 949 310 874 364 l 289 388 b 133 514 188 392 133 418 b 293 632 133 604 197 632 l 696 632 b 856 524 813 632 850 597 b 876 507 857 511 861 507 l 903 507 b 924 533 918 507 924 513 b 701 694 924 632 861 694 l 290 694 b 65 514 154 694 65 638 b 285 328 65 388 140 332 l 726 310 b 881 182 826 304 881 279 b 721 64 881 90 817 64 l 292 64 b 131 171 174 64 138 97 b 110 188 129 183 125 188 l 83 188 b 63 163 68 188 63 182 b 286 0 63 63 125 0 z "},"ş":{"ha":1011,"x_min":0,"x_max":0,"o":"m 729 369 l 289 388 b 133 514 188 392 133 418 b 293 632 133 604 197 632 l 696 632 b 856 524 813 632 850 597 b 876 507 857 511 861 507 l 903 507 b 924 533 918 507 924 513 b 701 694 924 632 861 694 l 290 694 b 65 514 154 694 65 638 b 285 328 65 388 140 332 l 726 310 b 881 182 826 304 881 279 b 721 64 881 90 817 64 l 292 64 b 131 171 174 64 138 97 b 110 188 129 183 125 188 l 83 188 b 63 163 68 188 63 182 b 286 0 63 63 125 0 l 468 0 b 415 -82 428 -39 415 -60 b 469 -129 415 -112 440 -126 b 610 -176 568 -140 610 -142 b 538 -224 610 -217 590 -224 l 508 -224 b 435 -167 451 -224 433 -208 b 421 -156 435 -160 428 -156 l 388 -156 b 375 -169 378 -156 375 -161 b 494 -276 375 -239 404 -276 l 550 -276 b 671 -178 639 -276 671 -246 b 524 -82 671 -90 601 -92 b 538 0 482 -78 465 -72 l 724 0 b 949 182 860 0 949 57 b 729 369 949 310 874 364 z "},"ș":{"ha":1011,"x_min":0,"x_max":0,"o":"m 286 0 l 724 0 b 949 182 860 0 949 57 b 729 369 949 310 874 364 l 289 388 b 133 514 188 392 133 418 b 293 632 133 604 197 632 l 696 632 b 856 524 813 632 850 597 b 876 507 857 511 861 507 l 903 507 b 924 533 918 507 924 513 b 701 694 924 632 861 694 l 290 694 b 65 514 154 694 65 638 b 285 328 65 388 140 332 l 726 310 b 881 182 826 304 881 279 b 721 64 881 90 817 64 l 292 64 b 131 171 174 64 138 97 b 110 188 129 183 125 188 l 83 188 b 63 163 68 188 63 182 b 286 0 63 63 125 0 z m 518 -83 l 489 -83 b 472 -101 475 -83 472 -87 l 472 -292 l 435 -292 b 417 -308 421 -292 417 -294 l 417 -333 b 435 -350 417 -347 421 -350 l 504 -350 b 535 -319 526 -350 535 -342 l 535 -101 b 518 -83 535 -87 532 -83 z "},"ß":{"ha":1254,"x_min":0,"x_max":0,"o":"m 1021 551 b 1142 750 1088 576 1142 626 l 1142 807 b 915 1022 1142 950 1063 1022 l 303 1022 b 90 804 153 1022 90 949 l 92 21 b 113 0 92 7 99 0 l 142 0 b 163 21 156 0 163 7 l 164 804 b 303 957 164 907 190 957 l 915 957 b 1071 807 1014 957 1071 914 l 1071 751 b 899 579 1071 640 1015 579 l 360 579 b 339 558 346 579 339 572 l 339 533 b 360 513 339 519 346 513 l 899 513 b 1121 346 1021 513 1121 472 l 1121 232 b 911 67 1121 86 1071 67 l 360 67 b 339 46 346 67 339 60 l 339 21 b 360 0 339 7 346 0 l 919 0 b 1192 239 1108 0 1192 42 l 1192 329 b 1021 551 1192 492 1114 531 z "},"t":{"ha":725,"x_min":0,"x_max":0,"o":"m 419 0 l 642 0 b 663 21 656 0 663 7 l 663 46 b 640 67 663 60 656 67 l 419 67 b 246 240 304 67 246 117 l 246 629 l 643 629 b 663 647 658 629 663 633 l 663 675 b 642 694 663 689 657 694 l 246 694 l 246 776 b 226 796 246 790 240 796 l 197 796 b 178 776 183 796 178 790 l 178 694 l 61 694 b 42 674 47 694 42 689 l 42 647 b 61 629 42 633 47 629 l 178 629 l 178 238 b 419 0 178 81 258 0 z "},"ŧ":{"ha":732,"x_min":0,"x_max":0,"o":"m 649 460 l 246 460 l 246 629 l 643 629 b 663 647 658 629 663 633 l 663 675 b 642 694 663 689 657 694 l 246 694 l 246 776 b 226 796 246 790 240 796 l 197 796 b 178 776 183 796 178 790 l 178 694 l 61 694 b 42 674 47 694 42 689 l 42 647 b 61 629 42 633 47 629 l 178 629 l 178 460 l 69 460 b 49 439 56 460 49 453 l 49 414 b 69 393 49 400 56 393 l 178 393 l 178 238 b 419 0 178 81 258 0 l 642 0 b 663 21 656 0 663 7 l 663 46 b 640 67 663 60 656 67 l 419 67 b 246 240 304 67 246 117 l 246 393 l 649 393 b 669 414 661 393 669 400 l 669 439 b 649 460 669 453 661 460 z "},"ť":{"ha":725,"x_min":0,"x_max":0,"o":"m 399 1017 l 371 1017 b 354 999 357 1017 354 1013 l 354 808 l 317 808 b 299 790 303 808 299 804 l 299 767 b 317 749 299 753 303 749 l 386 749 b 417 781 408 749 417 758 l 417 999 b 399 1017 417 1013 413 1017 z m 419 0 l 642 0 b 663 21 656 0 663 7 l 663 46 b 640 67 663 60 656 67 l 419 67 b 246 240 304 67 246 117 l 246 629 l 643 629 b 663 647 658 629 663 633 l 663 675 b 642 694 663 689 657 694 l 246 694 l 246 776 b 226 796 246 790 240 796 l 197 796 b 178 776 183 796 178 790 l 178 694 l 61 694 b 42 674 47 694 42 689 l 42 647 b 61 629 42 633 47 629 l 178 629 l 178 238 b 419 0 178 81 258 0 z "},"ţ":{"ha":738,"x_min":0,"x_max":0,"o":"m 643 629 b 663 647 658 629 663 633 l 663 675 b 642 694 663 689 657 694 l 246 694 l 246 776 b 226 796 246 790 240 796 l 197 796 b 178 776 183 796 178 790 l 178 694 l 61 694 b 42 674 47 694 42 689 l 42 647 b 61 629 42 633 47 629 l 178 629 l 178 238 b 419 0 178 81 258 0 l 442 0 b 389 -82 401 -39 389 -60 b 443 -129 389 -112 414 -126 b 583 -176 542 -140 583 -142 b 511 -224 583 -217 564 -224 l 482 -224 b 408 -167 425 -224 407 -208 b 394 -156 408 -160 401 -156 l 361 -156 b 349 -169 351 -156 349 -161 b 468 -276 349 -239 378 -276 l 524 -276 b 644 -178 613 -276 644 -246 b 497 -82 644 -90 575 -92 b 511 0 456 -78 439 -72 l 642 0 b 663 21 656 0 663 7 l 663 46 b 640 67 663 60 656 67 l 419 67 b 246 240 304 67 246 117 l 246 629 z "},"ț":{"ha":725,"x_min":0,"x_max":0,"o":"m 419 0 l 642 0 b 663 21 656 0 663 7 l 663 46 b 640 67 663 60 656 67 l 419 67 b 246 240 304 67 246 117 l 246 629 l 643 629 b 663 647 658 629 663 633 l 663 675 b 642 694 663 689 657 694 l 246 694 l 246 776 b 226 796 246 790 240 796 l 197 796 b 178 776 183 796 178 790 l 178 694 l 61 694 b 42 674 47 694 42 689 l 42 647 b 61 629 42 633 47 629 l 178 629 l 178 238 b 419 0 178 81 258 0 z m 463 -83 l 433 -83 b 417 -101 419 -83 417 -87 l 417 -292 l 379 -292 b 361 -308 365 -292 361 -294 l 361 -333 b 379 -350 361 -347 365 -350 l 449 -350 b 479 -319 471 -350 479 -342 l 479 -101 b 463 -83 479 -87 476 -83 z "},"u":{"ha":1025,"x_min":0,"x_max":0,"o":"m 936 694 l 907 694 b 888 675 893 694 888 689 l 888 236 b 715 61 888 111 829 61 l 310 61 b 138 236 196 61 138 111 l 138 675 b 118 694 138 689 132 694 l 89 694 b 69 675 75 694 69 689 l 69 233 b 311 -6 69 75 151 -6 l 678 -6 b 878 75 801 -6 840 22 l 888 75 l 888 19 b 907 0 888 6 892 0 l 936 0 b 956 19 950 0 956 6 l 956 675 b 936 694 956 689 950 694 z "},"ú":{"ha":1025,"x_min":0,"x_max":0,"o":"m 585 947 l 482 788 b 492 763 472 772 478 763 l 521 763 b 554 788 535 763 542 772 l 681 947 b 674 972 693 963 689 972 l 617 972 b 585 947 603 972 594 964 z m 936 694 l 907 694 b 888 675 893 694 888 689 l 888 236 b 715 61 888 111 829 61 l 310 61 b 138 236 196 61 138 111 l 138 675 b 118 694 138 689 132 694 l 89 694 b 69 675 75 694 69 689 l 69 233 b 311 -6 69 75 151 -6 l 678 -6 b 878 75 801 -6 840 22 l 888 75 l 888 19 b 907 0 888 6 892 0 l 936 0 b 956 19 950 0 956 6 l 956 675 b 936 694 956 689 950 694 z "},"ŭ":{"ha":1025,"x_min":0,"x_max":0,"o":"m 486 790 l 536 790 b 694 958 643 790 694 847 b 678 972 694 968 692 972 l 653 972 b 635 958 639 972 635 968 b 535 846 635 893 600 846 l 488 846 b 388 958 424 846 389 893 b 369 972 388 968 383 972 l 346 972 b 328 958 332 972 328 968 b 486 790 328 847 383 790 z m 936 694 l 907 694 b 888 675 893 694 888 689 l 888 236 b 715 61 888 111 829 61 l 310 61 b 138 236 196 61 138 111 l 138 675 b 118 694 138 689 132 694 l 89 694 b 69 675 75 694 69 689 l 69 233 b 311 -6 69 75 151 -6 l 678 -6 b 878 75 801 -6 840 22 l 888 75 l 888 19 b 907 0 888 6 892 0 l 936 0 b 956 19 950 0 956 6 l 956 675 b 936 694 956 689 950 694 z "},"ǔ":{"ha":1025,"x_min":0,"x_max":0,"o":"m 493 765 l 526 765 b 565 783 542 765 553 768 l 711 950 b 704 972 721 961 718 972 l 671 972 b 636 953 658 972 651 971 l 519 821 l 506 821 l 388 953 b 353 972 372 971 365 972 l 321 972 b 313 950 307 972 303 961 l 458 783 b 493 765 471 769 478 765 z m 936 694 l 907 694 b 888 675 893 694 888 689 l 888 236 b 715 61 888 111 829 61 l 310 61 b 138 236 196 61 138 111 l 138 675 b 118 694 138 689 132 694 l 89 694 b 69 675 75 694 69 689 l 69 233 b 311 -6 69 75 151 -6 l 678 -6 b 878 75 801 -6 840 22 l 888 75 l 888 19 b 907 0 888 6 892 0 l 936 0 b 956 19 950 0 956 6 l 956 675 b 936 694 956 689 950 694 z "},"û":{"ha":1025,"x_min":0,"x_max":0,"o":"m 493 972 b 458 954 478 972 471 968 l 313 788 b 321 765 303 776 307 765 l 353 765 b 388 786 365 765 372 768 l 506 918 l 519 918 l 636 786 b 671 765 651 768 658 765 l 704 765 b 711 788 718 765 721 776 l 565 954 b 526 972 553 969 542 972 z m 936 694 l 907 694 b 888 675 893 694 888 689 l 888 236 b 715 61 888 111 829 61 l 310 61 b 138 236 196 61 138 111 l 138 675 b 118 694 138 689 132 694 l 89 694 b 69 675 75 694 69 689 l 69 233 b 311 -6 69 75 151 -6 l 678 -6 b 878 75 801 -6 840 22 l 888 75 l 888 19 b 907 0 888 6 892 0 l 936 0 b 956 19 950 0 956 6 l 956 675 b 936 694 956 689 950 694 z "},"ü":{"ha":1025,"x_min":0,"x_max":0,"o":"m 313 893 l 356 893 b 374 911 369 893 374 897 l 374 954 b 356 972 374 968 369 972 l 313 972 b 294 954 299 972 294 968 l 294 911 b 313 893 294 897 299 893 z m 636 893 l 679 893 b 697 911 693 893 697 897 l 697 954 b 679 972 697 968 693 972 l 636 972 b 618 954 622 972 618 968 l 618 911 b 636 893 618 897 622 893 z m 936 694 l 907 694 b 888 675 893 694 888 689 l 888 236 b 715 61 888 111 829 61 l 310 61 b 138 236 196 61 138 111 l 138 675 b 118 694 138 689 132 694 l 89 694 b 69 675 75 694 69 689 l 69 233 b 311 -6 69 75 151 -6 l 678 -6 b 878 75 801 -6 840 22 l 888 75 l 888 19 b 907 0 888 6 892 0 l 936 0 b 956 19 950 0 956 6 l 956 675 b 936 694 956 689 950 694 z "},"ù":{"ha":1025,"x_min":0,"x_max":0,"o":"m 440 947 b 411 972 431 964 425 972 l 357 972 b 343 947 342 972 331 963 l 468 785 b 500 763 481 769 486 763 l 529 763 b 540 788 543 763 550 772 z m 936 694 l 907 694 b 888 675 893 694 888 689 l 888 236 b 715 61 888 111 829 61 l 310 61 b 138 236 196 61 138 111 l 138 675 b 118 694 138 689 132 694 l 89 694 b 69 675 75 694 69 689 l 69 233 b 311 -6 69 75 151 -6 l 678 -6 b 878 75 801 -6 840 22 l 888 75 l 888 19 b 907 0 888 6 892 0 l 936 0 b 956 19 950 0 956 6 l 956 675 b 936 694 956 689 950 694 z "},"ű":{"ha":1025,"x_min":0,"x_max":0,"o":"m 506 947 l 403 788 b 413 763 393 772 399 763 l 442 763 b 475 788 456 763 463 772 l 601 947 b 594 972 614 963 610 972 l 538 972 b 506 947 524 972 515 964 z m 672 947 l 569 788 b 579 763 560 772 565 763 l 608 763 b 642 788 622 763 629 772 l 768 947 b 761 972 781 963 778 972 l 704 972 b 672 947 690 972 682 964 z m 936 694 l 907 694 b 888 675 893 694 888 689 l 888 236 b 715 61 888 111 829 61 l 310 61 b 138 236 196 61 138 111 l 138 675 b 118 694 138 689 132 694 l 89 694 b 69 675 75 694 69 689 l 69 233 b 311 -6 69 75 151 -6 l 678 -6 b 878 75 801 -6 840 22 l 888 75 l 888 19 b 907 0 888 6 892 0 l 936 0 b 956 19 950 0 956 6 l 956 675 b 936 694 956 689 950 694 z "},"ū":{"ha":1025,"x_min":0,"x_max":0,"o":"m 288 906 l 738 906 b 758 926 750 906 758 913 l 758 951 b 738 972 758 965 750 972 l 288 972 b 267 951 274 972 267 965 l 267 926 b 288 906 267 913 274 906 z m 936 694 l 907 694 b 888 675 893 694 888 689 l 888 236 b 715 61 888 111 829 61 l 310 61 b 138 236 196 61 138 111 l 138 675 b 118 694 138 689 132 694 l 89 694 b 69 675 75 694 69 689 l 69 233 b 311 -6 69 75 151 -6 l 678 -6 b 878 75 801 -6 840 22 l 888 75 l 888 19 b 907 0 888 6 892 0 l 936 0 b 956 19 950 0 956 6 l 956 675 b 936 694 956 689 950 694 z "},"ų":{"ha":1025,"x_min":0,"x_max":0,"o":"m 936 694 l 907 694 b 888 675 893 694 888 689 l 888 236 b 715 61 888 111 829 61 l 310 61 b 138 236 196 61 138 111 l 138 675 b 118 694 138 689 132 694 l 89 694 b 69 675 75 694 69 689 l 69 233 b 311 -6 69 75 151 -6 l 529 -6 b 429 -56 521 -43 492 -46 b 317 -157 353 -65 317 -69 b 436 -261 317 -233 347 -261 l 575 -261 b 589 -247 585 -261 589 -256 l 589 -215 b 575 -201 589 -206 583 -201 l 446 -201 b 381 -156 390 -201 381 -194 b 410 -112 381 -118 392 -117 b 521 -99 432 -110 472 -104 b 599 -6 579 -93 594 -60 l 678 -6 b 878 75 801 -6 840 22 l 888 75 l 888 19 b 907 0 888 6 892 0 l 936 0 b 956 19 950 0 956 6 l 956 675 b 936 694 956 689 950 694 z "},"ů":{"ha":1025,"x_min":0,"x_max":0,"o":"m 521 994 l 503 994 b 386 878 435 994 386 943 l 386 863 b 503 747 386 797 435 747 l 521 747 b 638 863 589 747 638 797 l 638 878 b 521 994 638 943 589 994 z m 582 876 l 582 865 b 518 801 582 825 560 801 l 506 801 b 442 865 464 801 442 825 l 442 876 b 506 940 442 917 464 940 l 518 940 b 582 876 560 940 582 917 z m 936 694 l 907 694 b 888 675 893 694 888 689 l 888 236 b 715 61 888 111 829 61 l 310 61 b 138 236 196 61 138 111 l 138 675 b 118 694 138 689 132 694 l 89 694 b 69 675 75 694 69 689 l 69 233 b 311 -6 69 75 151 -6 l 678 -6 b 878 75 801 -6 840 22 l 888 75 l 888 19 b 907 0 888 6 892 0 l 936 0 b 956 19 950 0 956 6 l 956 675 b 936 694 956 689 950 694 z "},"ũ":{"ha":1025,"x_min":0,"x_max":0,"o":"m 615 849 b 726 883 654 849 690 863 b 736 906 738 890 739 897 l 722 932 b 701 938 718 942 713 944 b 621 911 669 917 647 911 b 410 979 538 911 500 979 b 300 944 372 979 336 967 b 290 924 289 938 286 931 l 304 897 b 324 892 308 886 314 885 b 404 918 356 911 379 918 b 615 849 488 918 526 849 z m 936 694 l 907 694 b 888 675 893 694 888 689 l 888 236 b 715 61 888 111 829 61 l 310 61 b 138 236 196 61 138 111 l 138 675 b 118 694 138 689 132 694 l 89 694 b 69 675 75 694 69 689 l 69 233 b 311 -6 69 75 151 -6 l 678 -6 b 878 75 801 -6 840 22 l 888 75 l 888 19 b 907 0 888 6 892 0 l 936 0 b 956 19 950 0 956 6 l 956 675 b 936 694 956 689 950 694 z "},"v":{"ha":1046,"x_min":0,"x_max":0,"o":"m 53 671 l 474 25 b 504 0 483 10 493 0 l 540 0 b 571 25 553 0 561 10 l 992 671 b 981 694 1001 686 994 694 l 939 694 b 913 671 925 694 919 685 l 529 78 l 515 78 l 133 671 b 107 694 125 685 119 694 l 65 694 b 53 671 51 694 43 686 z "},"w":{"ha":1783,"x_min":0,"x_max":0,"o":"m 1718 694 l 1678 694 b 1651 671 1664 694 1660 685 l 1303 78 l 1289 78 l 938 671 b 911 694 929 685 921 694 l 872 694 b 846 671 865 694 857 689 l 494 78 l 481 78 l 132 671 b 106 694 124 685 118 694 l 65 694 b 53 671 51 694 43 686 l 436 25 b 465 0 446 10 454 0 l 507 0 b 538 25 519 0 528 10 l 892 621 l 1246 25 b 1276 0 1256 10 1264 0 l 1317 0 b 1347 25 1329 0 1338 10 l 1731 671 b 1718 694 1740 686 1732 694 z "},"ẃ":{"ha":1783,"x_min":0,"x_max":0,"o":"m 964 947 l 861 788 b 871 763 851 772 857 763 l 900 763 b 933 788 914 763 921 772 l 1060 947 b 1053 972 1072 963 1068 972 l 996 972 b 964 947 982 972 974 964 z m 1718 694 l 1678 694 b 1651 671 1664 694 1660 685 l 1303 78 l 1289 78 l 938 671 b 911 694 929 685 921 694 l 872 694 b 846 671 865 694 857 689 l 494 78 l 481 78 l 132 671 b 106 694 124 685 118 694 l 65 694 b 53 671 51 694 43 686 l 436 25 b 465 0 446 10 454 0 l 507 0 b 538 25 519 0 528 10 l 892 621 l 1246 25 b 1276 0 1256 10 1264 0 l 1317 0 b 1347 25 1329 0 1338 10 l 1731 671 b 1718 694 1740 686 1732 694 z "},"ŵ":{"ha":1783,"x_min":0,"x_max":0,"o":"m 874 972 b 839 954 858 972 851 968 l 693 788 b 701 765 683 776 688 765 l 733 765 b 768 786 746 765 753 768 l 886 918 l 900 918 l 1017 786 b 1051 765 1032 768 1039 765 l 1085 765 b 1092 788 1099 765 1101 776 l 946 954 b 907 972 933 969 922 972 z m 1718 694 l 1678 694 b 1651 671 1664 694 1660 685 l 1303 78 l 1289 78 l 938 671 b 911 694 929 685 921 694 l 872 694 b 846 671 865 694 857 689 l 494 78 l 481 78 l 132 671 b 106 694 124 685 118 694 l 65 694 b 53 671 51 694 43 686 l 436 25 b 465 0 446 10 454 0 l 507 0 b 538 25 519 0 528 10 l 892 621 l 1246 25 b 1276 0 1256 10 1264 0 l 1317 0 b 1347 25 1329 0 1338 10 l 1731 671 b 1718 694 1740 686 1732 694 z "},"ẅ":{"ha":1783,"x_min":0,"x_max":0,"o":"m 692 893 l 735 893 b 753 911 749 893 753 897 l 753 954 b 735 972 753 968 749 972 l 692 972 b 674 954 678 972 674 968 l 674 911 b 692 893 674 897 678 893 z m 1015 893 l 1058 893 b 1076 911 1072 893 1076 897 l 1076 954 b 1058 972 1076 968 1072 972 l 1015 972 b 997 954 1001 972 997 968 l 997 911 b 1015 893 997 897 1001 893 z m 1718 694 l 1678 694 b 1651 671 1664 694 1660 685 l 1303 78 l 1289 78 l 938 671 b 911 694 929 685 921 694 l 872 694 b 846 671 865 694 857 689 l 494 78 l 481 78 l 132 671 b 106 694 124 685 118 694 l 65 694 b 53 671 51 694 43 686 l 436 25 b 465 0 446 10 454 0 l 507 0 b 538 25 519 0 528 10 l 892 621 l 1246 25 b 1276 0 1256 10 1264 0 l 1317 0 b 1347 25 1329 0 1338 10 l 1731 671 b 1718 694 1740 686 1732 694 z "},"ẁ":{"ha":1783,"x_min":0,"x_max":0,"o":"m 819 947 b 790 972 810 964 804 972 l 736 972 b 722 947 721 972 710 963 l 847 785 b 879 763 860 769 865 763 l 908 763 b 919 788 922 763 929 772 z m 1718 694 l 1678 694 b 1651 671 1664 694 1660 685 l 1303 78 l 1289 78 l 938 671 b 911 694 929 685 921 694 l 872 694 b 846 671 865 694 857 689 l 494 78 l 481 78 l 132 671 b 106 694 124 685 118 694 l 65 694 b 53 671 51 694 43 686 l 436 25 b 465 0 446 10 454 0 l 507 0 b 538 25 519 0 528 10 l 892 621 l 1246 25 b 1276 0 1256 10 1264 0 l 1317 0 b 1347 25 1329 0 1338 10 l 1731 671 b 1718 694 1740 686 1732 694 z "},"x":{"ha":961,"x_min":0,"x_max":0,"o":"m 904 26 l 529 347 l 904 668 b 899 694 919 682 915 694 l 853 694 b 810 669 842 694 831 688 l 481 389 l 151 669 b 108 694 131 688 119 694 l 64 694 b 57 668 47 694 42 682 l 432 347 l 57 26 b 65 0 42 13 49 0 l 110 0 b 153 25 121 0 132 7 l 481 306 l 808 25 b 851 0 829 7 840 0 l 897 0 b 904 26 914 0 919 13 z "},"y":{"ha":1046,"x_min":0,"x_max":0,"o":"m 981 694 l 939 694 b 913 671 925 694 919 685 l 529 78 l 515 78 l 133 671 b 107 694 125 685 119 694 l 65 694 b 53 671 51 694 43 686 l 474 25 b 485 10 478 19 481 14 l 328 -228 b 339 -251 318 -243 325 -251 l 381 -251 b 408 -228 394 -251 400 -242 l 569 24 l 571 25 l 992 671 b 981 694 1001 686 994 694 z "},"ý":{"ha":1046,"x_min":0,"x_max":0,"o":"m 501 763 l 531 763 b 564 788 544 763 551 772 l 690 947 b 683 972 703 963 699 972 l 626 972 b 594 947 613 972 604 964 l 492 788 b 501 763 482 772 488 763 z m 981 694 l 939 694 b 913 671 925 694 919 685 l 529 78 l 515 78 l 133 671 b 107 694 125 685 119 694 l 65 694 b 53 671 51 694 43 686 l 474 25 b 485 10 478 19 481 14 l 328 -228 b 339 -251 318 -243 325 -251 l 381 -251 b 408 -228 394 -251 400 -242 l 569 24 l 571 25 l 992 671 b 981 694 1001 686 994 694 z "},"ŷ":{"ha":1046,"x_min":0,"x_max":0,"o":"m 332 765 l 364 765 b 399 786 376 765 383 768 l 517 918 l 531 918 l 647 786 b 682 765 663 768 669 765 l 715 765 b 722 788 729 765 732 776 l 576 954 b 538 972 564 969 553 972 l 504 972 b 469 954 489 972 482 968 l 324 788 b 332 765 314 776 318 765 z m 981 694 l 939 694 b 913 671 925 694 919 685 l 529 78 l 515 78 l 133 671 b 107 694 125 685 119 694 l 65 694 b 53 671 51 694 43 686 l 474 25 b 485 10 478 19 481 14 l 328 -228 b 339 -251 318 -243 325 -251 l 381 -251 b 408 -228 394 -251 400 -242 l 569 24 l 571 25 l 992 671 b 981 694 1001 686 994 694 z "},"ÿ":{"ha":1046,"x_min":0,"x_max":0,"o":"m 322 893 l 365 893 b 383 911 379 893 383 897 l 383 954 b 365 972 383 968 379 972 l 322 972 b 304 954 308 972 304 968 l 304 911 b 322 893 304 897 308 893 z m 646 893 l 689 893 b 707 911 703 893 707 897 l 707 954 b 689 972 707 968 703 972 l 646 972 b 628 954 632 972 628 968 l 628 911 b 646 893 628 897 632 893 z m 981 694 l 939 694 b 913 671 925 694 919 685 l 529 78 l 515 78 l 133 671 b 107 694 125 685 119 694 l 65 694 b 53 671 51 694 43 686 l 474 25 b 485 10 478 19 481 14 l 328 -228 b 339 -251 318 -243 325 -251 l 381 -251 b 408 -228 394 -251 400 -242 l 569 24 l 571 25 l 992 671 b 981 694 1001 686 994 694 z "},"ỳ":{"ha":1046,"x_min":0,"x_max":0,"o":"m 478 785 b 510 763 490 769 496 763 l 539 763 b 550 788 553 763 560 772 l 450 947 b 421 972 440 964 435 972 l 367 972 b 353 947 351 972 340 963 z m 981 694 l 939 694 b 913 671 925 694 919 685 l 529 78 l 515 78 l 133 671 b 107 694 125 685 119 694 l 65 694 b 53 671 51 694 43 686 l 474 25 b 485 10 478 19 481 14 l 328 -228 b 339 -251 318 -243 325 -251 l 381 -251 b 408 -228 394 -251 400 -242 l 569 24 l 571 25 l 992 671 b 981 694 1001 686 994 694 z "},"z":{"ha":957,"x_min":0,"x_max":0,"o":"m 901 632 l 901 675 b 881 694 901 689 896 694 l 82 694 b 63 674 68 694 63 689 l 63 649 b 82 629 63 635 68 629 l 800 629 l 800 619 l 67 86 b 56 63 57 79 56 74 l 56 19 b 75 0 56 6 61 0 l 882 0 b 901 19 896 0 901 6 l 901 46 b 881 65 901 60 896 65 l 158 65 l 158 75 l 892 608 b 901 632 901 615 901 622 z "},"ź":{"ha":957,"x_min":0,"x_max":0,"o":"m 558 947 l 456 788 b 465 763 446 772 451 763 l 494 763 b 528 788 508 763 515 772 l 654 947 b 647 972 667 963 663 972 l 590 972 b 558 947 576 972 568 964 z m 901 632 l 901 675 b 881 694 901 689 896 694 l 82 694 b 63 674 68 694 63 689 l 63 649 b 82 629 63 635 68 629 l 800 629 l 800 619 l 67 86 b 56 63 57 79 56 74 l 56 19 b 75 0 56 6 61 0 l 882 0 b 901 19 896 0 901 6 l 901 46 b 881 65 901 60 896 65 l 158 65 l 158 75 l 892 608 b 901 632 901 615 901 622 z "},"ž":{"ha":957,"x_min":0,"x_max":0,"o":"m 468 765 l 501 765 b 540 783 517 765 528 768 l 686 950 b 679 972 696 961 693 972 l 646 972 b 611 953 633 972 626 971 l 494 821 l 481 821 l 363 953 b 328 972 347 971 340 972 l 296 972 b 288 950 282 972 278 961 l 433 783 b 468 765 446 769 453 765 z m 901 632 l 901 675 b 881 694 901 689 896 694 l 82 694 b 63 674 68 694 63 689 l 63 649 b 82 629 63 635 68 629 l 800 629 l 800 619 l 67 86 b 56 63 57 79 56 74 l 56 19 b 75 0 56 6 61 0 l 882 0 b 901 19 896 0 901 6 l 901 46 b 881 65 901 60 896 65 l 158 65 l 158 75 l 892 608 b 901 632 901 615 901 622 z "},"ż":{"ha":957,"x_min":0,"x_max":0,"o":"m 465 893 l 508 893 b 526 911 522 893 526 897 l 526 954 b 508 972 526 968 522 972 l 465 972 b 447 954 451 972 447 968 l 447 911 b 465 893 447 897 451 893 z m 901 632 l 901 675 b 881 694 901 689 896 694 l 82 694 b 63 674 68 694 63 689 l 63 649 b 82 629 63 635 68 629 l 800 629 l 800 619 l 67 86 b 56 63 57 79 56 74 l 56 19 b 75 0 56 6 61 0 l 882 0 b 901 19 896 0 901 6 l 901 46 b 881 65 901 60 896 65 l 158 65 l 158 75 l 892 608 b 901 632 901 615 901 622 z "},"ﬁ":{"ha":1028,"x_min":0,"x_max":0,"o":"m 939 694 l 210 694 l 210 731 b 383 907 210 856 269 907 l 757 907 b 778 928 771 907 778 914 l 778 951 b 757 972 778 965 771 972 l 385 972 b 142 733 224 972 142 892 l 142 694 l 76 694 b 56 674 63 694 56 688 l 56 650 b 76 629 56 636 63 629 l 142 629 l 142 21 b 163 0 142 7 149 0 l 189 0 b 210 21 203 0 210 7 l 210 629 l 889 629 l 889 19 b 908 0 889 6 894 0 l 939 0 b 958 19 953 0 958 6 l 958 675 b 939 694 958 689 953 694 z m 939 972 l 908 972 b 889 953 894 972 889 967 l 889 922 b 908 903 889 908 894 903 l 939 903 b 958 922 953 903 958 908 l 958 953 b 939 972 958 967 953 972 z "},"ﬂ":{"ha":1044,"x_min":0,"x_max":0,"o":"m 956 972 l 385 972 b 142 733 224 972 142 892 l 142 694 l 76 694 b 56 674 63 694 56 688 l 56 650 b 76 629 56 636 63 629 l 142 629 l 142 21 b 163 0 142 7 149 0 l 189 0 b 210 21 203 0 210 7 l 210 629 l 743 629 b 764 650 757 629 764 636 l 764 674 b 743 694 764 688 757 694 l 210 694 l 210 731 b 383 907 210 856 269 907 l 907 907 l 907 19 b 925 0 907 6 911 0 l 956 0 b 975 19 969 0 975 6 l 975 953 b 956 972 975 967 969 972 z "},"ª":{"ha":439,"x_min":0,"x_max":0,"o":"m 244 979 l 224 979 b 101 949 168 979 136 967 b 94 929 93 944 90 938 l 104 907 b 125 903 108 899 115 899 b 222 925 156 918 179 925 l 244 925 b 318 840 294 925 318 903 l 196 840 b 69 732 111 840 69 803 b 196 624 69 663 110 624 l 215 624 b 318 668 263 624 293 642 l 318 638 b 328 624 318 629 319 624 l 361 624 b 369 638 369 624 369 629 l 369 839 b 244 979 369 933 322 979 z m 218 681 l 199 681 b 124 732 150 681 124 690 b 199 788 124 771 150 788 l 318 788 l 318 711 b 218 681 294 692 271 681 z "},"º":{"ha":464,"x_min":0,"x_max":0,"o":"m 256 979 l 210 979 b 69 839 128 979 69 915 l 69 765 b 210 624 69 686 128 624 l 256 624 b 394 765 335 624 394 686 l 394 839 b 256 979 394 915 335 979 z m 340 839 l 340 765 b 254 678 340 713 303 678 l 211 678 b 125 765 158 678 125 713 l 125 839 b 211 925 125 892 158 925 l 254 925 b 340 839 303 925 340 892 z "},"А":{"ha":1449,"x_min":0,"x_max":0,"o":"m 1389 22 l 778 950 b 753 972 769 964 765 972 l 697 972 b 671 950 685 972 679 964 l 60 22 b 74 0 50 7 60 0 l 114 0 b 142 22 128 0 132 7 l 256 196 l 1194 196 l 1308 22 b 1336 0 1318 7 1322 0 l 1375 0 b 1389 22 1389 0 1399 7 z m 297 258 l 718 900 l 732 900 l 1153 258 z "},"Б":{"ha":1301,"x_min":0,"x_max":0,"o":"m 968 699 l 161 699 l 161 908 l 751 908 b 771 928 765 908 771 913 l 771 953 b 751 972 771 967 765 972 l 110 972 b 90 953 96 972 90 967 l 90 19 b 110 0 90 6 96 0 l 968 0 b 1225 247 1143 0 1225 79 l 1225 451 b 968 699 1225 619 1143 699 z m 1154 257 b 961 67 1154 122 1097 67 l 161 67 l 161 632 l 961 632 b 1154 442 1097 632 1154 576 z "},"В":{"ha":1321,"x_min":0,"x_max":0,"o":"m 1121 504 l 1121 515 b 1207 700 1182 550 1207 613 l 1207 729 b 972 972 1207 899 1133 972 l 111 972 b 90 951 97 972 90 965 l 90 21 b 111 0 90 7 97 0 l 969 0 b 1244 249 1142 0 1244 61 l 1244 282 b 1121 504 1244 407 1200 475 z m 1136 731 l 1136 703 b 969 532 1136 582 1085 532 l 161 532 l 161 906 l 968 906 b 1136 731 1085 906 1136 861 z m 1174 250 b 968 67 1174 99 1101 67 l 161 67 l 161 469 l 968 469 b 1174 281 1101 469 1174 436 z "},"Г":{"ha":1256,"x_min":0,"x_max":0,"o":"m 1174 972 l 110 972 b 90 953 96 972 90 967 l 90 19 b 110 0 90 6 96 0 l 142 0 b 161 19 156 0 161 6 l 161 906 l 1174 906 b 1193 925 1188 906 1193 911 l 1193 953 b 1174 972 1193 967 1188 972 z "},"Ѓ":{"ha":1256,"x_min":0,"x_max":0,"o":"m 614 1040 l 643 1040 b 676 1065 657 1040 664 1050 l 803 1225 b 796 1250 815 1240 811 1250 l 739 1250 b 707 1225 725 1250 717 1242 l 604 1065 b 614 1040 594 1050 600 1040 z m 1174 972 l 110 972 b 90 953 96 972 90 967 l 90 19 b 110 0 90 6 96 0 l 142 0 b 161 19 156 0 161 6 l 161 906 l 1174 906 b 1193 925 1188 906 1193 911 l 1193 953 b 1174 972 1193 967 1188 972 z "},"Ґ":{"ha":1256,"x_min":0,"x_max":0,"o":"m 1174 1040 l 1140 1040 b 1122 1021 1126 1040 1122 1035 l 1122 972 l 110 972 b 90 953 96 972 90 967 l 90 19 b 110 0 90 6 96 0 l 142 0 b 161 19 156 0 161 6 l 161 906 l 1174 906 b 1193 925 1188 906 1193 911 l 1193 1021 b 1174 1040 1193 1035 1188 1040 z "},"Д":{"ha":1439,"x_min":0,"x_max":0,"o":"m 1390 67 l 1343 67 l 1343 951 b 1322 972 1343 965 1336 972 l 210 972 b 189 951 196 972 189 965 l 189 401 b 69 67 189 135 121 67 l 49 67 b 28 46 35 67 28 60 l 28 -117 b 46 -135 28 -131 32 -135 l 81 -135 b 99 -117 94 -135 99 -131 l 99 0 l 1340 0 l 1340 -117 b 1357 -135 1340 -131 1343 -135 l 1393 -135 b 1411 -117 1407 -135 1411 -131 l 1411 46 b 1390 67 1411 60 1404 67 z m 185 67 b 260 401 232 113 260 208 l 260 906 l 1272 906 l 1272 67 z "},"Е":{"ha":1283,"x_min":0,"x_max":0,"o":"m 1186 67 l 161 67 l 161 453 l 1165 453 b 1186 474 1179 453 1186 460 l 1186 499 b 1165 519 1186 513 1179 519 l 161 519 l 161 906 l 1179 906 b 1200 926 1193 906 1200 913 l 1200 951 b 1179 972 1200 965 1193 972 l 110 972 b 90 953 96 972 90 967 l 90 19 b 110 0 90 6 96 0 l 1186 0 b 1207 21 1200 0 1207 7 l 1207 46 b 1186 67 1207 60 1200 67 z "},"Ё":{"ha":1283,"x_min":0,"x_max":0,"o":"m 456 1171 l 499 1171 b 517 1189 513 1171 517 1175 l 517 1232 b 499 1250 517 1246 513 1250 l 456 1250 b 438 1232 442 1250 438 1246 l 438 1189 b 456 1171 438 1175 442 1171 z m 779 1171 l 822 1171 b 840 1189 836 1171 840 1175 l 840 1232 b 822 1250 840 1246 836 1250 l 779 1250 b 761 1232 765 1250 761 1246 l 761 1189 b 779 1171 761 1175 765 1171 z m 1186 67 l 161 67 l 161 453 l 1165 453 b 1186 474 1179 453 1186 460 l 1186 499 b 1165 519 1186 513 1179 519 l 161 519 l 161 906 l 1179 906 b 1200 926 1193 906 1200 913 l 1200 951 b 1179 972 1200 965 1193 972 l 110 972 b 90 953 96 972 90 967 l 90 19 b 110 0 90 6 96 0 l 1186 0 b 1207 21 1200 0 1207 7 l 1207 46 b 1186 67 1207 60 1200 67 z "},"Ж":{"ha":2369,"x_min":0,"x_max":0,"o":"m 2313 25 l 1603 542 l 2286 947 b 2279 972 2300 957 2293 972 l 2224 972 b 2188 960 2208 972 2199 965 l 1219 388 l 1219 953 b 1200 972 1219 967 1214 972 l 1168 972 b 1149 953 1154 972 1149 967 l 1149 388 l 181 960 b 144 972 171 965 161 972 l 90 972 b 83 947 75 972 68 957 l 765 542 l 57 25 b 65 0 43 15 47 0 l 118 0 b 161 19 132 0 147 8 l 825 507 l 1149 314 l 1149 19 b 1168 0 1149 6 1154 0 l 1200 0 b 1219 19 1214 0 1219 6 l 1219 314 l 1543 506 l 2207 19 b 2251 0 2222 8 2236 0 l 2304 0 b 2313 25 2322 0 2326 15 z "},"З":{"ha":1281,"x_min":0,"x_max":0,"o":"m 1040 504 l 1040 514 b 1193 721 1146 544 1193 594 b 924 979 1193 899 1103 979 l 350 979 b 74 731 188 979 74 907 l 74 711 b 90 694 74 700 78 694 l 126 694 b 142 711 138 694 142 700 b 354 914 142 858 211 914 l 922 914 b 1125 721 1064 914 1125 854 b 903 540 1125 589 1040 540 l 289 540 b 274 525 279 540 274 536 l 274 493 b 289 478 274 481 279 478 l 903 478 b 1150 260 1040 478 1150 428 b 942 60 1150 126 1085 60 l 343 60 b 131 263 200 60 131 114 b 115 278 131 272 126 278 l 79 278 b 63 263 67 278 63 272 l 63 242 b 339 -7 63 65 176 -7 l 943 -7 b 1218 260 1121 -7 1218 81 b 1040 504 1218 428 1146 478 z "},"И":{"ha":1342,"x_min":0,"x_max":0,"o":"m 1232 0 b 1251 19 1246 0 1251 6 l 1251 953 b 1232 972 1251 967 1246 972 l 1158 972 b 1135 958 1149 972 1143 967 l 168 69 l 161 69 l 161 953 b 142 972 161 967 156 972 l 110 972 b 90 953 96 972 90 967 l 90 19 b 110 0 90 6 96 0 l 183 0 b 208 14 194 0 200 6 l 1174 903 l 1181 903 l 1181 19 b 1200 0 1181 6 1186 0 z "},"Й":{"ha":1342,"x_min":0,"x_max":0,"o":"m 626 1068 l 676 1068 b 835 1236 783 1068 835 1125 b 818 1250 835 1246 832 1250 l 793 1250 b 775 1236 779 1250 775 1246 b 675 1124 775 1171 740 1124 l 628 1124 b 528 1236 564 1124 529 1171 b 510 1250 528 1246 524 1250 l 486 1250 b 468 1236 472 1250 468 1246 b 626 1068 468 1125 524 1068 z m 1232 0 b 1251 19 1246 0 1251 6 l 1251 953 b 1232 972 1251 967 1246 972 l 1158 972 b 1135 958 1149 972 1143 967 l 168 69 l 161 69 l 161 953 b 142 972 161 967 156 972 l 110 972 b 90 953 96 972 90 967 l 90 19 b 110 0 90 6 96 0 l 183 0 b 208 14 194 0 200 6 l 1174 903 l 1181 903 l 1181 19 b 1200 0 1181 6 1186 0 z "},"Ѝ":{"ha":1342,"x_min":0,"x_max":0,"o":"m 581 1225 b 551 1250 571 1242 565 1250 l 497 1250 b 483 1225 482 1250 471 1240 l 608 1063 b 640 1040 621 1047 626 1040 l 669 1040 b 681 1065 683 1040 690 1050 z m 1232 0 b 1251 19 1246 0 1251 6 l 1251 953 b 1232 972 1251 967 1246 972 l 1158 972 b 1135 958 1149 972 1143 967 l 168 69 l 161 69 l 161 953 b 142 972 161 967 156 972 l 110 972 b 90 953 96 972 90 967 l 90 19 b 110 0 90 6 96 0 l 183 0 b 208 14 194 0 200 6 l 1174 903 l 1181 903 l 1181 19 b 1200 0 1181 6 1186 0 z "},"К":{"ha":1310,"x_min":0,"x_max":0,"o":"m 1253 25 l 544 542 l 1226 947 b 1219 972 1242 957 1235 972 l 1165 972 b 1129 960 1149 972 1139 965 l 161 388 l 161 953 b 142 972 161 967 156 972 l 110 972 b 90 953 96 972 90 967 l 90 19 b 110 0 90 6 96 0 l 142 0 b 161 19 156 0 161 6 l 161 314 l 485 507 l 1149 19 b 1193 0 1164 8 1178 0 l 1244 0 b 1253 25 1263 0 1267 15 z "},"Ќ":{"ha":1310,"x_min":0,"x_max":0,"o":"m 600 1040 l 629 1040 b 663 1065 643 1040 650 1050 l 789 1225 b 782 1250 801 1240 797 1250 l 725 1250 b 693 1225 711 1250 703 1242 l 590 1065 b 600 1040 581 1050 586 1040 z m 1253 25 l 544 542 l 1226 947 b 1219 972 1242 957 1235 972 l 1165 972 b 1129 960 1149 972 1139 965 l 161 388 l 161 953 b 142 972 161 967 156 972 l 110 972 b 90 953 96 972 90 967 l 90 19 b 110 0 90 6 96 0 l 142 0 b 161 19 156 0 161 6 l 161 314 l 485 507 l 1149 19 b 1193 0 1164 8 1178 0 l 1244 0 b 1253 25 1263 0 1267 15 z "},"Л":{"ha":1478,"x_min":0,"x_max":0,"o":"m 1367 972 l 215 972 b 194 951 201 972 194 965 l 194 169 b 93 64 194 88 140 64 b 76 49 85 64 76 61 l 76 14 b 94 -6 76 0 81 -6 l 113 -6 b 265 164 188 -6 265 39 l 265 906 l 1317 906 l 1317 18 b 1333 0 1317 4 1319 0 l 1369 0 b 1388 18 1383 0 1388 4 l 1388 951 b 1367 972 1388 965 1381 972 z "},"М":{"ha":1538,"x_min":0,"x_max":0,"o":"m 110 0 l 142 0 b 161 19 156 0 161 6 l 161 899 l 171 899 l 719 19 b 744 0 728 6 732 0 l 793 0 b 818 19 806 0 810 6 l 1365 899 l 1376 899 l 1376 19 b 1396 0 1376 6 1382 0 l 1428 0 b 1447 19 1442 0 1447 6 l 1447 953 b 1428 972 1447 967 1442 972 l 1350 972 b 1322 951 1336 972 1331 965 l 775 71 l 763 71 l 215 951 b 188 972 207 965 201 972 l 110 972 b 90 953 96 972 90 967 l 90 19 b 110 0 90 6 96 0 z "},"Н":{"ha":1328,"x_min":0,"x_max":0,"o":"m 1218 972 l 1186 972 b 1167 953 1172 972 1167 967 l 1167 519 l 161 519 l 161 953 b 142 972 161 967 156 972 l 110 972 b 90 953 96 972 90 967 l 90 19 b 110 0 90 6 96 0 l 142 0 b 161 19 156 0 161 6 l 161 453 l 1167 453 l 1167 19 b 1186 0 1167 6 1172 0 l 1218 0 b 1238 19 1232 0 1238 6 l 1238 953 b 1218 972 1238 967 1232 972 z "},"О":{"ha":1408,"x_min":0,"x_max":0,"o":"m 339 -6 l 1069 -6 b 1325 242 1242 -6 1325 74 l 1325 731 b 1069 978 1325 899 1242 978 l 339 978 b 83 731 167 978 83 899 l 83 242 b 339 -6 83 74 167 -6 z m 344 61 b 154 251 208 61 154 117 l 154 721 b 344 911 154 856 208 911 l 1064 911 b 1256 721 1201 911 1256 856 l 1256 251 b 1064 61 1256 117 1201 61 z "},"П":{"ha":1374,"x_min":0,"x_max":0,"o":"m 1263 972 l 111 972 b 90 951 97 972 90 965 l 90 18 b 108 0 90 4 94 0 l 143 0 b 161 18 157 0 161 4 l 161 906 l 1213 906 l 1213 18 b 1229 0 1213 4 1215 0 l 1265 0 b 1283 18 1279 0 1283 4 l 1283 951 b 1263 972 1283 965 1276 972 z "},"Р":{"ha":1308,"x_min":0,"x_max":0,"o":"m 968 972 l 110 972 b 90 953 96 972 90 967 l 90 19 b 110 0 90 6 96 0 l 142 0 b 161 19 156 0 161 6 l 161 247 l 968 247 b 1225 493 1143 247 1225 326 l 1225 725 b 968 972 1225 893 1143 972 z m 1154 504 b 961 314 1154 369 1097 314 l 161 314 l 161 906 l 961 906 b 1154 715 1097 906 1154 850 z "},"С":{"ha":1401,"x_min":0,"x_max":0,"o":"m 1271 696 l 1313 696 b 1325 711 1324 696 1325 701 l 1325 731 b 1071 978 1325 899 1243 978 l 339 978 b 83 731 167 978 83 899 l 83 242 b 339 -6 83 74 167 -6 l 1071 -6 b 1325 213 1243 -6 1325 71 l 1325 229 b 1313 246 1325 240 1324 246 l 1269 246 b 1256 229 1258 246 1256 240 l 1256 224 b 1060 61 1256 115 1197 61 l 344 61 b 154 251 208 61 154 117 l 154 721 b 344 911 154 856 208 911 l 1058 911 b 1256 721 1196 911 1256 853 l 1256 711 b 1271 696 1256 701 1258 696 z "},"Т":{"ha":1332,"x_min":0,"x_max":0,"o":"m 1250 972 l 82 972 b 63 953 68 972 63 967 l 63 925 b 82 906 63 911 68 906 l 631 906 l 631 19 b 650 0 631 6 636 0 l 682 0 b 701 19 696 0 701 6 l 701 906 l 1250 906 b 1269 925 1264 906 1269 911 l 1269 953 b 1250 972 1269 967 1264 972 z "},"У":{"ha":1171,"x_min":0,"x_max":0,"o":"m 1103 972 l 1058 972 b 1024 949 1042 972 1035 963 l 585 378 l 147 949 b 113 972 136 963 129 972 l 67 972 b 60 953 56 972 51 963 l 543 324 l 308 19 b 317 0 300 10 304 0 l 361 0 b 396 24 378 0 385 10 l 1111 953 b 1103 972 1118 963 1115 972 z "},"Ў":{"ha":1171,"x_min":0,"x_max":0,"o":"m 575 1068 l 625 1068 b 783 1236 732 1068 783 1125 b 767 1250 783 1246 781 1250 l 742 1250 b 724 1236 728 1250 724 1246 b 624 1124 724 1171 689 1124 l 576 1124 b 476 1236 513 1124 478 1171 b 458 1250 476 1246 472 1250 l 435 1250 b 417 1236 421 1250 417 1246 b 575 1068 417 1125 472 1068 z m 1103 972 l 1058 972 b 1024 949 1042 972 1035 963 l 585 378 l 147 949 b 113 972 136 963 129 972 l 67 972 b 60 953 56 972 51 963 l 543 324 l 308 19 b 317 0 300 10 304 0 l 361 0 b 396 24 378 0 385 10 l 1111 953 b 1103 972 1118 963 1115 972 z "},"Ф":{"ha":1408,"x_min":0,"x_max":0,"o":"m 1069 839 l 740 839 l 740 953 b 721 972 740 967 735 972 l 689 972 b 669 953 675 972 669 967 l 669 839 l 339 839 b 83 592 167 839 83 760 l 83 381 b 339 133 83 213 167 133 l 669 133 l 669 19 b 689 0 669 6 675 0 l 721 0 b 740 19 735 0 740 6 l 740 133 l 1069 133 b 1325 381 1242 133 1325 213 l 1325 592 b 1069 839 1325 760 1242 839 z m 344 200 b 154 390 208 200 154 256 l 154 582 b 344 772 154 717 208 772 l 669 772 l 669 200 z m 1256 390 b 1064 200 1256 256 1201 200 l 740 200 l 740 772 l 1064 772 b 1256 582 1201 772 1256 717 z "},"Х":{"ha":1342,"x_min":0,"x_max":0,"o":"m 1279 17 l 722 486 l 1279 956 b 1279 972 1289 964 1288 972 l 1208 972 b 1169 951 1193 972 1185 965 l 671 531 l 171 951 b 132 972 156 965 149 972 l 63 972 b 61 956 54 972 53 964 l 618 486 l 61 17 b 63 0 53 8 54 0 l 132 0 b 171 21 149 0 156 7 l 671 442 l 1169 21 b 1208 0 1185 7 1193 0 l 1278 0 b 1279 17 1288 0 1289 8 z "},"Ч":{"ha":1401,"x_min":0,"x_max":0,"o":"m 1292 972 l 1260 972 b 1240 953 1246 972 1240 967 l 1240 469 b 1050 279 1240 335 1186 279 l 351 279 b 161 469 215 279 161 335 l 161 953 b 142 972 161 967 156 972 l 110 972 b 90 953 96 972 90 967 l 90 458 b 346 213 90 292 174 213 l 1039 213 b 1240 293 1139 213 1203 239 l 1240 19 b 1260 0 1240 6 1246 0 l 1292 0 b 1311 19 1306 0 1311 6 l 1311 953 b 1292 972 1311 967 1306 972 z "},"Ц":{"ha":1392,"x_min":0,"x_max":0,"o":"m 1329 67 l 1283 67 l 1283 954 b 1265 972 1283 968 1279 972 l 1229 972 b 1213 954 1215 972 1213 968 l 1213 67 l 161 67 l 161 954 b 143 972 161 968 157 972 l 108 972 b 90 954 94 972 90 968 l 90 21 b 111 0 90 7 97 0 l 1279 0 l 1279 -117 b 1297 -135 1279 -131 1283 -135 l 1332 -135 b 1350 -117 1346 -135 1350 -131 l 1350 46 b 1329 67 1350 60 1343 67 z "},"Ш":{"ha":1696,"x_min":0,"x_max":0,"o":"m 111 0 l 1585 0 b 1606 21 1599 0 1606 7 l 1606 954 b 1588 972 1606 968 1601 972 l 1553 972 b 1535 954 1539 972 1535 968 l 1535 67 l 883 67 l 883 954 b 865 972 883 968 879 972 l 831 972 b 813 954 817 972 813 968 l 813 67 l 161 67 l 161 954 b 143 972 161 968 157 972 l 108 972 b 90 954 94 972 90 968 l 90 21 b 111 0 90 7 97 0 z "},"Щ":{"ha":1714,"x_min":0,"x_max":0,"o":"m 1651 67 l 1606 67 l 1606 954 b 1588 972 1606 968 1601 972 l 1553 972 b 1535 954 1539 972 1535 968 l 1535 67 l 883 67 l 883 954 b 865 972 883 968 879 972 l 831 972 b 813 954 817 972 813 968 l 813 67 l 161 67 l 161 954 b 143 972 161 968 157 972 l 108 972 b 90 954 94 972 90 968 l 90 21 b 111 0 90 7 97 0 l 1601 0 l 1601 -117 b 1619 -135 1601 -131 1606 -135 l 1656 -135 b 1672 -117 1669 -135 1672 -131 l 1672 46 b 1651 67 1672 60 1665 67 z "},"Ь":{"ha":1308,"x_min":0,"x_max":0,"o":"m 968 725 l 161 725 l 161 953 b 142 972 161 967 156 972 l 110 972 b 90 953 96 972 90 967 l 90 19 b 110 0 90 6 96 0 l 968 0 b 1225 247 1143 0 1225 79 l 1225 479 b 968 725 1225 646 1143 725 z m 1154 257 b 961 67 1154 122 1097 67 l 161 67 l 161 658 l 961 658 b 1154 468 1097 658 1154 603 z "},"Ъ":{"ha":1450,"x_min":0,"x_max":0,"o":"m 1110 725 l 301 725 l 301 953 b 282 972 301 967 296 972 l 61 972 b 42 953 47 972 42 967 l 42 925 b 61 906 42 911 47 906 l 232 906 l 232 19 b 250 0 232 6 236 0 l 1110 0 b 1367 247 1283 0 1367 79 l 1367 479 b 1110 725 1367 646 1283 725 z m 1296 257 b 1103 67 1296 122 1239 67 l 301 67 l 301 658 l 1103 658 b 1296 468 1239 658 1296 603 z "},"Ы":{"ha":1560,"x_min":0,"x_max":0,"o":"m 968 725 l 161 725 l 161 953 b 142 972 161 967 156 972 l 110 972 b 90 953 96 972 90 967 l 90 19 b 110 0 90 6 96 0 l 968 0 b 1225 247 1143 0 1225 79 l 1225 479 b 968 725 1225 646 1143 725 z m 1450 972 l 1418 972 b 1399 953 1404 972 1399 967 l 1399 19 b 1418 0 1399 6 1404 0 l 1450 0 b 1469 19 1464 0 1469 6 l 1469 953 b 1450 972 1469 967 1464 972 z m 1154 257 b 961 67 1154 122 1097 67 l 161 67 l 161 658 l 961 658 b 1154 468 1097 658 1154 603 z "},"Є":{"ha":1401,"x_min":0,"x_max":0,"o":"m 1271 696 l 1313 696 b 1325 711 1324 696 1325 701 l 1325 731 b 1071 978 1325 899 1243 978 l 339 978 b 83 731 167 978 83 899 l 83 242 b 339 -6 83 74 167 -6 l 1071 -6 b 1325 213 1243 -6 1325 71 l 1325 229 b 1313 246 1325 240 1324 246 l 1269 246 b 1256 229 1258 246 1256 240 l 1256 224 b 1060 61 1256 115 1197 61 l 344 61 b 154 251 208 61 154 117 l 154 453 l 518 453 b 538 472 532 453 538 458 l 538 499 b 518 518 538 513 532 518 l 154 518 l 154 721 b 344 911 154 856 208 911 l 1058 911 b 1256 721 1196 911 1256 853 l 1256 711 b 1271 696 1256 701 1258 696 z "},"Э":{"ha":1403,"x_min":0,"x_max":0,"o":"m 1063 978 l 332 978 b 76 731 160 978 76 899 l 76 711 b 89 696 76 701 79 696 l 131 696 b 147 711 143 696 147 701 l 147 721 b 344 911 147 853 206 911 l 1057 911 b 1249 721 1194 911 1249 856 l 1249 518 l 883 518 b 864 499 869 518 864 513 l 864 472 b 883 453 864 458 869 453 l 1249 453 l 1249 251 b 1057 61 1249 117 1194 61 l 342 61 b 147 224 204 61 147 115 l 147 229 b 132 246 147 240 143 246 l 89 246 b 76 229 79 246 76 240 l 76 213 b 332 -6 76 71 160 -6 l 1063 -6 b 1318 242 1235 -6 1318 74 l 1318 731 b 1063 978 1318 899 1235 978 z "},"І":{"ha":251,"x_min":0,"x_max":0,"o":"m 90 953 l 90 19 b 110 0 90 6 96 0 l 142 0 b 161 19 156 0 161 6 l 161 953 b 142 972 161 967 156 972 l 110 972 b 90 953 96 972 90 967 z "},"Ї":{"ha":251,"x_min":0,"x_max":0,"o":"m -75 1171 l -32 1171 b -14 1189 -18 1171 -14 1175 l -14 1232 b -32 1250 -14 1246 -18 1250 l -75 1250 b -93 1232 -89 1250 -93 1246 l -93 1189 b -75 1171 -93 1175 -89 1171 z m 249 1171 l 292 1171 b 310 1189 306 1171 310 1175 l 310 1232 b 292 1250 310 1246 306 1250 l 249 1250 b 231 1232 235 1250 231 1246 l 231 1189 b 249 1171 231 1175 235 1171 z m 90 953 l 90 19 b 110 0 90 6 96 0 l 142 0 b 161 19 156 0 161 6 l 161 953 b 142 972 161 967 156 972 l 110 972 b 90 953 96 972 90 967 z "},"Ј":{"ha":1339,"x_min":0,"x_max":0,"o":"m 96 0 l 992 0 b 1249 247 1164 0 1249 79 l 1249 953 b 1229 972 1249 967 1243 972 l 1197 972 b 1178 953 1183 972 1178 967 l 1178 257 b 986 67 1178 122 1122 67 l 96 67 b 76 47 82 67 76 61 l 76 19 b 96 0 76 6 82 0 z "},"Ю":{"ha":1674,"x_min":0,"x_max":0,"o":"m 1335 978 l 604 978 b 349 731 432 978 349 899 l 349 529 l 161 529 l 161 953 b 142 972 161 967 156 972 l 110 972 b 90 953 96 972 90 967 l 90 19 b 110 0 90 6 96 0 l 142 0 b 161 19 156 0 161 6 l 161 463 l 349 463 l 349 242 b 604 -6 349 74 432 -6 l 1335 -6 b 1590 242 1507 -6 1590 74 l 1590 731 b 1335 978 1590 899 1507 978 z m 1521 251 b 1329 61 1521 117 1467 61 l 610 61 b 419 251 474 61 419 117 l 419 721 b 610 911 419 856 474 911 l 1329 911 b 1521 721 1467 911 1521 856 z "},"Я":{"ha":1315,"x_min":0,"x_max":0,"o":"m 1204 972 l 346 972 b 89 725 174 972 89 893 l 89 533 b 267 293 89 393 147 315 l 88 24 b 101 0 78 10 88 0 l 139 0 b 161 14 149 0 154 4 l 340 286 l 346 286 l 1154 286 l 1154 19 b 1172 0 1154 6 1158 0 l 1204 0 b 1224 19 1218 0 1224 6 l 1224 953 b 1204 972 1224 967 1218 972 z m 351 353 b 160 543 215 353 160 410 l 160 715 b 351 906 160 850 215 906 l 1154 906 l 1154 353 z "},"Ӏ":{"ha":251,"x_min":0,"x_max":0,"o":"m 90 953 l 90 19 b 110 0 90 6 96 0 l 142 0 b 161 19 156 0 161 6 l 161 953 b 142 972 161 967 156 972 l 110 972 b 90 953 96 972 90 967 z "},"Ӣ":{"ha":1342,"x_min":0,"x_max":0,"o":"m 428 1183 l 878 1183 b 899 1204 890 1183 899 1190 l 899 1229 b 878 1250 899 1243 890 1250 l 428 1250 b 407 1229 414 1250 407 1243 l 407 1204 b 428 1183 407 1190 414 1183 z m 1232 0 b 1251 19 1246 0 1251 6 l 1251 953 b 1232 972 1251 967 1246 972 l 1158 972 b 1135 958 1149 972 1143 967 l 168 69 l 161 69 l 161 953 b 142 972 161 967 156 972 l 110 972 b 90 953 96 972 90 967 l 90 19 b 110 0 90 6 96 0 l 183 0 b 208 14 194 0 200 6 l 1174 903 l 1181 903 l 1181 19 b 1200 0 1181 6 1186 0 z "},"Ө":{"ha":1408,"x_min":0,"x_max":0,"o":"m 1069 978 l 339 978 b 83 731 167 978 83 899 l 83 242 b 339 -6 83 74 167 -6 l 1069 -6 b 1325 242 1242 -6 1325 74 l 1325 731 b 1069 978 1325 899 1242 978 z m 344 911 l 1064 911 b 1256 721 1201 911 1256 856 l 1256 519 l 154 519 l 154 721 b 344 911 154 856 208 911 z m 1064 61 l 344 61 b 154 251 208 61 154 117 l 154 454 l 1256 454 l 1256 251 b 1064 61 1256 117 1201 61 z "},"Ӭ":{"ha":1297,"x_min":0,"x_max":0,"o":"m 428 1171 l 471 1171 b 489 1189 485 1171 489 1175 l 489 1232 b 471 1250 489 1246 485 1250 l 428 1250 b 410 1232 414 1250 410 1246 l 410 1189 b 428 1171 410 1175 414 1171 z m 751 1171 l 794 1171 b 813 1189 808 1171 813 1175 l 813 1232 b 794 1250 813 1246 808 1250 l 751 1250 b 733 1232 738 1250 733 1246 l 733 1189 b 751 1171 733 1175 738 1171 z m 1063 978 l 332 978 b 76 731 160 978 76 899 l 76 711 b 89 696 76 701 79 696 l 131 696 b 147 711 143 696 147 701 l 147 721 b 344 911 147 853 206 911 l 1057 911 b 1249 721 1194 911 1249 856 l 1249 518 l 883 518 b 864 499 869 518 864 513 l 864 472 b 883 453 864 458 869 453 l 1249 453 l 1249 251 b 1057 61 1249 117 1194 61 l 342 61 b 147 224 204 61 147 115 l 147 229 b 132 246 147 240 143 246 l 89 246 b 76 229 79 246 76 240 l 76 213 b 332 -6 76 71 160 -6 l 1063 -6 b 1318 242 1235 -6 1318 74 l 1318 731 b 1063 978 1318 899 1235 978 z "},"Ӯ":{"ha":1171,"x_min":0,"x_max":0,"o":"m 376 1183 l 826 1183 b 847 1204 839 1183 847 1190 l 847 1229 b 826 1250 847 1243 839 1250 l 376 1250 b 356 1229 363 1250 356 1243 l 356 1204 b 376 1183 356 1190 363 1183 z m 1103 972 l 1058 972 b 1024 949 1042 972 1035 963 l 585 378 l 147 949 b 113 972 136 963 129 972 l 67 972 b 60 953 56 972 51 963 l 543 324 l 308 19 b 317 0 300 10 304 0 l 361 0 b 396 24 378 0 385 10 l 1111 953 b 1103 972 1118 963 1115 972 z "},"а":{"ha":996,"x_min":0,"x_max":0,"o":"m 247 -7 l 615 -7 b 850 100 731 -7 807 42 l 858 100 l 858 19 b 878 0 858 6 864 0 l 907 0 b 926 19 921 0 926 6 l 926 444 b 658 700 926 621 861 700 l 303 700 b 81 542 143 700 81 640 b 101 515 81 521 86 515 l 128 515 b 150 533 143 515 149 521 b 310 638 156 604 192 638 l 647 638 b 858 438 819 638 858 576 l 858 393 l 244 393 b 42 197 121 393 42 339 b 247 -7 42 57 118 -7 z m 249 60 b 110 199 158 60 110 94 b 249 335 110 303 158 335 l 858 335 l 858 229 b 643 60 858 129 761 60 z "},"б":{"ha":1018,"x_min":0,"x_max":0,"o":"m 349 -7 l 714 -7 b 956 231 875 -7 956 74 l 956 461 b 714 700 956 619 875 700 l 349 700 b 147 619 224 700 185 672 l 138 619 l 138 769 b 239 883 138 842 157 883 b 493 868 357 883 403 868 b 660 958 586 868 660 892 b 644 972 660 967 657 972 l 607 972 b 590 963 597 972 596 971 b 493 928 571 933 550 928 b 239 943 401 928 338 943 b 69 768 88 943 69 865 l 69 19 b 89 0 69 6 75 0 l 118 0 b 138 19 132 0 138 6 l 138 74 l 147 74 b 349 -7 185 21 224 -7 z m 313 60 b 138 233 197 60 138 110 l 138 458 b 313 635 138 583 197 635 l 714 635 b 888 458 829 635 888 583 l 888 233 b 714 60 888 110 829 60 z "},"в":{"ha":971,"x_min":0,"x_max":0,"o":"m 90 0 l 708 0 b 908 192 838 0 908 43 b 813 351 908 251 893 322 l 813 363 b 889 503 882 399 889 464 b 700 694 889 643 814 694 l 90 694 b 69 674 76 694 69 688 l 69 21 b 90 0 69 7 76 0 z m 138 385 l 138 632 l 700 632 b 822 506 776 632 822 596 b 724 385 822 450 801 385 z m 138 64 l 138 328 l 724 326 b 842 188 800 326 842 283 b 710 64 842 78 786 64 z "},"г":{"ha":929,"x_min":0,"x_max":0,"o":"m 854 694 l 89 694 b 69 675 75 694 69 689 l 69 19 b 89 0 69 6 75 0 l 118 0 b 138 19 132 0 138 6 l 138 632 l 854 632 b 874 651 868 632 874 638 l 874 675 b 854 694 874 689 868 694 z "},"ѓ":{"ha":929,"x_min":0,"x_max":0,"o":"m 436 763 l 465 763 b 499 788 479 763 486 772 l 625 947 b 618 972 638 963 633 972 l 561 972 b 529 947 547 972 539 964 l 426 788 b 436 763 417 772 422 763 z m 854 694 l 89 694 b 69 675 75 694 69 689 l 69 19 b 89 0 69 6 75 0 l 118 0 b 138 19 132 0 138 6 l 138 632 l 854 632 b 874 651 868 632 874 638 l 874 675 b 854 694 874 689 868 694 z "},"ґ":{"ha":929,"x_min":0,"x_max":0,"o":"m 857 769 l 821 769 b 804 753 808 769 804 764 l 804 694 l 89 694 b 69 675 75 694 69 689 l 69 19 b 89 0 69 6 75 0 l 118 0 b 138 19 132 0 138 6 l 138 632 l 854 632 b 874 651 868 632 874 638 l 874 753 b 857 769 874 764 869 769 z "},"д":{"ha":1204,"x_min":0,"x_max":0,"o":"m 1142 63 l 1094 63 l 1094 674 b 1074 694 1094 688 1088 694 l 231 694 b 210 674 217 694 210 688 l 210 306 b 79 63 210 133 144 63 l 63 63 b 42 42 49 63 42 56 l 42 -86 b 58 -103 42 -97 46 -103 l 94 -103 b 110 -86 106 -103 110 -97 l 110 0 l 1094 0 l 1094 -86 b 1110 -103 1094 -97 1099 -103 l 1146 -103 b 1163 -86 1158 -103 1163 -97 l 1163 42 b 1142 63 1163 56 1156 63 z m 200 63 b 278 308 253 111 278 199 l 278 632 l 1026 632 l 1026 63 z "},"е":{"ha":1010,"x_min":0,"x_max":0,"o":"m 707 700 l 303 700 b 63 463 142 700 63 621 l 63 229 b 303 -7 63 72 142 -7 l 689 -7 b 926 67 846 -7 892 26 b 929 89 935 78 938 85 l 901 103 b 874 101 889 110 883 108 b 690 60 828 65 794 60 l 303 60 b 131 233 189 60 131 111 l 131 318 l 896 318 b 947 368 936 318 947 329 l 947 461 b 707 700 947 617 868 700 z m 879 376 l 131 376 l 131 458 b 303 635 131 583 189 635 l 707 635 b 879 458 821 635 879 583 z "},"ё":{"ha":1010,"x_min":0,"x_max":0,"o":"m 304 893 l 347 893 b 365 911 361 893 365 897 l 365 954 b 347 972 365 968 361 972 l 304 972 b 286 954 290 972 286 968 l 286 911 b 304 893 286 897 290 893 z m 628 893 l 671 893 b 689 911 685 893 689 897 l 689 954 b 671 972 689 968 685 972 l 628 972 b 610 954 614 972 610 968 l 610 911 b 628 893 610 897 614 893 z m 707 700 l 303 700 b 63 463 142 700 63 621 l 63 229 b 303 -7 63 72 142 -7 l 689 -7 b 926 67 846 -7 892 26 b 929 89 935 78 938 85 l 901 103 b 874 101 889 110 883 108 b 690 60 828 65 794 60 l 303 60 b 131 233 189 60 131 111 l 131 318 l 896 318 b 947 368 936 318 947 329 l 947 461 b 707 700 947 617 868 700 z m 879 376 l 131 376 l 131 458 b 303 635 131 583 189 635 l 707 635 b 879 458 821 635 879 583 z "},"ж":{"ha":1353,"x_min":0,"x_max":0,"o":"m 56 0 l 119 0 b 165 18 136 0 149 8 l 643 308 l 643 19 b 661 0 643 6 647 0 l 692 0 b 711 19 706 0 711 6 l 711 308 l 1188 18 b 1233 0 1204 8 1217 0 l 1299 0 b 1306 17 1313 0 1315 11 l 760 347 l 1282 671 b 1281 694 1296 681 1294 694 l 1224 694 b 1197 686 1213 694 1207 690 l 711 386 l 711 675 b 692 694 711 689 706 694 l 661 694 b 643 675 647 694 643 689 l 643 386 l 156 686 b 131 694 147 690 140 694 l 72 694 b 71 671 58 694 57 681 l 594 347 l 49 17 b 56 0 38 11 40 0 z "},"з":{"ha":1004,"x_min":0,"x_max":0,"o":"m 267 -8 l 724 -8 b 942 186 853 -8 942 47 b 854 347 942 251 929 317 l 854 357 b 935 507 929 386 935 443 b 724 701 935 635 853 701 l 267 701 b 63 513 139 701 63 633 b 78 497 63 503 67 497 l 118 497 b 133 513 128 497 133 503 b 261 636 133 579 175 636 l 728 636 b 865 511 819 636 865 590 b 761 381 865 436 853 381 l 286 381 b 272 367 276 381 272 378 l 272 336 b 286 322 272 325 276 322 l 761 322 b 874 183 853 322 874 258 b 728 58 874 94 818 58 l 261 58 b 133 172 174 58 133 108 b 118 186 133 182 128 186 l 78 186 b 63 172 67 186 63 182 b 267 -8 63 51 139 -8 z "},"и":{"ha":1001,"x_min":0,"x_max":0,"o":"m 89 694 b 69 675 75 694 69 689 l 69 19 b 89 0 69 6 75 0 l 156 0 b 182 15 167 0 171 4 l 853 628 l 861 628 l 861 19 b 881 0 861 6 867 0 l 913 0 b 932 19 926 0 932 6 l 932 675 b 913 694 932 689 926 694 l 846 694 b 819 679 835 694 831 690 l 149 67 l 140 67 l 140 675 b 121 694 140 689 135 694 z "},"й":{"ha":1001,"x_min":0,"x_max":0,"o":"m 476 790 l 526 790 b 685 958 633 790 685 847 b 668 972 685 968 682 972 l 643 972 b 625 958 629 972 625 968 b 525 846 625 893 590 846 l 478 846 b 378 958 414 846 379 893 b 360 972 378 968 374 972 l 336 972 b 318 958 322 972 318 968 b 476 790 318 847 374 790 z m 89 694 b 69 675 75 694 69 689 l 69 19 b 89 0 69 6 75 0 l 156 0 b 182 15 167 0 171 4 l 853 628 l 861 628 l 861 19 b 881 0 861 6 867 0 l 913 0 b 932 19 926 0 932 6 l 932 675 b 913 694 932 689 926 694 l 846 694 b 819 679 835 694 831 690 l 149 67 l 140 67 l 140 675 b 121 694 140 689 135 694 z "},"ѝ":{"ha":1001,"x_min":0,"x_max":0,"o":"m 431 947 b 401 972 421 964 415 972 l 347 972 b 333 947 332 972 321 963 l 458 785 b 490 763 471 769 476 763 l 519 763 b 531 788 533 763 540 772 z m 89 694 b 69 675 75 694 69 689 l 69 19 b 89 0 69 6 75 0 l 156 0 b 182 15 167 0 171 4 l 853 628 l 861 628 l 861 19 b 881 0 861 6 867 0 l 913 0 b 932 19 926 0 932 6 l 932 675 b 913 694 932 689 926 694 l 846 694 b 819 679 835 694 831 690 l 149 67 l 140 67 l 140 675 b 121 694 140 689 135 694 z "},"к":{"ha":781,"x_min":0,"x_max":0,"o":"m 732 17 l 186 347 l 710 671 b 708 694 724 681 721 694 l 650 694 b 625 686 640 694 633 690 l 138 386 l 138 675 b 118 694 138 689 132 694 l 89 694 b 69 675 75 694 69 689 l 69 19 b 89 0 69 6 75 0 l 118 0 b 138 19 132 0 138 6 l 138 308 l 615 18 b 661 0 632 8 643 0 l 725 0 b 732 17 740 0 743 11 z "},"ќ":{"ha":781,"x_min":0,"x_max":0,"o":"m 467 947 l 364 788 b 374 763 354 772 360 763 l 403 763 b 436 788 417 763 424 772 l 563 947 b 556 972 575 963 571 972 l 499 972 b 467 947 485 972 476 964 z m 732 17 l 186 347 l 710 671 b 708 694 724 681 721 694 l 650 694 b 625 686 640 694 633 690 l 138 386 l 138 675 b 118 694 138 689 132 694 l 89 694 b 69 675 75 694 69 689 l 69 19 b 89 0 69 6 75 0 l 118 0 b 138 19 132 0 138 6 l 138 308 l 615 18 b 661 0 632 8 643 0 l 725 0 b 732 17 740 0 743 11 z "},"л":{"ha":1082,"x_min":0,"x_max":0,"o":"m 49 -14 b 183 147 140 -14 183 35 l 183 632 l 943 632 l 943 17 b 960 0 943 6 947 0 l 996 0 b 1013 17 1008 0 1013 6 l 1013 678 b 996 694 1013 689 1008 694 l 131 694 b 115 678 119 694 115 689 l 115 158 b 22 50 115 74 90 50 b 0 32 6 50 0 43 l 0 7 b 49 -14 0 -8 11 -14 z "},"м":{"ha":1188,"x_min":0,"x_max":0,"o":"m 89 0 l 118 0 b 138 19 132 0 138 6 l 138 613 l 149 613 l 551 68 b 576 51 560 57 567 51 l 610 51 b 635 68 622 51 626 57 l 1039 613 l 1050 613 l 1050 19 b 1068 0 1050 6 1054 0 l 1099 0 b 1118 19 1113 0 1118 6 l 1118 675 b 1099 694 1118 689 1113 694 l 1044 694 b 1014 676 1033 694 1022 688 l 593 115 l 172 676 b 143 694 164 688 154 694 l 89 694 b 69 675 75 694 69 689 l 69 19 b 89 0 69 6 75 0 z "},"н":{"ha":986,"x_min":0,"x_max":0,"o":"m 897 694 l 867 694 b 847 675 853 694 847 689 l 847 382 l 138 382 l 138 675 b 118 694 138 689 132 694 l 89 694 b 69 675 75 694 69 689 l 69 19 b 89 0 69 6 75 0 l 118 0 b 138 19 132 0 138 6 l 138 317 l 847 317 l 847 19 b 867 0 847 6 853 0 l 897 0 b 917 19 911 0 917 6 l 917 675 b 897 694 917 689 911 694 z "},"о":{"ha":1011,"x_min":0,"x_max":0,"o":"m 303 -7 l 708 -7 b 949 229 869 -7 949 72 l 949 463 b 708 700 949 621 869 700 l 303 700 b 63 463 142 700 63 621 l 63 229 b 303 -7 63 72 142 -7 z m 303 60 b 131 233 189 60 131 110 l 131 458 b 303 635 131 583 189 635 l 708 635 b 881 458 822 635 881 583 l 881 233 b 708 60 881 110 822 60 z "},"п":{"ha":1068,"x_min":0,"x_max":0,"o":"m 979 694 l 89 694 b 69 675 75 694 69 689 l 69 19 b 89 0 69 6 75 0 l 118 0 b 138 19 132 0 138 6 l 138 629 l 929 629 l 929 19 b 949 0 929 6 935 0 l 979 0 b 999 19 993 0 999 6 l 999 675 b 979 694 999 689 993 694 z "},"р":{"ha":1018,"x_min":0,"x_max":0,"o":"m 118 -246 b 138 -226 133 -246 138 -240 l 138 74 l 147 74 b 349 -7 185 21 224 -7 l 714 -7 b 956 232 875 -7 956 74 l 956 463 b 714 700 956 619 875 700 l 349 700 b 147 619 224 700 185 672 l 138 619 l 138 675 b 118 694 138 689 132 694 l 89 694 b 69 675 75 694 69 689 l 69 -226 b 89 -246 69 -240 75 -246 z m 714 60 l 313 60 b 138 235 197 60 138 110 l 138 460 b 313 635 138 583 197 635 l 714 635 b 888 460 829 635 888 583 l 888 235 b 714 60 888 110 829 60 z "},"с":{"ha":999,"x_min":0,"x_max":0,"o":"m 303 -7 l 689 -7 b 926 67 846 -7 892 26 b 929 89 935 78 938 85 l 901 103 b 874 101 889 110 883 108 b 690 60 828 65 794 60 l 303 60 b 131 233 189 60 131 111 l 131 458 b 303 635 131 583 189 635 l 711 635 b 875 507 824 635 875 590 l 875 475 b 893 460 875 465 882 460 l 926 460 b 943 478 938 460 943 467 l 943 511 b 717 700 943 635 868 700 l 303 700 b 63 463 142 700 63 621 l 63 229 b 303 -7 63 72 142 -7 z "},"т":{"ha":999,"x_min":0,"x_max":0,"o":"m 924 694 l 75 694 b 56 675 61 694 56 689 l 56 649 b 75 629 56 635 61 629 l 467 629 l 467 19 b 486 0 467 6 472 0 l 515 0 b 535 19 529 0 535 6 l 535 629 l 924 629 b 943 649 938 629 943 635 l 943 675 b 924 694 943 689 938 694 z "},"у":{"ha":1046,"x_min":0,"x_max":0,"o":"m 981 694 l 939 694 b 913 671 925 694 919 685 l 529 78 l 515 78 l 133 671 b 107 694 125 685 119 694 l 65 694 b 53 671 51 694 43 686 l 474 25 b 485 10 478 19 481 14 l 328 -228 b 339 -251 318 -243 325 -251 l 381 -251 b 408 -228 394 -251 400 -242 l 569 24 l 571 25 l 992 671 b 981 694 1001 686 994 694 z "},"ў":{"ha":1046,"x_min":0,"x_max":0,"o":"m 497 790 l 547 790 b 706 958 654 790 706 847 b 689 972 706 968 703 972 l 664 972 b 646 958 650 972 646 968 b 546 846 646 893 611 846 l 499 846 b 399 958 435 846 400 893 b 381 972 399 968 394 972 l 357 972 b 339 958 343 972 339 968 b 497 790 339 847 394 790 z m 981 694 l 939 694 b 913 671 925 694 919 685 l 529 78 l 515 78 l 133 671 b 107 694 125 685 119 694 l 65 694 b 53 671 51 694 43 686 l 474 25 b 485 10 478 19 481 14 l 328 -228 b 339 -251 318 -243 325 -251 l 381 -251 b 408 -228 394 -251 400 -242 l 569 24 l 571 25 l 992 671 b 981 694 1001 686 994 694 z "},"ф":{"ha":1829,"x_min":0,"x_max":0,"o":"m 1525 700 l 1158 700 b 958 619 1035 700 996 672 l 949 619 l 949 953 b 929 972 949 967 943 972 l 900 972 b 881 953 885 972 881 967 l 881 619 l 871 619 b 671 700 833 672 794 700 l 304 700 b 63 461 144 700 63 619 l 63 231 b 304 -7 63 74 144 -7 l 671 -7 b 871 74 794 -7 833 21 l 881 74 l 881 -226 b 900 -246 881 -240 886 -246 l 929 -246 b 949 -226 944 -246 949 -240 l 949 74 l 958 74 b 1158 -7 996 21 1035 -7 l 1525 -7 b 1767 232 1685 -7 1767 74 l 1767 463 b 1525 700 1767 619 1685 700 z m 706 60 l 304 60 b 131 233 189 60 131 110 l 131 458 b 304 635 131 583 189 635 l 706 635 b 881 458 822 635 881 583 l 881 233 b 706 60 881 110 822 60 z m 1699 235 b 1525 60 1699 110 1640 60 l 1124 60 b 949 235 1007 60 949 110 l 949 460 b 1124 635 949 583 1007 635 l 1525 635 b 1699 460 1640 635 1699 583 z "},"х":{"ha":961,"x_min":0,"x_max":0,"o":"m 904 26 l 529 347 l 904 668 b 899 694 919 682 915 694 l 853 694 b 810 669 842 694 831 688 l 481 389 l 151 669 b 108 694 131 688 119 694 l 64 694 b 57 668 47 694 42 682 l 432 347 l 57 26 b 65 0 42 13 49 0 l 110 0 b 153 25 121 0 132 7 l 481 306 l 808 25 b 851 0 829 7 840 0 l 897 0 b 904 26 914 0 919 13 z "},"ч":{"ha":1040,"x_min":0,"x_max":0,"o":"m 951 694 l 921 694 b 901 675 907 694 901 689 l 901 374 b 721 200 901 250 836 200 l 311 200 b 138 374 196 200 138 250 l 138 675 b 118 694 138 689 132 694 l 89 694 b 69 675 75 694 69 689 l 69 371 b 311 133 69 214 151 133 l 726 133 b 901 217 797 133 857 158 l 901 19 b 921 0 901 6 907 0 l 951 0 b 971 19 965 0 971 6 l 971 675 b 951 694 971 689 965 694 z "},"ц":{"ha":1078,"x_min":0,"x_max":0,"o":"m 1001 65 l 939 65 l 939 674 b 918 694 939 688 932 694 l 892 694 b 871 674 878 694 871 688 l 871 65 l 158 65 l 158 674 b 138 694 158 688 151 694 l 111 694 b 90 674 97 694 90 688 l 90 21 b 111 0 90 7 97 0 l 954 0 l 954 -143 b 975 -164 954 -157 961 -164 l 1001 -164 b 1022 -143 1015 -164 1022 -157 l 1022 44 b 1001 65 1022 58 1015 65 z "},"ш":{"ha":1478,"x_min":0,"x_max":0,"o":"m 1367 694 l 1340 694 b 1319 674 1326 694 1319 688 l 1319 65 l 774 65 l 774 674 b 753 694 774 688 767 694 l 726 694 b 706 674 713 694 706 688 l 706 65 l 158 65 l 158 674 b 138 694 158 688 151 694 l 111 694 b 90 674 97 694 90 688 l 90 21 b 111 0 90 7 97 0 l 1367 0 b 1388 21 1381 0 1388 7 l 1388 674 b 1367 694 1388 688 1381 694 z "},"щ":{"ha":1521,"x_min":0,"x_max":0,"o":"m 1444 65 l 1388 65 l 1388 674 b 1367 694 1388 688 1381 694 l 1340 694 b 1319 674 1326 694 1319 688 l 1319 65 l 774 65 l 774 674 b 753 694 774 688 767 694 l 726 694 b 706 674 713 694 706 688 l 706 65 l 158 65 l 158 674 b 138 694 158 688 151 694 l 111 694 b 90 674 97 694 90 688 l 90 21 b 111 0 90 7 97 0 l 1399 0 l 1399 -143 b 1419 -164 1399 -157 1406 -164 l 1444 -164 b 1465 -143 1458 -164 1465 -157 l 1465 44 b 1444 65 1465 58 1458 65 z "},"ь":{"ha":1004,"x_min":0,"x_max":0,"o":"m 696 431 l 140 431 l 140 675 b 121 694 140 689 135 694 l 89 694 b 69 675 75 694 69 689 l 69 19 b 89 0 69 6 75 0 l 696 0 b 942 215 876 0 942 65 b 696 431 942 351 876 431 z m 686 67 l 140 67 l 140 365 l 686 365 b 871 215 833 365 871 315 b 686 67 871 100 833 67 z "},"ъ":{"ha":1047,"x_min":0,"x_max":0,"o":"m 739 431 l 182 431 l 182 675 b 163 694 182 689 176 694 l 40 694 b 21 675 26 694 21 689 l 21 647 b 40 629 21 633 26 629 l 113 629 l 113 19 b 131 0 113 6 117 0 l 739 0 b 985 215 919 0 985 65 b 739 431 985 351 919 431 z m 729 67 l 182 67 l 182 365 l 729 365 b 914 215 876 365 914 315 b 729 67 914 100 876 67 z "},"ы":{"ha":1188,"x_min":0,"x_max":0,"o":"m 696 431 l 140 431 l 140 675 b 121 694 140 689 135 694 l 89 694 b 69 675 75 694 69 689 l 69 19 b 89 0 69 6 75 0 l 696 0 b 942 215 876 0 942 65 b 696 431 942 351 876 431 z m 1099 694 l 1069 694 b 1050 675 1056 694 1050 689 l 1050 19 b 1069 0 1050 6 1056 0 l 1099 0 b 1118 19 1113 0 1118 6 l 1118 675 b 1099 694 1118 689 1113 694 z m 686 67 l 140 67 l 140 365 l 686 365 b 871 215 833 365 871 315 b 686 67 871 100 833 67 z "},"є":{"ha":999,"x_min":0,"x_max":0,"o":"m 717 700 l 303 700 b 63 463 142 700 63 621 l 63 229 b 303 -7 63 72 142 -7 l 689 -7 b 926 67 846 -7 892 26 b 929 89 935 78 938 85 l 901 103 b 874 101 889 110 883 108 b 690 60 828 65 794 60 l 303 60 b 131 233 189 60 131 111 l 131 315 l 418 315 b 438 335 432 315 438 321 l 438 358 b 418 378 438 372 432 378 l 131 378 l 131 458 b 303 635 131 583 189 635 l 711 635 b 875 507 824 635 875 590 l 875 475 b 893 460 875 465 882 460 l 926 460 b 943 478 938 460 943 467 l 943 511 b 717 700 943 635 868 700 z "},"э":{"ha":999,"x_min":0,"x_max":0,"o":"m 696 700 l 282 700 b 56 511 131 700 56 635 l 56 478 b 72 460 56 467 61 460 l 106 460 b 125 475 117 460 125 465 l 125 507 b 288 635 125 590 175 635 l 696 635 b 868 458 810 635 868 583 l 868 378 l 581 378 b 561 358 567 378 561 372 l 561 335 b 581 315 561 321 567 315 l 868 315 l 868 233 b 696 60 868 111 810 60 l 308 60 b 125 101 204 60 171 65 b 99 103 115 108 110 110 l 69 89 b 72 67 61 85 64 78 b 310 -7 107 26 153 -7 l 696 -7 b 936 229 857 -7 936 72 l 936 463 b 696 700 936 621 857 700 z "},"і":{"ha":207,"x_min":0,"x_max":0,"o":"m 69 953 l 69 922 b 89 903 69 908 75 903 l 118 903 b 138 922 132 903 138 908 l 138 953 b 118 972 138 967 132 972 l 89 972 b 69 953 75 972 69 967 z m 69 675 l 69 19 b 89 0 69 6 75 0 l 118 0 b 138 19 132 0 138 6 l 138 675 b 118 694 138 689 132 694 l 89 694 b 69 675 75 694 69 689 z "},"ї":{"ha":207,"x_min":0,"x_max":0,"o":"m -96 893 l -53 893 b -35 911 -39 893 -35 897 l -35 954 b -53 972 -35 968 -39 972 l -96 972 b -114 954 -110 972 -114 968 l -114 911 b -96 893 -114 897 -110 893 z m 228 893 l 271 893 b 289 911 285 893 289 897 l 289 954 b 271 972 289 968 285 972 l 228 972 b 210 954 214 972 210 968 l 210 911 b 228 893 210 897 214 893 z m 69 675 l 69 19 b 89 0 69 6 75 0 l 118 0 b 138 19 132 0 138 6 l 138 675 b 118 694 138 689 132 694 l 89 694 b 69 675 75 694 69 689 z "},"ј":{"ha":218,"x_min":0,"x_max":0,"o":"m 99 903 l 129 903 b 149 922 143 903 149 908 l 149 953 b 129 972 149 967 143 972 l 99 972 b 81 953 85 972 81 967 l 81 922 b 99 903 81 908 85 903 z m -85 -251 b 149 -12 68 -251 149 -171 l 149 675 b 129 694 149 689 143 694 l 99 694 b 81 675 85 694 81 689 l 81 -8 b -82 -186 81 -135 24 -186 l -142 -186 b -153 -197 -149 -186 -153 -190 l -153 -236 b -139 -247 -153 -242 -149 -246 b -85 -251 -115 -250 -101 -251 z "},"ю":{"ha":1251,"x_min":0,"x_max":0,"o":"m 949 700 l 543 700 b 303 463 382 700 303 621 l 303 369 l 138 369 l 138 674 b 118 693 138 688 132 693 l 89 693 b 69 674 75 693 69 688 l 69 18 b 89 -1 69 4 75 -1 l 118 -1 b 138 18 132 -1 138 4 l 138 310 l 303 310 l 303 229 b 543 -7 303 72 382 -7 l 949 -7 b 1189 229 1110 -7 1189 72 l 1189 463 b 949 700 1189 621 1110 700 z m 1121 233 b 949 60 1121 110 1063 60 l 543 60 b 371 233 429 60 371 110 l 371 458 b 543 635 371 583 429 635 l 949 635 b 1121 458 1063 635 1121 583 z "},"я":{"ha":975,"x_min":0,"x_max":0,"o":"m 111 0 b 131 19 125 0 131 6 l 131 207 b 240 329 131 294 167 329 l 838 329 l 838 19 b 857 0 838 6 843 0 l 886 0 b 906 19 900 0 906 6 l 906 675 b 886 694 906 689 900 694 l 254 694 b 72 514 143 694 72 644 b 157 363 72 474 81 396 b 63 204 78 332 63 260 l 63 19 b 82 0 63 6 68 0 z m 838 629 l 838 394 l 239 394 b 140 519 164 394 140 451 b 254 629 140 588 179 629 z "},"ӣ":{"ha":1001,"x_min":0,"x_max":0,"o":"m 278 906 l 728 906 b 749 926 740 906 749 913 l 749 951 b 728 972 749 965 740 972 l 278 972 b 257 951 264 972 257 965 l 257 926 b 278 906 257 913 264 906 z m 89 694 b 69 675 75 694 69 689 l 69 19 b 89 0 69 6 75 0 l 156 0 b 182 15 167 0 171 4 l 853 628 l 861 628 l 861 19 b 881 0 861 6 867 0 l 913 0 b 932 19 926 0 932 6 l 932 675 b 913 694 932 689 926 694 l 846 694 b 819 679 835 694 831 690 l 149 67 l 140 67 l 140 675 b 121 694 140 689 135 694 z "},"ө":{"ha":1011,"x_min":0,"x_max":0,"o":"m 708 701 l 303 701 b 63 465 142 701 63 622 l 63 232 b 303 -6 63 74 142 -6 l 708 -6 b 949 232 869 -6 949 74 l 949 465 b 708 701 949 622 869 701 z m 303 636 l 708 636 b 881 461 822 636 881 585 l 881 379 l 131 379 l 131 461 b 303 636 131 585 189 636 z m 708 61 l 303 61 b 131 238 189 61 131 113 l 131 314 l 881 314 l 881 238 b 708 61 881 113 822 61 z "},"ӭ":{"ha":999,"x_min":0,"x_max":0,"o":"m 307 893 l 350 893 b 368 911 364 893 368 897 l 368 954 b 350 972 368 968 364 972 l 307 972 b 289 954 293 972 289 968 l 289 911 b 307 893 289 897 293 893 z m 631 893 l 674 893 b 692 911 688 893 692 897 l 692 954 b 674 972 692 968 688 972 l 631 972 b 613 954 617 972 613 968 l 613 911 b 631 893 613 897 617 893 z m 696 700 l 282 700 b 56 511 131 700 56 635 l 56 478 b 72 460 56 467 61 460 l 106 460 b 125 475 117 460 125 465 l 125 507 b 288 635 125 590 175 635 l 696 635 b 868 458 810 635 868 583 l 868 378 l 581 378 b 561 358 567 378 561 372 l 561 335 b 581 315 561 321 567 315 l 868 315 l 868 233 b 696 60 868 111 810 60 l 308 60 b 125 101 204 60 171 65 b 99 103 115 108 110 110 l 69 89 b 72 67 61 85 64 78 b 310 -7 107 26 153 -7 l 696 -7 b 936 229 857 -7 936 72 l 936 463 b 696 700 936 621 857 700 z "},"ӯ":{"ha":1046,"x_min":0,"x_max":0,"o":"m 301 906 l 751 906 b 772 926 764 906 772 913 l 772 951 b 751 972 772 965 764 972 l 301 972 b 281 951 288 972 281 965 l 281 926 b 301 906 281 913 288 906 z m 981 694 l 939 694 b 913 671 925 694 919 685 l 529 78 l 515 78 l 133 671 b 107 694 125 685 119 694 l 65 694 b 53 671 51 694 43 686 l 474 25 b 485 10 478 19 481 14 l 328 -228 b 339 -251 318 -243 325 -251 l 381 -251 b 408 -228 394 -251 400 -242 l 569 24 l 571 25 l 992 671 b 981 694 1001 686 994 694 z "},"Δ":{"ha":1150,"x_min":0,"x_max":0,"o":"m 1092 28 l 614 990 b 588 1013 607 1004 600 1013 l 564 1013 b 538 990 551 1013 544 1004 l 58 28 b 72 0 51 13 58 0 l 1076 0 b 1092 28 1090 0 1099 13 z m 156 71 l 576 928 l 993 71 z "},"Ω":{"ha":1332,"x_min":0,"x_max":0,"o":"m 1249 276 l 1249 735 b 972 1025 1249 921 1132 1025 l 360 1025 b 83 735 200 1025 83 921 l 83 276 b 200 71 83 183 125 118 l 104 71 b 83 50 90 71 83 64 l 83 21 b 104 0 83 7 90 0 l 353 0 b 374 21 367 0 374 7 l 374 49 b 353 69 374 63 367 69 l 349 69 b 154 282 257 69 154 161 l 154 733 b 360 954 154 882 235 954 l 972 954 b 1178 733 1096 954 1178 882 l 1178 282 b 983 69 1178 161 1075 69 l 979 69 b 958 49 965 69 958 63 l 958 21 b 979 0 958 7 965 0 l 1228 0 b 1249 21 1242 0 1249 7 l 1249 50 b 1228 71 1249 64 1242 71 l 1132 71 b 1249 276 1207 118 1249 183 z "},"μ":{"ha":1025,"x_min":0,"x_max":0,"o":"m 936 694 l 907 694 b 888 675 893 694 888 689 l 888 236 b 715 61 888 111 829 61 l 310 61 b 138 236 196 61 138 111 l 138 675 b 118 694 138 689 132 694 l 89 694 b 69 675 75 694 69 689 l 69 -258 b 89 -278 69 -272 75 -278 l 117 -278 b 136 -258 131 -278 136 -272 l 136 49 b 311 -6 176 13 235 -6 l 678 -6 b 878 75 801 -6 840 22 l 888 75 l 888 19 b 907 0 888 6 892 0 l 936 0 b 956 19 950 0 956 6 l 956 675 b 936 694 956 689 950 694 z "},"π":{"ha":1082,"x_min":0,"x_max":0,"o":"m 1006 694 l 75 694 b 56 674 61 694 56 688 l 56 644 b 76 624 56 631 61 624 l 135 624 l 135 21 b 156 0 135 7 142 0 l 185 0 b 206 21 199 0 206 7 l 206 624 l 875 624 l 875 21 b 896 0 875 7 882 0 l 925 0 b 946 21 939 0 946 7 l 946 624 l 1006 624 b 1026 643 1019 624 1026 631 l 1026 674 b 1006 694 1026 686 1019 694 z "},"¹":{"ha":419,"x_min":0,"x_max":0,"o":"m 167 951 l 167 564 b 188 543 167 550 174 543 l 232 543 b 253 564 246 543 253 550 l 253 951 b 232 972 253 965 246 972 l 188 972 b 167 951 174 972 167 965 z "},"²":{"ha":444,"x_min":0,"x_max":0,"o":"m 340 624 l 190 624 l 268 692 b 360 847 317 733 360 776 b 240 972 360 913 322 972 l 206 972 b 83 857 129 972 83 924 l 83 839 b 104 818 83 825 90 818 l 146 818 b 167 839 160 818 167 825 l 167 849 b 218 893 167 878 188 893 b 275 839 253 893 275 874 b 226 761 275 807 250 783 l 106 647 b 86 608 92 635 86 628 l 86 563 b 107 542 86 549 93 542 l 340 542 b 361 563 354 542 361 549 l 361 603 b 340 624 361 617 354 624 z "},"³":{"ha":451,"x_min":0,"x_max":0,"o":"m 301 757 b 360 853 343 778 360 810 b 243 972 360 913 322 972 l 208 972 b 86 857 132 972 86 924 l 86 839 b 107 818 86 825 93 818 l 149 818 b 169 839 163 818 169 825 l 169 849 b 224 893 169 878 190 893 b 278 840 258 893 278 874 b 226 793 278 810 264 793 l 204 793 b 185 772 192 793 185 786 l 185 742 b 204 721 185 728 192 721 l 226 721 b 281 674 267 721 281 704 b 224 621 281 640 261 621 b 167 665 188 621 167 636 l 167 675 b 146 696 167 689 160 696 l 104 696 b 83 675 90 696 83 689 l 83 657 b 208 542 83 590 129 542 l 243 542 b 368 661 331 542 368 601 b 301 757 368 704 346 736 z "},"⁄":{"ha":139,"x_min":0,"x_max":0,"o":"m 289 988 l -272 21 b -258 0 -281 7 -272 0 l -206 0 b -178 21 -192 0 -186 7 l 383 988 b 369 1008 392 1001 383 1008 l 317 1008 b 289 988 303 1008 297 1001 z "},"½":{"ha":1003,"x_min":0,"x_max":0,"o":"m 708 988 l 147 21 b 161 0 139 7 147 0 l 214 0 b 242 21 228 0 233 7 l 803 988 b 789 1008 811 1001 803 1008 l 736 1008 b 708 988 722 1008 717 1001 z m 167 951 l 167 564 b 188 543 167 550 174 543 l 232 543 b 253 564 246 543 253 550 l 253 951 b 232 972 253 965 246 972 l 188 972 b 167 951 174 972 167 965 z m 899 82 l 749 82 l 826 150 b 918 306 875 192 918 235 b 799 431 918 371 881 431 l 764 431 b 642 315 688 431 642 382 l 642 297 b 663 276 642 283 649 276 l 704 276 b 725 297 718 276 725 283 l 725 307 b 776 351 725 336 746 351 b 833 297 811 351 833 332 b 785 219 833 265 808 242 l 664 106 b 644 67 650 93 644 86 l 644 21 b 665 0 644 7 651 0 l 899 0 b 919 21 913 0 919 7 l 919 61 b 899 82 919 75 913 82 z "},"¼":{"ha":1025,"x_min":0,"x_max":0,"o":"m 708 988 l 147 21 b 161 0 139 7 147 0 l 214 0 b 242 21 228 0 233 7 l 803 988 b 789 1008 811 1001 803 1008 l 736 1008 b 708 988 722 1008 717 1001 z m 167 951 l 167 564 b 188 543 167 550 174 543 l 232 543 b 253 564 246 543 253 550 l 253 951 b 232 972 253 965 246 972 l 188 972 b 167 951 174 972 167 965 z m 921 150 l 901 150 l 901 410 b 881 431 901 424 894 431 l 811 431 b 788 415 803 431 793 426 l 649 151 b 642 126 646 146 642 138 l 642 92 b 665 71 642 78 650 71 l 818 71 l 818 21 b 839 0 818 7 825 0 l 881 0 b 901 21 894 0 901 7 l 901 71 l 921 71 b 942 92 935 71 942 78 l 942 129 b 921 150 942 143 935 150 z m 818 153 l 738 153 l 818 315 z "},"¾":{"ha":1057,"x_min":0,"x_max":0,"o":"m 740 988 l 179 21 b 193 0 171 7 179 0 l 246 0 b 274 21 260 0 265 7 l 835 988 b 821 1008 843 1001 835 1008 l 768 1008 b 740 988 754 1008 749 1001 z m 301 757 b 360 853 343 778 360 810 b 243 972 360 913 322 972 l 208 972 b 86 857 132 972 86 924 l 86 839 b 107 818 86 825 93 818 l 149 818 b 169 839 163 818 169 825 l 169 849 b 224 893 169 878 190 893 b 278 840 258 893 278 874 b 226 793 278 810 264 793 l 204 793 b 185 772 192 793 185 786 l 185 742 b 204 721 185 728 192 721 l 226 721 b 281 674 267 721 281 704 b 224 621 281 640 261 621 b 167 665 188 621 167 636 l 167 675 b 146 696 167 689 160 696 l 104 696 b 83 675 90 696 83 689 l 83 657 b 208 542 83 590 129 542 l 243 542 b 368 661 331 542 368 601 b 301 757 368 704 346 736 z m 953 150 l 933 150 l 933 410 b 913 431 933 424 926 431 l 843 431 b 819 415 835 431 825 426 l 681 151 b 674 126 678 146 674 138 l 674 92 b 697 71 674 78 682 71 l 850 71 l 850 21 b 871 0 850 7 857 0 l 913 0 b 933 21 926 0 933 7 l 933 71 l 953 71 b 974 92 967 71 974 78 l 974 129 b 953 150 974 143 967 150 z m 850 153 l 769 153 l 850 315 z "},"⅛":{"ha":1007,"x_min":0,"x_max":0,"o":"m 708 988 l 147 21 b 161 0 139 7 147 0 l 214 0 b 242 21 228 0 233 7 l 803 988 b 789 1008 811 1001 803 1008 l 736 1008 b 708 988 722 1008 717 1001 z m 167 951 l 167 564 b 188 543 167 550 174 543 l 232 543 b 253 564 246 543 253 550 l 253 951 b 232 972 253 965 246 972 l 188 972 b 167 951 174 972 167 965 z m 867 226 b 913 317 894 244 913 274 b 794 431 913 381 871 431 l 771 431 b 653 317 699 431 653 381 b 699 226 653 274 671 244 b 642 122 671 210 642 182 b 769 0 642 50 685 0 l 796 0 b 924 122 881 0 924 50 b 867 226 924 182 894 210 z m 786 258 l 779 258 b 733 307 751 258 733 276 b 779 356 733 338 751 356 l 786 356 b 832 307 814 356 832 338 b 786 258 832 276 814 258 z m 775 78 b 726 131 746 78 726 94 b 775 186 726 165 746 186 l 790 186 b 839 131 819 186 839 165 b 790 78 839 94 819 78 z "},"⅜":{"ha":1039,"x_min":0,"x_max":0,"o":"m 740 988 l 179 21 b 193 0 171 7 179 0 l 246 0 b 274 21 260 0 265 7 l 835 988 b 821 1008 843 1001 835 1008 l 768 1008 b 740 988 754 1008 749 1001 z m 301 757 b 360 853 343 778 360 810 b 243 972 360 913 322 972 l 208 972 b 86 857 132 972 86 924 l 86 839 b 107 818 86 825 93 818 l 149 818 b 169 839 163 818 169 825 l 169 849 b 224 893 169 878 190 893 b 278 840 258 893 278 874 b 226 793 278 810 264 793 l 204 793 b 185 772 192 793 185 786 l 185 742 b 204 721 185 728 192 721 l 226 721 b 281 674 267 721 281 704 b 224 621 281 640 261 621 b 167 665 188 621 167 636 l 167 675 b 146 696 167 689 160 696 l 104 696 b 83 675 90 696 83 689 l 83 657 b 208 542 83 590 129 542 l 243 542 b 368 661 331 542 368 601 b 301 757 368 704 346 736 z m 899 226 b 944 317 926 244 944 274 b 826 431 944 381 903 431 l 803 431 b 685 317 731 431 685 381 b 731 226 685 274 703 244 b 674 122 703 210 674 182 b 801 0 674 50 717 0 l 828 0 b 956 122 913 0 956 50 b 899 226 956 182 926 210 z m 818 258 l 811 258 b 765 307 783 258 765 276 b 811 356 765 338 783 356 l 818 356 b 864 307 846 356 864 338 b 818 258 864 276 846 258 z m 807 78 b 758 131 778 78 758 94 b 807 186 758 165 778 186 l 822 186 b 871 131 851 186 871 165 b 822 78 871 94 851 78 z "},"⅝":{"ha":1039,"x_min":0,"x_max":0,"o":"m 740 988 l 179 21 b 193 0 171 7 179 0 l 246 0 b 274 21 260 0 265 7 l 835 988 b 821 1008 843 1001 835 1008 l 768 1008 b 740 988 754 1008 749 1001 z m 238 824 b 169 799 215 824 188 818 l 169 892 l 332 892 b 353 913 346 892 353 899 l 353 951 b 332 972 353 965 346 972 l 110 972 b 89 951 96 972 89 965 l 89 757 b 110 736 89 743 96 736 l 168 736 b 221 754 181 749 201 754 b 281 682 268 754 281 726 b 224 621 281 640 261 621 b 167 665 188 621 167 636 l 167 675 b 146 696 167 689 160 696 l 104 696 b 83 675 90 696 83 689 l 83 657 b 208 542 83 590 129 542 l 243 542 b 368 682 331 542 368 601 b 238 824 368 769 325 824 z m 899 226 b 944 317 926 244 944 274 b 826 431 944 381 903 431 l 803 431 b 685 317 731 431 685 381 b 731 226 685 274 703 244 b 674 122 703 210 674 182 b 801 0 674 50 717 0 l 828 0 b 956 122 913 0 956 50 b 899 226 956 182 926 210 z m 818 258 l 811 258 b 765 307 783 258 765 276 b 811 356 765 338 783 356 l 818 356 b 864 307 846 356 864 338 b 818 258 864 276 846 258 z m 807 78 b 758 131 778 78 758 94 b 807 186 758 165 778 186 l 822 186 b 871 131 851 186 871 165 b 822 78 871 94 851 78 z "},"⅞":{"ha":1024,"x_min":0,"x_max":0,"o":"m 725 988 l 164 21 b 178 0 156 7 164 0 l 231 0 b 258 21 244 0 250 7 l 819 988 b 806 1008 828 1001 819 1008 l 753 1008 b 725 988 739 1008 733 1001 z m 353 908 l 353 951 b 332 972 353 965 346 972 l 104 972 b 83 951 90 972 83 965 l 83 910 b 104 889 83 896 90 889 l 260 889 l 104 561 b 117 542 100 551 104 542 l 175 542 b 197 561 186 542 193 551 l 347 885 b 353 908 353 896 353 903 z m 883 226 b 929 317 911 244 929 274 b 811 431 929 381 888 431 l 788 431 b 669 317 715 431 669 381 b 715 226 669 274 688 244 b 658 122 688 210 658 182 b 786 0 658 50 701 0 l 813 0 b 940 122 897 0 940 50 b 883 226 940 182 911 210 z m 803 258 l 796 258 b 750 307 768 258 750 276 b 796 356 750 338 768 356 l 803 356 b 849 307 831 356 849 338 b 803 258 849 276 831 258 z m 792 78 b 743 131 763 78 743 94 b 792 186 743 165 763 186 l 807 186 b 856 131 836 186 856 165 b 807 78 856 94 836 78 z "},".":{"ha":176,"x_min":0,"x_max":0,"o":"m 67 0 l 110 0 b 128 18 124 0 128 4 l 128 61 b 110 79 128 75 124 79 l 67 79 b 49 61 53 79 49 75 l 49 18 b 67 0 49 4 53 0 z "},",":{"ha":201,"x_min":0,"x_max":0,"o":"m 136 79 l 107 79 b 90 61 93 79 90 75 l 90 -129 l 53 -129 b 35 -147 39 -129 35 -133 l 35 -171 b 53 -189 35 -185 39 -189 l 122 -189 b 153 -157 144 -189 153 -179 l 153 61 b 136 79 153 75 150 79 z "},":":{"ha":176,"x_min":0,"x_max":0,"o":"m 67 615 l 110 615 b 128 633 124 615 128 619 l 128 676 b 110 694 128 690 124 694 l 67 694 b 49 676 53 694 49 690 l 49 633 b 67 615 49 619 53 615 z m 67 0 l 110 0 b 128 18 124 0 128 4 l 128 61 b 110 79 128 75 124 79 l 67 79 b 49 61 53 79 49 75 l 49 18 b 67 0 49 4 53 0 z "},";":{"ha":224,"x_min":0,"x_max":0,"o":"m 114 615 l 157 615 b 175 633 171 615 175 619 l 175 676 b 157 694 175 690 171 694 l 114 694 b 96 676 100 694 96 690 l 96 633 b 114 615 96 619 100 615 z m 150 79 l 121 79 b 104 61 107 79 104 75 l 104 -129 l 67 -129 b 49 -147 53 -129 49 -133 l 49 -171 b 67 -189 49 -185 53 -189 l 136 -189 b 167 -157 158 -189 167 -179 l 167 61 b 150 79 167 75 164 79 z "},"…":{"ha":553,"x_min":0,"x_max":0,"o":"m 67 0 l 110 0 b 128 18 124 0 128 4 l 128 61 b 110 79 128 75 124 79 l 67 79 b 49 61 53 79 49 75 l 49 18 b 67 0 49 4 53 0 z m 251 0 l 294 0 b 313 18 308 0 313 4 l 313 61 b 294 79 313 75 308 79 l 251 79 b 233 61 238 79 233 75 l 233 18 b 251 0 233 4 238 0 z m 443 0 l 488 0 b 504 18 501 0 504 4 l 504 61 b 488 79 504 75 501 79 l 443 79 b 426 61 429 79 426 75 l 426 18 b 443 0 426 4 429 0 z "},"!":{"ha":260,"x_min":0,"x_max":0,"o":"m 110 217 l 150 217 b 167 235 164 217 167 221 l 167 954 b 150 972 167 968 164 972 l 110 972 b 92 954 96 972 92 968 l 92 235 b 110 217 92 221 96 217 z m 108 0 l 151 0 b 169 18 165 0 169 4 l 169 61 b 151 79 169 75 165 79 l 108 79 b 90 61 94 79 90 75 l 90 18 b 108 0 90 4 94 0 z "},"¡":{"ha":260,"x_min":0,"x_max":0,"o":"m 151 694 l 108 694 b 90 676 94 694 90 690 l 90 633 b 108 615 90 619 94 615 l 151 615 b 169 633 165 615 169 619 l 169 676 b 151 694 169 690 165 694 z m 150 478 l 110 478 b 92 460 96 478 92 474 l 92 -260 b 110 -278 92 -274 96 -278 l 150 -278 b 167 -260 164 -278 167 -274 l 167 460 b 150 478 167 474 164 478 z "},"?":{"ha":1253,"x_min":0,"x_max":0,"o":"m 582 217 l 615 217 b 635 236 629 217 635 222 l 635 360 b 722 461 635 431 649 461 l 929 461 b 1190 717 1108 461 1190 533 b 931 978 1190 900 1110 978 l 338 978 b 63 731 174 978 63 906 l 63 711 b 79 694 63 700 67 694 l 117 694 b 133 711 129 694 133 700 b 343 911 133 857 200 911 l 919 911 b 1119 715 1057 911 1119 867 b 919 526 1119 564 1057 526 l 701 526 b 563 376 593 526 563 475 l 563 236 b 582 217 563 222 568 217 z m 578 0 l 622 0 b 639 18 636 0 639 4 l 639 61 b 622 79 639 75 636 79 l 578 79 b 561 61 564 79 561 75 l 561 18 b 578 0 561 4 564 0 z "},"¿":{"ha":1253,"x_min":0,"x_max":0,"o":"m 674 696 l 631 696 b 613 678 617 696 613 692 l 613 635 b 631 617 613 621 617 617 l 674 617 b 692 635 688 617 692 621 l 692 678 b 674 696 692 692 688 696 z m 671 479 l 638 479 b 618 460 624 479 618 474 l 618 336 b 531 235 618 265 604 235 l 324 235 b 63 -21 144 235 63 163 b 322 -282 63 -206 143 -282 l 915 -282 b 1190 -35 1079 -282 1190 -210 l 1190 -15 b 1174 1 1190 -4 1186 1 l 1135 1 b 1119 -15 1122 1 1119 -4 b 910 -215 1119 -161 1051 -215 l 333 -215 b 133 -19 196 -215 133 -171 b 333 169 133 132 196 169 l 551 169 b 690 319 660 169 690 219 l 690 460 b 671 479 690 474 685 479 z "},"·":{"ha":218,"x_min":0,"x_max":0,"o":"m 88 382 l 131 382 b 149 400 144 382 149 386 l 149 443 b 131 461 149 457 144 461 l 88 461 b 69 443 74 461 69 457 l 69 400 b 88 382 69 386 74 382 z "},"•":{"ha":310,"x_min":0,"x_max":0,"o":"m 69 457 l 69 385 b 114 339 69 354 83 339 l 193 339 b 240 385 224 339 240 354 l 240 457 b 193 503 240 488 224 503 l 114 503 b 69 457 83 503 69 488 z "},"*":{"ha":488,"x_min":0,"x_max":0,"o":"m 221 633 l 265 633 b 282 649 278 633 282 639 l 276 764 l 368 697 b 390 703 376 690 386 693 l 414 740 b 408 763 421 750 418 756 l 306 821 l 408 878 b 414 900 418 883 421 890 l 390 938 b 368 943 386 947 376 950 l 276 876 l 282 992 b 265 1007 282 1001 278 1007 l 221 1007 b 206 992 211 1007 206 1001 l 211 876 l 119 943 b 96 938 111 950 101 947 l 74 900 b 79 878 67 890 68 883 l 183 821 l 79 763 b 74 740 68 756 67 750 l 96 703 b 119 697 101 693 111 690 l 211 764 l 206 649 b 221 633 206 639 211 633 z "}}}
